<svg viewBox="0 0 44 45" fill="none" xmlns="http://www.w3.org/2000/svg">
<mask id="path-1-inside-1_151_219" fill="white">
<path d="M12 12.2539H0V0.253906H12V12.2539Z"/>
</mask>
<path d="M0 0.253906V-0.746094H-1V0.253906H0ZM1 12.2539V0.253906H-1V12.2539H1ZM0 1.25391H12V-0.746094H0V1.25391Z" fill="white" mask="url(#path-1-inside-1_151_219)"/>
<mask id="path-3-inside-2_151_219" fill="white">
<path d="M32 12.2539H44V0.253906H32V12.2539Z"/>
</mask>
<path d="M44 0.253906V-0.746094H45V0.253906H44ZM43 12.2539V0.253906H45V12.2539H43ZM44 1.25391H32V-0.746094H44V1.25391Z" fill="white" mask="url(#path-3-inside-2_151_219)"/>
<mask id="path-5-inside-3_151_219" fill="white">
<path d="M32 32.2539H44V44.2539H32V32.2539Z"/>
</mask>
<path d="M44 44.2539V45.2539H45V44.2539H44ZM43 32.2539V44.2539H45V32.2539H43ZM44 43.2539H32V45.2539H44V43.2539Z" fill="white" mask="url(#path-5-inside-3_151_219)"/>
<mask id="path-7-inside-4_151_219" fill="white">
<path d="M12 32.2539H0V44.2539H12V32.2539Z"/>
</mask>
<path d="M0 44.2539V45.2539H-1V44.2539H0ZM1 32.2539V44.2539H-1V32.2539H1ZM0 43.2539H12V45.2539H0V43.2539Z" fill="white" mask="url(#path-7-inside-4_151_219)"/>
<g clip-path="url(#clip0_151_219)">
<path d="M28.0996 16.0709L18.2292 22.1501C17.6706 22.4949 17.4063 23.1759 17.5863 23.8058L18.6535 27.5558C18.7447 27.8756 19.0292 28.0881 19.3566 28.0881C19.3748 28.0881 19.3932 28.0875 19.4117 28.0861C19.7617 28.0607 20.0386 27.8 20.0852 27.4526L20.3627 25.3964C20.4005 25.119 20.533 24.8631 20.7377 24.6721L28.8829 17.1007C29.0016 16.9913 29.0752 16.8415 29.0892 16.6807C29.1033 16.5199 29.0567 16.3597 28.9588 16.2314C28.8614 16.1024 28.7192 16.0144 28.5603 15.9847C28.4014 15.955 28.2371 15.9857 28.0996 16.0709ZM20.0864 23.9721C19.7199 24.3138 19.4827 24.7718 19.415 25.2684L19.2805 26.2658L18.5058 23.5437C18.4428 23.3232 18.5355 23.0847 18.731 22.9641L25.9618 18.5106L20.0864 23.9721Z" fill="white"/>
<path d="M33.6496 12.1086C33.4984 11.9803 33.3154 11.8951 33.12 11.8621C32.9245 11.8291 32.7237 11.8493 32.5387 11.9208L10.7469 20.3275C10.3153 20.4939 10.0378 20.9003 10.0401 21.3627C10.0423 21.8256 10.3239 22.2297 10.758 22.3923L15.8481 24.2921L17.8337 30.6777C17.8872 30.8503 17.9823 31.0072 18.1107 31.1344C18.239 31.2616 18.3967 31.3554 18.5698 31.4073C18.7426 31.4595 18.9256 31.4683 19.1027 31.4331C19.2797 31.3978 19.4454 31.3196 19.5851 31.2053L22.5448 28.7925C22.614 28.7361 22.7 28.7042 22.7892 28.7017C22.8784 28.6992 22.966 28.7263 23.0383 28.7787L28.3766 32.6543C28.5647 32.7916 28.7916 32.8657 29.0245 32.8658C29.1611 32.8657 29.2964 32.8403 29.4238 32.791C29.7747 32.6553 30.0299 32.3545 30.1063 31.9865L34.017 13.1751C34.0573 12.9807 34.0445 12.7791 33.9798 12.5914C33.9152 12.4037 33.8011 12.2369 33.6496 12.1086ZM33.0808 12.9808L29.1701 31.7921C29.156 31.8601 29.107 31.8884 29.0791 31.8992C29.051 31.9101 28.9954 31.9221 28.9386 31.8808L23.6001 28.0049C23.3678 27.8362 23.088 27.7454 22.8008 27.7456C22.4875 27.7454 22.1837 27.8533 21.9408 28.0512L18.9805 30.4646C18.9278 30.5077 18.8731 30.5 18.8452 30.4916C18.8172 30.4832 18.7672 30.4593 18.7468 30.3938L16.6916 23.7842C16.6699 23.7145 16.6326 23.6507 16.5824 23.5976C16.5323 23.5446 16.4706 23.5038 16.4023 23.4782L11.093 21.4967C11.0135 21.4669 10.9965 21.4049 10.9963 21.3581C10.9961 21.3117 11.0124 21.2499 11.0911 21.2196L32.883 12.813L32.8834 12.8128C32.9541 12.7855 33.0065 12.8169 33.0314 12.838C33.0565 12.8593 33.0963 12.9062 33.0808 12.9808Z" fill="white"/>
<path d="M30.0783 22.1751C29.8202 22.119 29.5657 22.2828 29.5097 22.5409L29.437 22.8756C29.381 23.1336 29.5448 23.3882 29.8028 23.4442C29.8363 23.4515 29.8705 23.4552 29.9048 23.4552C30.1248 23.4552 30.3229 23.3023 30.3715 23.0784L30.4442 22.7437C30.5002 22.4857 30.3363 22.2311 30.0783 22.1751ZM29.6002 24.3772C29.3418 24.3212 29.0875 24.485 29.0315 24.7431L27.9319 29.8079C27.8759 30.066 28.0396 30.3206 28.2976 30.3766C28.3319 30.384 28.3659 30.3876 28.3996 30.3876C28.6197 30.3876 28.8177 30.2347 28.8663 30.0108L29.966 24.9459C30.022 24.6878 29.8582 24.4333 29.6002 24.3772Z" fill="white"/>
</g>
<defs>
<clipPath id="clip0_151_219">
<rect width="24" height="24" fill="white" transform="translate(10.04 10.3564)"/>
</clipPath>
</defs>
</svg>
