<svg viewBox="0 0 44 45" fill="none" xmlns="http://www.w3.org/2000/svg">
<mask id="path-1-inside-1_151_207" fill="white">
<path d="M12 12.2539H0V0.253906H12V12.2539Z"/>
</mask>
<path d="M0 0.253906V-0.746094H-1V0.253906H0ZM1 12.2539V0.253906H-1V12.2539H1ZM0 1.25391H12V-0.746094H0V1.25391Z" fill="white" mask="url(#path-1-inside-1_151_207)"/>
<mask id="path-3-inside-2_151_207" fill="white">
<path d="M32 12.2539H44V0.253906H32V12.2539Z"/>
</mask>
<path d="M44 0.253906V-0.746094H45V0.253906H44ZM43 12.2539V0.253906H45V12.2539H43ZM44 1.25391H32V-0.746094H44V1.25391Z" fill="white" mask="url(#path-3-inside-2_151_207)"/>
<mask id="path-5-inside-3_151_207" fill="white">
<path d="M32 32.2539H44V44.2539H32V32.2539Z"/>
</mask>
<path d="M44 44.2539V45.2539H45V44.2539H44ZM43 32.2539V44.2539H45V32.2539H43ZM44 43.2539H32V45.2539H44V43.2539Z" fill="white" mask="url(#path-5-inside-3_151_207)"/>
<mask id="path-7-inside-4_151_207" fill="white">
<path d="M12 32.2539H0V44.2539H12V32.2539Z"/>
</mask>
<path d="M0 44.2539V45.2539H-1V44.2539H0ZM1 32.2539V44.2539H-1V32.2539H1ZM0 43.2539H12V45.2539H0V43.2539Z" fill="white" mask="url(#path-7-inside-4_151_207)"/>
<g clip-path="url(#clip0_151_207)">
<path d="M16.6894 17.9082L16.7111 17.9182C16.7723 17.9463 16.8388 17.9608 16.9061 17.9609C17.0837 17.9609 17.2537 17.8593 17.3326 17.6872C17.4404 17.4519 17.3371 17.1737 17.1017 17.0658L17.0823 17.057C16.8472 16.9484 16.5687 17.0511 16.4603 17.2861C16.3517 17.5212 16.4544 17.7997 16.6894 17.9082Z" fill="white"/>
<path d="M33.8898 14.8007C33.8244 14.723 33.7356 14.6687 33.6366 14.6459C33.5377 14.6231 33.4341 14.633 33.3413 14.6742C33.0571 14.8003 32.7666 14.9117 32.471 15.008C32.8562 14.5198 33.1515 13.9669 33.3431 13.3753C33.3724 13.2848 33.3735 13.1874 33.3462 13.0962C33.3188 13.005 33.2643 12.9242 33.19 12.8648C33.1156 12.8053 33.0249 12.7698 32.9299 12.7632C32.8349 12.7565 32.7401 12.779 32.6582 12.8275C31.8395 13.3126 30.9595 13.6619 30.0388 13.8675C29.0771 12.9433 27.7791 12.418 26.4366 12.418C23.5704 12.418 21.2386 14.7498 21.2386 17.616C21.2386 17.8041 21.2488 17.9935 21.2692 18.1828C20.534 18.113 19.8061 17.9808 19.0934 17.7875C18.8436 17.7196 18.586 17.8671 18.5182 18.117C18.4503 18.3668 18.5978 18.6243 18.8477 18.6922C19.8082 18.9532 20.803 19.1111 21.8044 19.1615C21.8766 19.1652 21.9486 19.1522 22.0149 19.1234C22.0811 19.0945 22.1398 19.0508 22.1864 18.9955C22.2329 18.9403 22.2661 18.875 22.2833 18.8048C22.3005 18.7347 22.3012 18.6615 22.2854 18.591C22.2129 18.2669 22.1761 17.9388 22.1761 17.616C22.1761 15.2667 24.0873 13.3555 26.4366 13.3555C27.6105 13.3555 28.7427 13.8452 29.5428 14.699C29.597 14.7569 29.665 14.8001 29.7405 14.8245C29.816 14.8489 29.8964 14.8538 29.9743 14.8386C30.6161 14.714 31.2439 14.5259 31.8484 14.277C31.5077 14.7501 31.074 15.1487 30.5737 15.4482C30.4817 15.5033 30.4113 15.5884 30.3744 15.6891C30.3374 15.7899 30.3362 15.9002 30.3708 16.0018C30.4055 16.1033 30.4739 16.1899 30.5647 16.2471C30.6555 16.3043 30.7632 16.3286 30.8697 16.3159C31.3026 16.2645 31.7316 16.1844 32.1539 16.0761C31.768 16.4796 31.3456 16.8467 30.8922 17.1724C30.8303 17.2169 30.7802 17.2759 30.7462 17.3441C30.7122 17.4123 30.6954 17.4878 30.6972 17.564L30.7115 18.1711C30.7085 24.5525 25.851 31.1513 17.7239 31.1513C15.8667 31.1513 14.047 30.7564 12.3732 29.9985C14.3435 29.8495 16.1926 29.1347 17.7605 27.9086C17.8367 27.849 17.8926 27.7673 17.9205 27.6747C17.9484 27.5821 17.947 27.4831 17.9165 27.3913C17.8859 27.2995 17.8277 27.2195 17.7498 27.1621C17.672 27.1047 17.5783 27.0728 17.4815 27.0707C15.9124 27.038 14.5086 26.1528 13.7915 24.8027C13.8426 24.8041 13.8942 24.8049 13.9459 24.8049C14.4109 24.8049 14.8702 24.7456 15.3109 24.6289C15.4132 24.6018 15.5033 24.541 15.5666 24.4562C15.6299 24.3714 15.6627 24.2677 15.6595 24.1619C15.6564 24.0562 15.6176 23.9546 15.5494 23.8737C15.4812 23.7928 15.3877 23.7373 15.284 23.7164C13.5355 23.362 12.2104 21.9475 11.9247 20.2278C12.4415 20.4167 12.9771 20.519 13.5251 20.533C13.6267 20.5356 13.7263 20.505 13.8091 20.446C13.8919 20.387 13.9532 20.3027 13.984 20.2059C14.0146 20.1089 14.0129 20.0047 13.9792 19.9088C13.9454 19.8129 13.8814 19.7306 13.7968 19.6743C12.61 18.8842 11.9015 17.5598 11.9015 16.1315C11.9015 15.6033 11.9983 15.0834 12.1847 14.5991C12.9485 15.4426 13.8123 16.1898 14.7572 16.824C14.9721 16.9683 15.2633 16.911 15.4076 16.6961C15.5519 16.4811 15.4946 16.1899 15.2797 16.0456C14.2096 15.3272 13.2518 14.4543 12.4374 13.4554C12.3896 13.3968 12.3283 13.3507 12.2588 13.3209C12.1893 13.2911 12.1136 13.2785 12.0382 13.2843C11.9628 13.2901 11.8899 13.3141 11.8258 13.3541C11.7616 13.3942 11.7082 13.4492 11.6699 13.5145C11.2081 14.3017 10.964 15.2067 10.964 16.1315C10.964 17.2744 11.3359 18.3626 12.0004 19.2484C11.8725 19.1925 11.7473 19.1307 11.6252 19.0632C11.5539 19.0238 11.4734 19.0037 11.3919 19.0049C11.3104 19.006 11.2306 19.0285 11.1604 19.0699C11.0902 19.1113 11.032 19.1703 10.9916 19.2411C10.9511 19.3119 10.9299 19.3921 10.9299 19.4736V19.5312C10.9299 21.2655 11.7953 22.8409 13.148 23.7943L13.1396 23.7927C13.0597 23.7776 12.9773 23.7835 12.9004 23.8099C12.8235 23.8363 12.7548 23.8822 12.701 23.9431C12.6472 24.0041 12.6102 24.078 12.5936 24.1576C12.577 24.2371 12.5814 24.3197 12.6063 24.397C13.1563 26.1044 14.5356 27.3795 16.2176 27.831C14.8261 28.658 13.2486 29.0903 11.5949 29.0903C11.236 29.0903 10.8846 29.0706 10.5208 29.0301C10.4156 29.0184 10.3096 29.0425 10.2199 29.0987C10.1302 29.1549 10.0622 29.2397 10.0269 29.3394C9.99157 29.4392 9.99103 29.5479 10.0254 29.648C10.0597 29.7481 10.1269 29.8336 10.216 29.8906C12.4598 31.3287 15.056 32.0888 17.724 32.0888C19.8698 32.0888 21.8781 31.6626 23.693 30.8216C25.3579 30.0504 26.829 28.9482 28.0655 27.5457C30.3428 24.9624 31.649 21.5435 31.649 18.1655C31.649 18.1618 31.6489 18.1581 31.6488 18.1545L31.6401 17.7854C32.5311 17.1115 33.3023 16.2925 33.9214 15.3627C33.9777 15.2782 34.005 15.1778 33.9993 15.0764C33.9937 14.9751 33.9552 14.8783 33.8898 14.8007Z" fill="white"/>
<path d="M27.6576 23.8012C27.4356 23.6681 27.1476 23.74 27.0144 23.962L27.0136 23.9634C26.8804 24.1854 26.9527 24.4726 27.1747 24.6058C27.2473 24.6495 27.3303 24.6725 27.415 24.6725C27.5745 24.6725 27.7303 24.591 27.8183 24.4444C27.9515 24.2224 27.8796 23.9344 27.6576 23.8012ZM26.7428 25.2118C26.5431 25.0472 26.2477 25.0756 26.083 25.2754C25.2624 26.2709 24.2923 27.0924 23.1996 27.7169C22.9748 27.8454 22.8968 28.1317 23.0252 28.3565C23.0557 28.4099 23.0965 28.4569 23.1452 28.4946C23.1938 28.5323 23.2495 28.56 23.3089 28.5762C23.3683 28.5924 23.4303 28.5968 23.4913 28.589C23.5524 28.5812 23.6114 28.5615 23.6648 28.5309C24.8564 27.8498 25.9133 26.9552 26.8064 25.8717C26.9711 25.6719 26.9426 25.3765 26.7428 25.2118Z" fill="white"/>
</g>
<defs>
<clipPath id="clip0_151_207">
<rect width="24" height="24" fill="white" transform="translate(10 10.2539)"/>
</clipPath>
</defs>
</svg>
