<svg viewBox="0 0 44 45" fill="none" xmlns="http://www.w3.org/2000/svg">
<mask id="path-1-inside-1_151_257" fill="white">
<path d="M12 12.2539H0V0.253906H12V12.2539Z"/>
</mask>
<path d="M0 0.253906V-0.746094H-1V0.253906H0ZM1 12.2539V0.253906H-1V12.2539H1ZM0 1.25391H12V-0.746094H0V1.25391Z" fill="white" mask="url(#path-1-inside-1_151_257)"/>
<mask id="path-3-inside-2_151_257" fill="white">
<path d="M32 12.2539H44V0.253906H32V12.2539Z"/>
</mask>
<path d="M44 0.253906V-0.746094H45V0.253906H44ZM43 12.2539V0.253906H45V12.2539H43ZM44 1.25391H32V-0.746094H44V1.25391Z" fill="white" mask="url(#path-3-inside-2_151_257)"/>
<mask id="path-5-inside-3_151_257" fill="white">
<path d="M32 32.2539H44V44.2539H32V32.2539Z"/>
</mask>
<path d="M44 44.2539V45.2539H45V44.2539H44ZM43 32.2539V44.2539H45V32.2539H43ZM44 43.2539H32V45.2539H44V43.2539Z" fill="white" mask="url(#path-5-inside-3_151_257)"/>
<mask id="path-7-inside-4_151_257" fill="white">
<path d="M12 32.2539H0V44.2539H12V32.2539Z"/>
</mask>
<path d="M0 44.2539V45.2539H-1V44.2539H0ZM1 32.2539V44.2539H-1V32.2539H1ZM0 43.2539H12V45.2539H0V43.2539Z" fill="white" mask="url(#path-7-inside-4_151_257)"/>
<g clip-path="url(#clip0_151_257)">
<path d="M18.5206 21.0811C17.3656 21.0811 16.4263 22.1311 16.4263 23.4211C16.4263 24.7111 17.3638 25.7592 18.5206 25.7592C19.6775 25.7592 20.6131 24.7111 20.6131 23.4211C20.6131 22.1311 19.6738 21.0811 18.5206 21.0811ZM18.5206 25.0186C17.7706 25.0186 17.1763 24.3061 17.1763 23.4304C17.1763 22.5548 17.7781 21.8404 18.5206 21.8404C19.2631 21.8404 19.8631 22.5529 19.8631 23.4304C19.8631 24.3079 19.2613 25.0092 18.5206 25.0092V25.0186Z" fill="white"/>
<path d="M32.8832 21.5277C32.3701 19.5195 31.6461 17.5711 30.7232 15.7152C30.6917 15.6566 30.6459 15.6069 30.5901 15.5708C29.6839 15.0315 28.7275 14.5813 27.7345 14.2265C25.8932 13.5571 25.0232 13.544 24.9876 13.544C24.8966 13.5431 24.8084 13.5753 24.7394 13.6346C24.6704 13.694 24.6253 13.7764 24.6126 13.8665L24.5001 14.6483C22.8616 14.4858 21.2111 14.4858 19.5726 14.6483L19.4601 13.8665C19.4473 13.7764 19.4023 13.694 19.3333 13.6346C19.2643 13.5753 19.1761 13.5431 19.0851 13.544C19.0495 13.544 18.1795 13.544 16.3382 14.2208C15.3475 14.5779 14.3937 15.03 13.4901 15.5708C13.4342 15.6069 13.3884 15.6566 13.357 15.7152C12.434 17.5711 11.7099 19.5195 11.197 21.5277C10.2276 25.4427 10.0401 27.4021 10.0401 27.4827C10.0355 27.5334 10.0413 27.5844 10.0571 27.6328C10.0729 27.6811 10.0984 27.7258 10.132 27.764C11.0958 28.7833 12.2568 29.596 13.5445 30.1527C14.73 30.6569 15.9781 30.9988 17.2551 31.169C17.3268 31.1756 17.3988 31.1614 17.4626 31.1281C17.5265 31.0949 17.5794 31.044 17.6151 30.9815L18.6276 29.2471C19.7548 29.4391 20.8966 29.5325 22.0401 29.5265C23.1836 29.5313 24.3255 29.4366 25.4526 29.2433L26.4651 30.9815C26.4978 31.0381 26.5448 31.0853 26.6014 31.1182C26.6579 31.1511 26.7221 31.1686 26.7876 31.169H26.8251C28.1011 31.001 29.3486 30.6617 30.5338 30.1602C31.8215 29.6035 32.9825 28.7908 33.9463 27.7715C33.9799 27.7333 34.0054 27.6886 34.0212 27.6403C34.037 27.5919 34.0428 27.5409 34.0382 27.4902C34.0401 27.4021 33.862 25.4427 32.8832 21.5277ZM30.247 29.4608C29.2002 29.8957 28.1057 30.2053 26.9863 30.3833L26.2213 29.0708C27.0988 28.8383 28.9251 28.2346 30.3145 26.9708C30.3514 26.9377 30.3814 26.8977 30.4029 26.8529C30.4243 26.8082 30.4368 26.7597 30.4395 26.7101C30.4422 26.6606 30.4351 26.611 30.4186 26.5642C30.4022 26.5174 30.3766 26.4743 30.3435 26.4374C30.3104 26.4005 30.2703 26.3704 30.2256 26.349C30.1809 26.3275 30.1324 26.3151 30.0828 26.3124C30.0333 26.3097 29.9837 26.3168 29.9369 26.3332C29.8901 26.3497 29.847 26.3752 29.8101 26.4083C28.1226 27.9515 25.5988 28.4408 25.5726 28.4465H25.5613C24.4012 28.6711 23.2218 28.7816 22.0401 28.7765C20.8587 28.7853 19.6794 28.6786 18.5188 28.4577H18.5076C18.4813 28.4577 15.967 27.9627 14.2701 26.4196C14.1955 26.3527 14.0974 26.3182 13.9973 26.3236C13.8973 26.3291 13.8035 26.3741 13.7366 26.4487C13.6698 26.5232 13.6352 26.6214 13.6407 26.7214C13.6462 26.8214 13.6911 26.9152 13.7657 26.9821C15.1551 28.2458 16.9813 28.8571 17.8588 29.0821L17.0938 30.3946C15.9742 30.2177 14.8796 29.908 13.8332 29.4721C12.7008 28.9728 11.6733 28.2634 10.8051 27.3815C10.867 26.8358 11.1201 24.9308 11.9301 21.7115C12.4231 19.7946 13.1091 17.9325 13.9776 16.154C14.8151 15.6705 15.6935 15.2614 16.6026 14.9315C17.305 14.6615 18.0323 14.4612 18.7738 14.3333L18.8395 14.7815C18.0895 14.969 16.2426 15.5052 14.7801 16.5683C14.7403 16.5974 14.7067 16.634 14.681 16.6761C14.6554 16.7181 14.6383 16.7648 14.6308 16.8135C14.6155 16.9118 14.6398 17.0121 14.6985 17.0924C14.7572 17.1727 14.8454 17.2264 14.9437 17.2417C14.9923 17.2493 15.042 17.2472 15.0899 17.2356C15.1377 17.224 15.1828 17.203 15.2226 17.174C16.8763 15.9721 19.1601 15.4752 19.3213 15.4396C20.2235 15.3315 21.1315 15.2789 22.0401 15.2821C22.9493 15.2785 23.8579 15.3311 24.7607 15.4396C24.9313 15.4752 27.1982 15.9702 28.8595 17.174C28.9398 17.2326 29.0401 17.257 29.1384 17.2417C29.2367 17.2264 29.3248 17.1727 29.3835 17.0924C29.4422 17.0121 29.4666 16.9118 29.4513 16.8135C29.436 16.7152 29.3823 16.627 29.302 16.5683C27.8395 15.5052 26.0001 14.9708 25.2426 14.7815L25.3082 14.3333C26.049 14.4618 26.7756 14.6621 27.4776 14.9315C28.3867 15.2614 29.265 15.6705 30.1026 16.154C30.9762 17.932 31.6673 19.794 32.1651 21.7115C32.9695 24.9308 33.2226 26.8358 33.2901 27.3815C32.4164 28.2609 31.3838 28.9665 30.247 29.4608Z" fill="white"/>
<path d="M25.5593 21.0811C24.4062 21.0811 23.4668 22.1311 23.4668 23.4211C23.4668 24.7111 24.4043 25.7592 25.5593 25.7592C26.7143 25.7592 27.6537 24.7111 27.6537 23.4211C27.6537 22.1311 26.7143 21.0811 25.5593 21.0811ZM25.5593 25.0186C24.8093 25.0186 24.2168 24.3061 24.2168 23.4304C24.2168 22.5548 24.8187 21.8404 25.5593 21.8404C26.2999 21.8404 26.9037 22.5529 26.9037 23.4304C26.9037 24.3079 26.3018 25.0092 25.5593 25.0092V25.0186Z" fill="white"/>
</g>
<defs>
<clipPath id="clip0_151_257">
<rect width="24" height="24" fill="white" transform="translate(10.04 10.3564)"/>
</clipPath>
</defs>
</svg>
