<svg viewBox="0 0 44 45" fill="none" xmlns="http://www.w3.org/2000/svg">
<mask id="path-1-inside-1_151_247" fill="white">
<path d="M12 12.2539H0V0.253906H12V12.2539Z"/>
</mask>
<path d="M0 0.253906V-0.746094H-1V0.253906H0ZM1 12.2539V0.253906H-1V12.2539H1ZM0 1.25391H12V-0.746094H0V1.25391Z" fill="white" mask="url(#path-1-inside-1_151_247)"/>
<mask id="path-3-inside-2_151_247" fill="white">
<path d="M32 12.2539H44V0.253906H32V12.2539Z"/>
</mask>
<path d="M44 0.253906V-0.746094H45V0.253906H44ZM43 12.2539V0.253906H45V12.2539H43ZM44 1.25391H32V-0.746094H44V1.25391Z" fill="white" mask="url(#path-3-inside-2_151_247)"/>
<mask id="path-5-inside-3_151_247" fill="white">
<path d="M32 32.2539H44V44.2539H32V32.2539Z"/>
</mask>
<path d="M44 44.2539V45.2539H45V44.2539H44ZM43 32.2539V44.2539H45V32.2539H43ZM44 43.2539H32V45.2539H44V43.2539Z" fill="white" mask="url(#path-5-inside-3_151_247)"/>
<mask id="path-7-inside-4_151_247" fill="white">
<path d="M12 32.2539H0V44.2539H12V32.2539Z"/>
</mask>
<path d="M0 44.2539V45.2539H-1V44.2539H0ZM1 32.2539V44.2539H-1V32.2539H1ZM0 43.2539H12V45.2539H0V43.2539Z" fill="white" mask="url(#path-7-inside-4_151_247)"/>
<g clip-path="url(#clip0_151_247)">
<path d="M33.8277 14.0671C33.9278 13.9694 33.9966 13.8442 34.0252 13.7073C34.0537 13.5704 34.0409 13.4282 33.9882 13.2986C33.9355 13.1691 33.8454 13.0582 33.7294 12.9802C33.6134 12.9021 33.4768 12.8604 33.3369 12.8604H26.3085C25.9201 12.8604 25.6053 13.1752 25.6053 13.5635V16.9454L22.9741 23.7668L18.1483 13.2698C18.0921 13.1476 18.002 13.0441 17.8888 12.9715C17.7756 12.899 17.6439 12.8604 17.5094 12.8604H10.9268C10.7937 12.8604 10.6634 12.8982 10.5509 12.9693C10.4385 13.0404 10.3485 13.142 10.2915 13.2622C10.2345 13.3824 10.2127 13.5163 10.2288 13.6484C10.2448 13.7805 10.298 13.9053 10.3822 14.0083L13.3579 17.6515V26.6514L10.1887 30.7165C10.1077 30.8204 10.0575 30.9449 10.0438 31.0759C10.0302 31.2068 10.0536 31.339 10.1114 31.4574C10.1692 31.5757 10.259 31.6754 10.3707 31.7452C10.4824 31.815 10.6115 31.8519 10.7432 31.8519H17.379C17.5106 31.8519 17.6397 31.8149 17.7514 31.7452C17.8631 31.6754 17.9529 31.5757 18.0107 31.4574C18.0685 31.339 18.0919 31.2068 18.0783 31.0759C18.0646 30.9449 18.0144 30.8204 17.9335 30.7165L14.7642 26.6514V20.4007L20.2504 31.4612C20.311 31.5835 20.4059 31.6854 20.5235 31.7547C20.6412 31.8239 20.7764 31.8574 20.9127 31.8511C21.0491 31.8449 21.1806 31.799 21.2913 31.7192C21.4021 31.6394 21.4872 31.5291 21.5363 31.4018L25.6053 20.853V28.2904L23.7139 30.7164C23.6329 30.8203 23.5828 30.9448 23.5691 31.0758C23.5554 31.2068 23.5788 31.339 23.6366 31.4574C23.6944 31.5757 23.7843 31.6754 23.896 31.7452C24.0077 31.8149 24.1368 31.8519 24.2685 31.8519H33.0475C33.1792 31.8519 33.3082 31.8149 33.4199 31.7451C33.5316 31.6754 33.6215 31.5756 33.6793 31.4573C33.7371 31.339 33.7605 31.2068 33.7468 31.0758C33.7331 30.9448 33.683 30.8203 33.602 30.7164L31.7106 28.2904V16.1304L33.8277 14.0671ZM12.1829 30.4456L14.061 28.0366L15.9392 30.4456H12.1829ZM20.7997 29.404L14.691 17.0884C14.6896 17.0857 14.6879 17.0832 14.6865 17.0806C14.6782 17.0646 14.6693 17.0489 14.6599 17.0336C14.6561 17.0274 14.6527 17.0212 14.6487 17.0152C14.6371 16.9975 14.6246 16.9805 14.6115 16.9639C14.6094 16.9614 14.6078 16.9585 14.6057 16.956L14.6037 16.9536L14.6036 16.9535L12.409 14.2666H17.0588L22.268 25.5975L20.7997 29.404ZM30.4529 28.9644L31.6077 30.4457H25.7082L26.863 28.9644C26.9593 28.8409 27.0116 28.6888 27.0116 28.5321V14.2666H31.6081L30.5167 15.3303C30.4495 15.3958 30.396 15.4742 30.3596 15.5606C30.3231 15.6471 30.3043 15.74 30.3043 15.8339V28.5321C30.3043 28.6888 30.3566 28.8409 30.4529 28.9644Z" fill="white"/>
</g>
<defs>
<clipPath id="clip0_151_247">
<rect width="24" height="24" fill="white" transform="translate(10.04 10.3564)"/>
</clipPath>
</defs>
</svg>
