<svg  viewBox="0 0 1839 232" fill="none" xmlns="http://www.w3.org/2000/svg">
<g clip-path="url(#clip0_151_9935)">
<path d="M26.9107 0C21.595 0 17.9404 3.64573 17.9404 8.94857V17.8972H161.132V0H26.9107ZM8.97023 17.8972C3.65454 17.8972 0 21.5428 0 26.8457V98.1029C0 103.406 3.65454 107.051 8.97023 107.051H17.9404V17.8972H8.97023ZM143.192 107.051H17.9404V124.949H143.192V107.051ZM8.97023 124.949C3.65454 124.949 0 128.594 0 133.897V205.155C0 210.457 3.65454 214.103 8.97023 214.103H17.9404V124.949H8.97023ZM17.9404 223.052C17.9404 228.355 21.595 232 26.9107 232H161.132V214.103H17.9404V223.052Z" fill="url(#paint0_linear_151_9935)"/>
<path d="M364.963 0.351624H349.439L268.586 214.578L188.058 0.351624H171.888L259.855 232H277.319L364.963 0.351624Z" fill="url(#paint1_linear_151_9935)"/>
<path d="M396.766 0C391.45 0 387.796 3.64573 387.796 8.94857V17.8972H530.987V0H396.766ZM378.826 17.8972C373.509 17.8972 369.855 21.5428 369.855 26.8457V98.1029C369.855 103.406 373.509 107.051 378.826 107.051H387.796V17.8972H378.826ZM513.046 107.051H387.796V124.949H513.046V107.051ZM378.826 124.949C373.509 124.949 369.855 128.594 369.855 133.897V205.155C369.855 210.457 373.509 214.103 378.826 214.103H387.796V124.949H378.826ZM387.796 223.052C387.796 228.355 391.45 232 396.766 232H530.987V214.103H387.796V223.052Z" fill="url(#paint2_linear_151_9935)"/>
<path d="M559.737 232V136.824H620.214L686.189 232H704.947L637.354 135.533C675.194 131.017 699.126 104.884 699.126 68.7491C699.126 25.1941 669.696 0.351624 623.772 0.351624H543.889V232H559.737ZM559.737 13.5794H621.831C659.346 13.5794 683.278 33.2598 683.278 68.7491C683.278 104.238 659.346 123.596 621.831 123.596H559.737V13.5794Z" fill="url(#paint3_linear_151_9935)"/>
<path d="M697.454 8.94857C697.454 14.2515 701.108 17.8972 706.425 17.8972H715.394V0H697.454V8.94857ZM885.164 17.8972C890.48 17.8972 894.135 14.2515 894.135 8.94857V0H876.527V17.8972H885.164ZM733.335 26.8457C733.335 21.5428 729.681 17.8972 724.364 17.8972H715.394V26.8457C715.394 32.1485 719.049 35.7943 724.364 35.7943H733.335V26.8457ZM867.556 17.8972C862.24 17.8972 858.586 21.5428 858.586 26.8457V35.7943H867.556C872.871 35.7943 876.527 32.1485 876.527 26.8457V17.8972H867.556ZM751.276 44.7429C751.276 39.44 747.62 35.7943 742.305 35.7943H733.335V62.3085C733.335 67.6115 736.989 71.2572 742.305 71.2572H751.276V44.7429ZM849.615 35.7943C844.3 35.7943 840.645 39.44 840.645 44.7429V71.2572H849.615C854.931 71.2572 858.586 67.6115 858.586 62.3085V35.7943H849.615ZM769.215 80.2057C769.215 74.9028 765.561 71.2572 760.245 71.2572H751.276V80.2057C751.276 85.5085 754.93 89.1543 760.245 89.1543H769.215V80.2057ZM831.674 71.2572C826.359 71.2572 822.705 74.9028 822.705 80.2057V89.1543H831.674C836.991 89.1543 840.645 85.5085 840.645 80.2057V71.2572H831.674ZM786.823 98.1029C786.823 92.8 783.169 89.1543 777.854 89.1543H769.215V116C769.215 121.303 772.87 124.949 778.186 124.949H786.823V98.1029ZM804.764 124.949H813.735C819.05 124.949 822.705 121.303 822.705 116V89.1543H813.735C808.418 89.1543 804.764 92.8 804.764 98.1029V124.949ZM786.823 232H804.764V124.949H786.823V232Z" fill="url(#paint4_linear_151_9935)"/>
<path d="M1098.66 232H1115.8L1177.58 0.351624H1162.05L1107.07 210.706L1049.18 0.351624H1031.72L973.504 210.384L918.848 0.351624H903.324L965.419 232H981.913L1040.45 20.9999L1098.66 232Z" fill="url(#paint5_linear_151_9935)"/>
<path d="M1186.92 98.1029C1186.92 103.406 1190.57 107.051 1195.89 107.051H1204.53V0H1186.92V98.1029ZM1338.75 107.051C1344.06 107.051 1347.72 103.406 1347.72 98.1029V0H1329.78V107.051H1338.75ZM1329.78 107.051H1204.53V124.949H1329.78V107.051ZM1195.89 124.949C1190.57 124.949 1186.92 128.594 1186.92 133.897V232H1204.53V124.949H1195.89ZM1347.72 133.897C1347.72 128.594 1344.06 124.949 1338.75 124.949H1329.78V232H1347.72V133.897Z" fill="url(#paint6_linear_151_9935)"/>
<path d="M1497.52 218.449H1379.8V119.079H1485.55V105.529H1379.8V13.9021H1495.26V0.351624H1363.95V232H1497.52V218.449Z" fill="url(#paint7_linear_151_9935)"/>
<path d="M1537.46 0C1532.16 0 1528.5 3.64573 1528.5 8.94857V17.8972H1653.42V8.94857C1653.42 3.64573 1649.75 0 1644.45 0H1537.46ZM1519.53 17.8972C1514.21 17.8972 1510.56 21.5428 1510.56 26.8457V116C1510.56 121.303 1514.21 124.949 1519.53 124.949H1528.5V17.8972H1519.53ZM1671.35 26.8457C1671.35 21.5428 1667.7 17.8972 1662.38 17.8972H1653.42V26.8457C1653.42 32.1485 1657.06 35.7943 1662.38 35.7943H1671.35V26.8457ZM1689.3 44.7429C1689.3 39.44 1685.64 35.7943 1680.32 35.7943H1671.35V107.051H1680.32C1685.64 107.051 1689.3 103.406 1689.3 98.1029V44.7429ZM1662.38 107.051C1657.06 107.051 1653.42 110.697 1653.42 116V124.949H1662.38C1667.7 124.949 1671.35 121.303 1671.35 116V107.051H1662.38ZM1653.42 124.949H1528.5V142.845H1653.42V124.949ZM1519.53 142.845C1514.21 142.845 1510.56 146.492 1510.56 151.795V232H1528.5V142.845H1519.53ZM1671.35 151.795C1671.35 146.492 1667.7 142.845 1662.38 142.845H1653.42V151.795C1653.42 157.097 1657.06 160.743 1662.38 160.743H1671.35V151.795ZM1689.3 169.692C1689.3 164.388 1685.64 160.743 1680.32 160.743H1671.35V232H1689.3V169.692Z" fill="url(#paint8_linear_151_9935)"/>
<path d="M1839 218.449H1721.28V119.079H1827.04V105.529H1721.28V13.9021H1836.74V0.351624H1705.43V232H1839V218.449Z" fill="url(#paint9_linear_151_9935)"/>
</g>
<defs>
<linearGradient id="paint0_linear_151_9935" x1="80.5661" y1="-0.590331" x2="80.5661" y2="232.59" gradientUnits="userSpaceOnUse">
<stop stop-color="white"/>
<stop offset="1" stop-color="#E7A3FF" stop-opacity="0"/>
</linearGradient>
<linearGradient id="paint1_linear_151_9935" x1="268.425" y1="-0.237812" x2="268.425" y2="232.589" gradientUnits="userSpaceOnUse">
<stop stop-color="white"/>
<stop offset="1" stop-color="#E7A3FF" stop-opacity="0"/>
</linearGradient>
<linearGradient id="paint2_linear_151_9935" x1="450.422" y1="-0.590331" x2="450.422" y2="232.59" gradientUnits="userSpaceOnUse">
<stop stop-color="white"/>
<stop offset="1" stop-color="#E7A3FF" stop-opacity="0"/>
</linearGradient>
<linearGradient id="paint3_linear_151_9935" x1="624.418" y1="-0.237812" x2="624.418" y2="232.589" gradientUnits="userSpaceOnUse">
<stop stop-color="white"/>
<stop offset="1" stop-color="#E7A3FF" stop-opacity="0"/>
</linearGradient>
<linearGradient id="paint4_linear_151_9935" x1="795.795" y1="-0.590331" x2="795.795" y2="232.59" gradientUnits="userSpaceOnUse">
<stop stop-color="white"/>
<stop offset="1" stop-color="#E7A3FF" stop-opacity="0"/>
</linearGradient>
<linearGradient id="paint5_linear_151_9935" x1="1040.45" y1="-0.237812" x2="1040.45" y2="232.589" gradientUnits="userSpaceOnUse">
<stop stop-color="white"/>
<stop offset="1" stop-color="#E7A3FF" stop-opacity="0"/>
</linearGradient>
<linearGradient id="paint6_linear_151_9935" x1="1267.32" y1="-0.590331" x2="1267.32" y2="232.59" gradientUnits="userSpaceOnUse">
<stop stop-color="white"/>
<stop offset="1" stop-color="#E7A3FF" stop-opacity="0"/>
</linearGradient>
<linearGradient id="paint7_linear_151_9935" x1="1430.73" y1="-0.237812" x2="1430.73" y2="232.589" gradientUnits="userSpaceOnUse">
<stop stop-color="white"/>
<stop offset="1" stop-color="#E7A3FF" stop-opacity="0"/>
</linearGradient>
<linearGradient id="paint8_linear_151_9935" x1="1599.93" y1="-0.590331" x2="1599.93" y2="232.59" gradientUnits="userSpaceOnUse">
<stop stop-color="white"/>
<stop offset="1" stop-color="#E7A3FF" stop-opacity="0"/>
</linearGradient>
<linearGradient id="paint9_linear_151_9935" x1="1772.22" y1="-0.237812" x2="1772.22" y2="232.589" gradientUnits="userSpaceOnUse">
<stop stop-color="white"/>
<stop offset="1" stop-color="#E7A3FF" stop-opacity="0"/>
</linearGradient>
<clipPath id="clip0_151_9935">
<rect width="1839" height="232" fill="white"/>
</clipPath>
</defs>
</svg>
