<svg viewBox="0 0 426 260" fill="none" xmlns="http://www.w3.org/2000/svg">
<mask id="path-1-inside-1_910_3633" fill="white">
<path d="M0 0H101V101H0V0Z"/>
</mask>
<path d="M0 0V-1H-1V0H0ZM0 1H101V-1H0V1ZM1 101V0H-1V101H1Z" fill="white" mask="url(#path-1-inside-1_910_3633)"/>
<mask id="path-3-inside-2_910_3633" fill="white">
<path d="M325 0H426V101H325V0Z"/>
</mask>
<path d="M426 0H427V-1H426V0ZM325 1H426V-1H325V1ZM425 0V101H427V0H425Z" fill="white" mask="url(#path-3-inside-2_910_3633)"/>
<mask id="path-5-inside-3_910_3633" fill="white">
<path d="M0 157.811H101V258.811H0V157.811Z"/>
</mask>
<path d="M0 258.811H-1V259.811H0V258.811ZM101 257.811H0V259.811H101V257.811ZM1 258.811V157.811H-1V258.811H1Z" fill="white" mask="url(#path-5-inside-3_910_3633)"/>
<mask id="path-7-inside-4_910_3633" fill="white">
<path d="M325 157.811H426V258.811H325V157.811Z"/>
</mask>
<path d="M426 258.811V259.811H427V258.811H426ZM425 157.811V258.811H427V157.811H425ZM426 257.811H325V259.811H426V257.811Z" fill="white" mask="url(#path-7-inside-4_910_3633)"/>
</svg>
