<svg viewBox="0 0 146 89" fill="none" xmlns="http://www.w3.org/2000/svg">
<path d="M8.9375 48.2859C8.9375 41.1984 9.85625 34.6828 11.6938 28.7391C13.55 22.7766 16.1937 17.2922 19.625 12.2859H25.475C24.125 14.1422 22.8594 16.4297 21.6781 19.1484C20.5156 21.8484 19.4937 24.8203 18.6125 28.0641C17.7312 31.2891 17.0375 34.6266 16.5313 38.0766C16.0438 41.5266 15.8 44.9297 15.8 48.2859C15.8 52.7484 16.2312 57.2766 17.0937 61.8703C17.9562 66.4641 19.1188 70.7297 20.5813 74.6672C22.0437 78.6047 23.675 81.8109 25.475 84.2859H19.625C16.1937 79.2797 13.55 73.8047 11.6938 67.8609C9.85625 61.8984 8.9375 55.3734 8.9375 48.2859Z" fill="white"/>
<path d="M136.84 48.2859C136.84 55.3734 135.912 61.8984 134.055 67.8609C132.218 73.8047 129.584 79.2797 126.152 84.2859H120.302C121.652 82.4297 122.909 80.1422 124.071 77.4234C125.252 74.7234 126.284 71.7609 127.165 68.5359C128.046 65.2922 128.73 61.9453 129.218 58.4953C129.724 55.0266 129.977 51.6234 129.977 48.2859C129.977 43.8234 129.546 39.2953 128.684 34.7016C127.821 30.1078 126.659 25.8422 125.196 21.9047C123.734 17.9672 122.102 14.7609 120.302 12.2859H126.152C129.584 17.2922 132.218 22.7766 134.055 28.7391C135.912 34.6828 136.84 41.1984 136.84 48.2859Z" fill="white"/>
<g clip-path="url(#clip0_151_288)">
<g clip-path="url(#clip1_151_288)">
<path d="M92.75 54.8114L91.4877 21.6276L58.3054 20.3594L58.0337 26.9483L81.0274 27.67L45.23 63.4674L49.6553 67.8794L85.5359 32.0909L86.167 55.0846L92.75 54.8114Z" fill="white"/>
</g>
</g>
<defs>
<clipPath id="clip0_151_288">
<rect width="47.52" height="47.52" fill="white" transform="translate(45.23 20.3652)"/>
</clipPath>
<clipPath id="clip1_151_288">
<rect width="47.52" height="47.5259" fill="white" transform="translate(45.23 20.3594)"/>
</clipPath>
</defs>
</svg>
