<svg viewBox="0 0 24 25" fill="none" xmlns="http://www.w3.org/2000/svg">
<path d="M17.4619 7.00774C16.7382 6.27915 15.8775 5.701 14.9294 5.30663C13.9812 4.91226 12.9643 4.70948 11.9374 4.70996C7.61567 4.70996 4.125 8.21041 4.125 12.5322C4.125 16.854 7.61567 20.3544 11.9374 20.3544C15.5846 20.3544 18.6254 17.8611 19.4957 14.4877H17.4619C17.0591 15.6313 16.3114 16.6216 15.3219 17.3222C14.3324 18.0227 13.1498 18.3989 11.9374 18.3989C8.701 18.3989 6.07078 15.7686 6.07078 12.5322C6.07078 9.29574 8.701 6.66552 11.9374 6.66552C13.5606 6.66552 15.0077 7.34018 16.0637 8.40596L12.9152 11.5544H19.7597V4.70996L17.4619 7.00774Z" fill="white" fill-opacity="0.92"/>
</svg>
