<svg viewBox="0 0 32 9" fill="none" xmlns="http://www.w3.org/2000/svg">
<g clip-path="url(#clip0_355_1190)">
<g clip-path="url(#clip1_355_1190)">
<path d="M31.354 5.02456C31.4006 4.97811 31.4375 4.92294 31.4627 4.86219C31.4879 4.80145 31.5009 4.73633 31.5009 4.67056C31.5009 4.60479 31.4879 4.53967 31.4627 4.47893C31.4375 4.41818 31.4006 4.363 31.354 4.31656L28.172 1.13456C28.1255 1.08814 28.0703 1.05133 28.0096 1.02623C27.9489 1.00113 27.8838 0.988235 27.8181 0.988281C27.7524 0.988328 27.6874 1.00131 27.6267 1.0265C27.566 1.05168 27.5109 1.08857 27.4645 1.13506C27.4181 1.18155 27.3813 1.23672 27.3562 1.29744C27.3311 1.35815 27.3182 1.42322 27.3182 1.48891C27.3183 1.55461 27.3313 1.61966 27.3564 1.68033C27.3816 1.74101 27.4185 1.79614 27.465 1.84256L30.293 4.67056L27.465 7.49856C27.4185 7.54498 27.3816 7.60011 27.3564 7.66078C27.3313 7.72146 27.3183 7.78651 27.3182 7.85221C27.3182 7.9179 27.3311 7.98297 27.3562 8.04368C27.3813 8.10439 27.4181 8.15957 27.4645 8.20606C27.5109 8.25255 27.566 8.28944 27.6267 8.31462C27.6874 8.33981 27.7524 8.35279 27.8181 8.35284C27.8838 8.35288 27.9489 8.33999 28.0096 8.31489C28.0703 8.28979 28.1255 8.25298 28.172 8.20656L31.354 5.02456ZM0 5.17056H31V4.17056H0V5.17056Z" fill="#ECE4E1"/>
</g>
</g>
<defs>
<clipPath id="clip0_355_1190">
<rect width="32" height="8" fill="white" transform="translate(0 0.670898)"/>
</clipPath>
<clipPath id="clip1_355_1190">
<rect width="32" height="8" fill="white" transform="translate(0 0.670898)"/>
</clipPath>
</defs>
</svg>
