<svg viewBox="0 0 25 25" fill="none" xmlns="http://www.w3.org/2000/svg">
<path d="M18.2841 4.71094H6.55076C4.38987 4.71094 2.63965 6.46116 2.63965 8.62205V16.4443C2.63965 18.6052 4.38987 20.3554 6.55076 20.3554H18.2841C20.445 20.3554 22.1952 18.6052 22.1952 16.4443V8.62205C22.1952 6.46116 20.445 4.71094 18.2841 4.71094ZM16.4654 14.2638C16.2308 14.4594 15.9081 14.5376 15.605 14.4594L4.74187 11.7998C5.0352 11.086 5.72943 10.5776 6.55076 10.5776H18.2841C18.9392 10.5776 19.5161 10.91 19.8779 11.3989L16.4654 14.2638ZM6.55076 6.66649H18.2841C19.3596 6.66649 20.2396 7.54649 20.2396 8.62205V9.15983C19.6628 8.82738 18.9979 8.62205 18.2841 8.62205H6.55076C5.83698 8.62205 5.17209 8.82738 4.5952 9.15983V8.62205C4.5952 7.54649 5.4752 6.66649 6.55076 6.66649Z" fill="#C3C2D4"/>
</svg>
