<svg  viewBox="0 0 2986 840" fill="none" xmlns="http://www.w3.org/2000/svg">
<path fill-rule="evenodd" clip-rule="evenodd" d="M215.429 0H246.286V322.857C246.286 327.429 244.762 331.238 241.714 334.286C239.048 336.952 235.429 338.286 230.857 338.286H215.429V0ZM184.571 369.143V353.714C184.571 349.143 185.905 345.524 188.571 342.857C191.619 339.809 195.429 338.286 200 338.286H215.429V353.714C215.429 358.286 213.905 362.095 210.857 365.143C208.19 367.81 204.571 369.143 200 369.143H184.571ZM61.7143 369.143H184.571V384.571C184.571 389.143 183.048 392.952 180 396C177.333 398.667 173.714 400 169.143 400H77.1428C72.5714 400 68.7619 398.667 65.7143 396C63.0476 392.952 61.7143 389.143 61.7143 384.571V369.143ZM30.8571 338.286H46.2857C50.8571 338.286 54.4762 339.809 57.1428 342.857C60.1905 345.524 61.7143 349.143 61.7143 353.714V369.143H46.2857C41.7143 369.143 37.9048 367.81 34.8571 365.143C32.1905 362.095 30.8571 358.286 30.8571 353.714V338.286ZM30.8571 338.286H15.4286C10.8571 338.286 7.04762 336.952 4 334.286C1.33333 331.238 0 327.429 0 322.857V277.143H30.8571V338.286ZM277.344 0H308.201V338.286H292.772C288.201 338.286 284.391 336.952 281.344 334.286C278.677 331.238 277.344 327.429 277.344 322.857V0ZM492.772 369.143V384.571C492.772 389.143 491.248 392.952 488.201 396C485.534 398.667 481.915 400 477.344 400H353.915C349.344 400 345.534 398.667 342.486 396C339.82 392.952 338.487 389.143 338.487 384.571V369.143H323.629C319.058 369.143 315.248 367.81 312.201 365.143C309.534 362.095 308.201 358.286 308.201 353.714V338.286H323.629C328.201 338.286 331.82 339.809 334.487 342.857C337.534 345.524 339.058 349.143 339.058 353.714V369.143H492.772ZM523.058 338.286V353.714C523.058 358.286 521.534 362.095 518.487 365.143C515.82 367.81 512.201 369.143 507.629 369.143H492.772V353.714C492.772 349.143 494.106 345.524 496.772 342.857C499.82 339.809 503.629 338.286 508.201 338.286H523.058ZM523.058 338.286V0H553.915V322.857C553.915 327.429 552.391 331.238 549.344 334.286C546.677 336.952 543.058 338.286 538.487 338.286H523.058ZM615.678 15.4286V30.8572H600.25C595.678 30.8572 591.869 32.381 588.821 35.4286C586.155 38.0952 584.821 41.7143 584.821 46.2857V200C584.821 204.571 586.155 208.381 588.821 211.429C591.869 214.095 595.678 215.429 600.25 215.429H615.678V246.286H600.25C595.678 246.286 591.869 247.809 588.821 250.857C586.155 253.524 584.821 257.143 584.821 261.714V400H615.678V246.286H784.821C789.393 246.286 793.012 244.952 795.678 242.286C798.726 239.238 800.25 235.429 800.25 230.857V215.429H815.678C820.25 215.429 823.869 214.095 826.536 211.429C829.583 208.381 831.107 204.571 831.107 200V184.571H846.536C851.107 184.571 854.726 183.238 857.393 180.571C860.44 177.524 861.964 173.714 861.964 169.143V77.1429C861.964 72.5714 860.44 68.9524 857.393 66.2857C854.726 63.2381 851.107 61.7143 846.536 61.7143H831.107V46.2857C831.107 41.7143 829.583 38.0952 826.536 35.4286C823.869 32.381 820.25 30.8572 815.678 30.8572H800.25V15.4286C800.25 10.8571 798.726 7.23809 795.678 4.57144C793.012 1.52382 789.393 0 784.821 0H631.107C626.536 0 622.726 1.52382 619.678 4.57144C617.012 7.23809 615.678 10.8571 615.678 15.4286ZM800.25 30.8572V46.2857C800.25 50.8571 801.583 54.6667 804.25 57.7143C807.297 60.381 811.107 61.7143 815.678 61.7143H831.107V184.571H815.678C811.107 184.571 807.297 186.095 804.25 189.143C801.583 191.81 800.25 195.429 800.25 200V215.429H615.678V30.8572H800.25ZM892.857 0H923.714V400H892.857V0ZM1062.23 0H954.799V30.8572H1077.66V400H1108.51V30.8572H1231.37V0H1123.94C1119.37 0 1115.56 1.52382 1112.51 4.57144C1109.85 7.23809 1108.51 10.8571 1108.51 15.4286V30.8572H1077.66V15.4286C1077.66 10.8571 1076.13 7.23809 1073.08 4.57144C1070.42 1.52382 1066.8 0 1062.23 0ZM1293.13 30.8572V15.4286C1293.13 10.8571 1294.47 7.23809 1297.13 4.57144C1300.18 1.52382 1303.99 0 1308.56 0H1539.42V30.8572H1293.13ZM1293.13 184.571H1277.71C1273.13 184.571 1269.32 183.238 1266.28 180.571C1263.61 177.524 1262.28 173.714 1262.28 169.143V46.2857C1262.28 41.7143 1263.61 38.0952 1266.28 35.4286C1269.32 32.381 1273.13 30.8572 1277.71 30.8572H1293.13V184.571ZM1293.13 215.429V184.571H1508.56V215.429H1293.13ZM1293.13 369.143H1277.71C1273.13 369.143 1269.32 367.81 1266.28 365.143C1263.61 362.095 1262.28 358.286 1262.28 353.714V230.857C1262.28 226.286 1263.61 222.667 1266.28 220C1269.32 216.952 1273.13 215.429 1277.71 215.429H1293.13V369.143ZM1293.13 369.143H1539.42V400H1308.56C1303.99 400 1300.18 398.667 1297.13 396C1294.47 392.952 1293.13 389.143 1293.13 384.571V369.143ZM1601.17 15.4286V30.8572H1585.74C1581.17 30.8572 1577.36 32.381 1574.31 35.4286C1571.65 38.0952 1570.31 41.7143 1570.31 46.2857V200C1570.31 204.571 1571.65 208.381 1574.31 211.429C1577.36 214.095 1581.17 215.429 1585.74 215.429H1601.17V246.286H1585.74C1581.17 246.286 1577.36 247.809 1574.31 250.857C1571.65 253.524 1570.31 257.143 1570.31 261.714V400H1601.17V246.286H1816.03V261.714C1816.03 266.286 1817.36 270.095 1820.03 273.143C1823.07 275.81 1826.88 277.143 1831.45 277.143H1846.88V400H1877.74V292.571C1877.74 288 1876.22 284.381 1873.17 281.714C1870.5 278.667 1866.88 277.143 1862.31 277.143H1846.88V261.714C1846.88 257.143 1845.36 253.524 1842.31 250.857C1839.65 247.809 1836.03 246.286 1831.45 246.286H1816.03V215.429H1831.45C1836.03 215.429 1839.65 214.095 1842.31 211.429C1845.36 208.381 1846.88 204.571 1846.88 200V184.571H1862.31C1866.88 184.571 1870.5 183.238 1873.17 180.571C1876.22 177.524 1877.74 173.714 1877.74 169.143V77.1429C1877.74 72.5714 1876.22 68.9524 1873.17 66.2857C1870.5 63.2381 1866.88 61.7143 1862.31 61.7143H1846.88V46.2857C1846.88 41.7143 1845.36 38.0952 1842.31 35.4286C1839.65 32.381 1836.03 30.8572 1831.45 30.8572H1816.03V15.4286C1816.03 10.8571 1814.5 7.23809 1811.45 4.57144C1808.79 1.52382 1805.17 0 1800.6 0H1616.6C1612.03 0 1608.22 1.52382 1605.17 4.57144C1602.5 7.23809 1601.17 10.8571 1601.17 15.4286ZM1816.03 30.8572V46.2857C1816.03 50.8571 1817.36 54.6667 1820.03 57.7143C1823.07 60.381 1826.88 61.7143 1831.45 61.7143H1846.88V184.571H1831.45C1826.88 184.571 1823.07 186.095 1820.03 189.143C1817.36 191.81 1816.03 195.429 1816.03 200V215.429H1601.17V30.8572H1816.03ZM107.447 440H0V470.857H122.879V840H153.742V470.857H276.621V440H169.173C164.6 440 160.79 441.524 157.742 444.571C155.075 447.238 153.742 450.857 153.742 455.429V470.857H122.879V455.429C122.879 450.857 121.355 447.238 118.307 444.571C115.639 441.524 112.02 440 107.447 440ZM338.395 455.429V470.857H322.963C318.391 470.857 314.581 472.381 311.533 475.429C308.866 478.095 307.532 481.714 307.532 486.286V640C307.532 644.571 308.866 648.381 311.533 651.429C314.581 654.095 318.391 655.429 322.963 655.429H338.395V686.286H322.963C318.391 686.286 314.581 687.81 311.533 690.857C308.866 693.524 307.532 697.143 307.532 701.714V840H338.395V686.286H553.29V701.714C553.29 706.286 554.624 710.095 557.291 713.143C560.339 715.81 564.149 717.143 568.721 717.143H584.153V840H615.015V732.571C615.015 728 613.491 724.381 610.443 721.714C607.776 718.667 604.156 717.143 599.584 717.143H584.153V701.714C584.153 697.143 582.629 693.524 579.58 690.857C576.913 687.81 573.294 686.286 568.721 686.286H553.29V655.429H568.721C573.294 655.429 576.913 654.095 579.58 651.429C582.629 648.381 584.153 644.571 584.153 640V624.571H599.584C604.156 624.571 607.776 623.238 610.443 620.571C613.491 617.524 615.015 613.714 615.015 609.143V517.143C615.015 512.571 613.491 508.952 610.443 506.286C607.776 503.238 604.156 501.714 599.584 501.714H584.153V486.286C584.153 481.714 582.629 478.095 579.58 475.429C576.913 472.381 573.294 470.857 568.721 470.857H553.29V455.429C553.29 450.857 551.766 447.238 548.718 444.571C546.051 441.524 542.431 440 537.859 440H353.826C349.254 440 345.444 441.524 342.395 444.571C339.728 447.238 338.395 450.857 338.395 455.429ZM553.29 470.857V486.286C553.29 490.857 554.624 494.667 557.291 497.714C560.339 500.381 564.149 501.714 568.721 501.714H584.153V624.571H568.721C564.149 624.571 560.339 626.095 557.291 629.143C554.624 631.81 553.29 635.429 553.29 640V655.429H338.395V470.857H553.29ZM799.504 455.429C799.504 450.857 800.837 447.238 803.504 444.571C806.552 441.524 810.362 440 814.935 440C819.888 440 823.698 441.524 826.365 444.571C829.032 447.238 830.366 450.857 830.366 455.429V470.857H799.504V455.429ZM768.641 532.571V486.286C768.641 481.714 769.974 478.095 772.641 475.429C775.69 472.381 779.5 470.857 784.072 470.857H799.504V517.143C799.504 521.714 797.979 525.524 794.931 528.571C792.264 531.238 788.644 532.571 784.072 532.571H768.641ZM737.778 624.571V548C737.778 543.429 739.112 539.81 741.779 537.143C744.827 534.095 748.637 532.571 753.21 532.571H768.641V609.143C768.641 613.714 767.117 617.524 764.068 620.571C761.401 623.238 757.782 624.571 753.21 624.571H737.778ZM737.778 686.286V624.571H722.347C717.775 624.571 713.964 626.095 710.916 629.143C708.249 631.81 706.915 635.429 706.915 640V686.286H691.484C686.912 686.286 683.102 687.81 680.054 690.857C677.387 693.524 676.053 697.143 676.053 701.714V778.286H661.193C656.621 778.286 652.811 779.81 649.763 782.857C647.095 785.524 645.762 789.143 645.762 793.714V840H676.053V778.286H691.484C696.057 778.286 699.676 776.952 702.343 774.286C705.392 771.238 706.915 767.429 706.915 762.857V686.286H737.778ZM891.52 686.286V701.714C891.52 706.286 889.996 710.095 886.948 713.143C884.281 715.81 880.661 717.143 876.089 717.143H753.21C748.637 717.143 744.827 715.81 741.779 713.143C739.112 710.095 737.778 706.286 737.778 701.714V686.286H891.52ZM891.52 624.571V686.286H922.382V762.857C922.382 767.429 923.716 771.238 926.383 774.286C929.431 776.952 933.242 778.286 937.814 778.286H953.245V840H984.108V793.714C984.108 789.143 982.584 785.524 979.535 782.857C976.868 779.81 973.248 778.286 968.676 778.286H953.245V701.714C953.245 697.143 951.721 693.524 948.673 690.857C946.006 687.81 942.386 686.286 937.814 686.286H922.382V640C922.382 635.429 920.858 631.81 917.81 629.143C915.143 626.095 911.523 624.571 906.951 624.571H891.52ZM860.657 532.571H876.089C880.661 532.571 884.281 534.095 886.948 537.143C889.996 539.81 891.52 543.429 891.52 548V624.571H876.089C871.516 624.571 867.706 623.238 864.658 620.571C861.991 617.524 860.657 613.714 860.657 609.143V532.571ZM860.657 532.571V486.286C860.657 481.714 859.133 478.095 856.085 475.429C853.418 472.381 849.798 470.857 845.226 470.857H830.366V517.143C830.366 521.714 831.7 525.524 834.367 528.571C837.415 531.238 841.225 532.571 845.797 532.571H860.657ZM1045.54 455.429V470.857H1030.68C1026.11 470.857 1022.3 472.381 1019.25 475.429C1016.58 478.095 1015.25 481.714 1015.25 486.286V793.714C1015.25 798.286 1016.58 802.095 1019.25 805.143C1022.3 807.81 1026.11 809.143 1030.68 809.143H1045.54V824.571C1045.54 829.143 1046.87 832.952 1049.54 836C1052.59 838.667 1056.4 840 1060.97 840H1215.28C1219.85 840 1223.47 838.667 1226.14 836C1229.19 832.952 1230.71 829.143 1230.71 824.571V809.143H1245.57C1250.15 809.143 1253.77 807.81 1256.43 805.143C1259.48 802.095 1261.01 798.286 1261.01 793.714V778.286H1276.44C1281.01 778.286 1284.63 776.952 1287.3 774.286C1290.34 771.238 1291.87 767.429 1291.87 762.857V747.429H1307.3C1311.87 747.429 1315.49 746.095 1318.16 743.429C1321.21 740.381 1322.73 736.571 1322.73 732V548C1322.73 543.429 1321.21 539.81 1318.16 537.143C1315.49 534.095 1311.87 532.571 1307.3 532.571H1291.87V517.143C1291.87 512.571 1290.34 508.952 1287.3 506.286C1284.63 503.238 1281.01 501.714 1276.44 501.714H1261.01V486.286C1261.01 481.714 1259.48 478.095 1256.43 475.429C1253.77 472.381 1250.15 470.857 1245.57 470.857H1230.71V455.429C1230.71 450.857 1229.19 447.238 1226.14 444.571C1223.47 441.524 1219.85 440 1215.28 440H1060.97C1056.4 440 1052.59 441.524 1049.54 444.571C1046.87 447.238 1045.54 450.857 1045.54 455.429ZM1230.71 470.857V486.286C1230.71 490.857 1232.05 494.667 1234.71 497.714C1237.76 500.381 1241.57 501.714 1246.15 501.714H1261.01V517.143C1261.01 521.714 1262.34 525.524 1265.01 528.571C1268.05 531.238 1271.86 532.571 1276.44 532.571H1291.87V747.429H1276.44C1271.86 747.429 1268.05 748.952 1265.01 752C1262.34 754.667 1261.01 758.286 1261.01 762.857V778.286H1246.15C1241.57 778.286 1237.76 779.81 1234.71 782.857C1232.05 785.524 1230.71 789.143 1230.71 793.714V809.143H1045.54V470.857H1230.71ZM1353.48 440H1384.34V840H1353.48V440ZM1446.29 440H1415.43V455.429C1415.43 460 1416.76 463.81 1419.43 466.857C1422.48 469.524 1426.29 470.857 1430.86 470.857H1446.29V532.571H1430.86C1426.29 532.571 1422.48 534.095 1419.43 537.143C1416.76 539.81 1415.43 543.429 1415.43 548V840H1446.29V532.571H1476.58V547.429C1476.58 552 1477.92 555.81 1480.58 558.857C1483.63 561.524 1487.44 562.857 1492.01 562.857H1507.45V609.143C1507.45 613.714 1508.78 617.524 1511.45 620.571C1514.49 623.238 1518.31 624.571 1522.88 624.571H1538.31V640C1538.31 644.571 1539.64 648.381 1542.31 651.429C1545.36 654.095 1549.17 655.429 1553.74 655.429H1569.17V670.857C1569.17 675.429 1570.51 679.238 1573.17 682.286C1576.22 684.952 1580.03 686.286 1584.6 686.286H1600.03V732C1600.03 736.571 1601.37 740.381 1604.03 743.429C1607.08 746.095 1610.89 747.429 1615.47 747.429H1630.9V793.714C1630.9 798.286 1632.23 802.095 1634.9 805.143C1637.95 807.81 1641.76 809.143 1646.33 809.143H1661.19V840H1692.05V824.571C1692.05 820 1690.53 816.381 1687.48 813.714C1684.81 810.667 1681.19 809.143 1676.62 809.143H1661.19V747.429H1676.62C1681.19 747.429 1684.81 746.095 1687.48 743.429C1690.53 740.381 1692.05 736.571 1692.05 732V440H1661.19V747.429H1630.9V701.714C1630.9 697.143 1629.37 693.524 1626.32 690.857C1623.66 687.81 1620.04 686.286 1615.47 686.286H1600.03V670.857C1600.03 666.286 1598.51 662.667 1595.46 660C1592.79 656.952 1589.17 655.429 1584.6 655.429H1569.17V640C1569.17 635.429 1567.65 631.81 1564.6 629.143C1561.93 626.095 1558.31 624.571 1553.74 624.571H1538.31V578.286C1538.31 573.714 1536.78 570.095 1533.74 567.429C1531.07 564.381 1527.45 562.857 1522.88 562.857H1507.45V548C1507.45 543.429 1505.92 539.81 1502.87 537.143C1500.21 534.095 1496.59 532.571 1492.01 532.571H1476.58V486.286C1476.58 481.714 1475.06 478.095 1472.01 475.429C1469.34 472.381 1465.72 470.857 1461.15 470.857H1446.29V440ZM1784.69 455.429C1784.69 450.857 1786.02 447.238 1788.69 444.571C1791.74 441.524 1795.55 440 1800.12 440H1953.86C1958.43 440 1962.05 441.524 1964.72 444.571C1967.77 447.238 1969.29 450.857 1969.29 455.429V470.857H1784.69V455.429ZM1753.82 501.714V486.286C1753.82 481.714 1755.16 478.095 1757.83 475.429C1760.87 472.381 1764.68 470.857 1769.26 470.857H1784.69V486.286C1784.69 490.857 1783.16 494.667 1780.11 497.714C1777.45 500.381 1773.83 501.714 1769.26 501.714H1753.82ZM1784.69 809.143H1769.26C1764.68 809.143 1760.87 807.81 1757.83 805.143C1755.16 802.095 1753.82 798.286 1753.82 793.714V778.857H1738.39C1733.82 778.857 1730.01 777.524 1726.96 774.857C1724.3 771.81 1722.96 768 1722.96 763.429V517.143C1722.96 512.571 1724.3 508.952 1726.96 506.286C1730.01 503.238 1733.82 501.714 1738.39 501.714H1753.82V778.286H1769.26C1773.83 778.286 1777.45 779.81 1780.11 782.857C1783.16 785.524 1784.69 789.143 1784.69 793.714V809.143ZM1938.43 809.143V824.571C1938.43 829.143 1936.9 832.952 1933.86 836C1931.19 838.667 1927.57 840 1923 840H1800.12C1795.55 840 1791.74 838.667 1788.69 836C1786.02 832.952 1784.69 829.143 1784.69 824.571V809.143H1938.43ZM1999.58 747.429H1984.15C1979.58 747.429 1975.77 748.952 1972.72 752C1970.05 754.667 1968.72 758.286 1968.72 762.857V778.286H1953.86C1949.29 778.286 1945.48 779.81 1942.43 782.857C1939.76 785.524 1938.43 789.143 1938.43 793.714V809.143H1953.86C1958.43 809.143 1962.05 807.81 1964.72 805.143C1967.77 802.095 1969.29 798.286 1969.29 793.714V778.286H1999.58V840H2030.45V793.714C2030.45 789.143 2028.92 785.524 2025.87 782.857C2023.21 779.81 2019.59 778.286 2015.01 778.286H1999.58V747.429ZM1999.58 686.286H2015.01C2019.59 686.286 2023.21 687.81 2025.87 690.857C2028.92 693.524 2030.45 697.143 2030.45 701.714V732C2030.45 736.571 2028.92 740.381 2025.87 743.429C2023.21 746.095 2019.59 747.429 2015.01 747.429H1999.58V686.286ZM1999.58 686.286H1907.57V655.429H1984.15C1988.72 655.429 1992.34 656.952 1995.01 660C1998.06 662.667 1999.58 666.286 1999.58 670.857V686.286ZM1999.58 501.714H1984.72C1980.15 501.714 1976.34 500.381 1973.29 497.714C1970.62 494.667 1969.29 490.857 1969.29 486.286V470.857H1984.15C1988.72 470.857 1992.34 472.381 1995.01 475.429C1998.06 478.095 1999.58 481.714 1999.58 486.286V501.714ZM1999.58 501.714H2015.01C2019.59 501.714 2023.21 503.238 2025.87 506.286C2028.92 508.952 2030.45 512.571 2030.45 517.143V562.857H1999.58V501.714ZM2092.05 455.429V470.857H2076.62C2072.05 470.857 2068.24 472.381 2065.19 475.429C2062.53 478.095 2061.19 481.714 2061.19 486.286V609.143C2061.19 613.714 2062.53 617.524 2065.19 620.571C2068.24 623.238 2072.05 624.571 2076.62 624.571H2092.05V655.429H2076.62C2072.05 655.429 2068.24 656.952 2065.19 660C2062.53 662.667 2061.19 666.286 2061.19 670.857V793.714C2061.19 798.286 2062.53 802.095 2065.19 805.143C2068.24 807.81 2072.05 809.143 2076.62 809.143H2092.05V824.571C2092.05 829.143 2093.39 832.952 2096.06 836C2099.1 838.667 2102.91 840 2107.49 840H2292.09C2296.66 840 2300.28 838.667 2302.95 836C2306 832.952 2307.52 829.143 2307.52 824.571V809.143H2322.95C2327.52 809.143 2331.14 807.81 2333.81 805.143C2336.86 802.095 2338.38 798.286 2338.38 793.714V778.286H2353.82C2358.39 778.286 2362.01 776.952 2364.67 774.286C2367.72 771.238 2369.25 767.429 2369.25 762.857V701.714C2369.25 697.143 2367.72 693.524 2364.67 690.857C2362.01 687.81 2358.39 686.286 2353.82 686.286H2338.38V670.857C2338.38 666.286 2336.86 662.667 2333.81 660C2331.14 656.952 2327.52 655.429 2322.95 655.429H2276.66V624.571H2292.09C2296.66 624.571 2300.28 623.238 2302.95 620.571C2306 617.524 2307.52 613.714 2307.52 609.143V593.714H2322.95C2327.52 593.714 2331.14 592.381 2333.81 589.714C2336.86 586.667 2338.38 582.857 2338.38 578.286V517.143C2338.38 512.571 2336.86 508.952 2333.81 506.286C2331.14 503.238 2327.52 501.714 2322.95 501.714H2307.52V486.286C2307.52 481.714 2306 478.095 2302.95 475.429C2300.28 472.381 2296.66 470.857 2292.09 470.857H2276.66V455.429C2276.66 450.857 2275.13 447.238 2272.09 444.571C2269.42 441.524 2265.8 440 2261.23 440H2107.49C2102.91 440 2099.1 441.524 2096.06 444.571C2093.39 447.238 2092.05 450.857 2092.05 455.429ZM2276.66 470.857V486.286C2276.66 490.857 2277.99 494.667 2280.66 497.714C2283.71 500.381 2287.52 501.714 2292.09 501.714H2307.52V593.714H2292.09C2287.52 593.714 2283.71 595.238 2280.66 598.286C2277.99 600.952 2276.66 604.571 2276.66 609.143V624.571H2092.05V470.857H2276.66ZM2276.66 655.429V670.857C2276.66 675.429 2277.99 679.238 2280.66 682.286C2283.71 684.952 2287.52 686.286 2292.09 686.286H2338.38V778.286H2322.95C2318.38 778.286 2314.57 779.81 2311.52 782.857C2308.85 785.524 2307.52 789.143 2307.52 793.714V809.143H2092.05V655.429H2276.66ZM2492.57 455.429C2492.57 450.857 2493.9 447.238 2496.57 444.571C2499.62 441.524 2503.43 440 2508 440H2630.88C2635.45 440 2639.07 441.524 2641.74 444.571C2644.78 447.238 2646.31 450.857 2646.31 455.429V470.857H2492.57V455.429ZM2461.71 501.714V486.286C2461.71 481.714 2463.04 478.095 2465.71 475.429C2468.75 472.381 2472.56 470.857 2477.14 470.857H2492.57V486.286C2492.57 490.857 2491.04 494.667 2488 497.714C2485.33 500.381 2481.71 501.714 2477.14 501.714H2461.71ZM2430.84 562.857V517.143C2430.84 512.571 2432.18 508.952 2434.84 506.286C2437.89 503.238 2441.7 501.714 2446.27 501.714H2461.71V547.429C2461.71 552 2460.18 555.81 2457.13 558.857C2454.47 561.524 2450.85 562.857 2446.27 562.857H2430.84ZM2430.84 717.143H2415.41C2410.84 717.143 2407.03 715.81 2403.98 713.143C2401.31 710.095 2399.98 706.286 2399.98 701.714V578.286C2399.98 573.714 2401.31 570.095 2403.98 567.429C2407.03 564.381 2410.84 562.857 2415.41 562.857H2430.84V717.143ZM2461.71 778.286H2446.27C2441.7 778.286 2437.89 776.952 2434.84 774.286C2432.18 771.238 2430.84 767.429 2430.84 762.857V717.143H2446.27C2450.85 717.143 2454.47 718.667 2457.13 721.714C2460.18 724.381 2461.71 728 2461.71 732.571V778.286ZM2492.57 809.143H2477.14C2472.56 809.143 2468.75 807.81 2465.71 805.143C2463.04 802.095 2461.71 798.286 2461.71 793.714V778.286H2477.14C2481.71 778.286 2485.33 779.81 2488 782.857C2491.04 785.524 2492.57 789.143 2492.57 793.714V809.143ZM2646.31 809.143V824.571C2646.31 829.143 2644.78 832.952 2641.74 836C2639.07 838.667 2635.45 840 2630.88 840H2508C2503.43 840 2499.62 838.667 2496.57 836C2493.9 832.952 2492.57 829.143 2492.57 824.571V809.143H2646.31ZM2676.6 778.286V793.714C2676.6 798.286 2675.08 802.095 2672.03 805.143C2669.36 807.81 2665.74 809.143 2661.17 809.143H2646.31V793.714C2646.31 789.143 2647.64 785.524 2650.31 782.857C2653.36 779.81 2657.17 778.286 2661.74 778.286H2676.6ZM2707.46 717.143V762.857C2707.46 767.429 2705.94 771.238 2702.89 774.286C2700.22 776.952 2696.6 778.286 2692.03 778.286H2676.6V732.571C2676.6 728 2677.93 724.381 2680.6 721.714C2683.65 718.667 2687.46 717.143 2692.03 717.143H2707.46ZM2707.46 562.857H2722.89C2727.47 562.857 2731.09 564.381 2733.75 567.429C2736.8 570.095 2738.33 573.714 2738.33 578.286V701.714C2738.33 706.286 2736.8 710.095 2733.75 713.143C2731.09 715.81 2727.47 717.143 2722.89 717.143H2707.46V562.857ZM2676.6 501.714H2692.03C2696.6 501.714 2700.22 503.238 2702.89 506.286C2705.94 508.952 2707.46 512.571 2707.46 517.143V562.857H2692.03C2687.46 562.857 2683.65 561.524 2680.6 558.857C2677.93 555.81 2676.6 552 2676.6 547.429V501.714ZM2676.6 501.714V486.286C2676.6 481.714 2675.08 478.095 2672.03 475.429C2669.36 472.381 2665.74 470.857 2661.17 470.857H2646.31V486.286C2646.31 490.857 2647.64 494.667 2650.31 497.714C2653.36 500.381 2657.17 501.714 2661.74 501.714H2676.6ZM2816.63 440H2709.19V470.857H2832.07V840H2862.93V470.857H2985.81V440H2878.36C2873.79 440 2869.98 441.524 2866.93 444.571C2864.26 447.238 2862.93 450.857 2862.93 455.429V470.857H2832.07V455.429C2832.07 450.857 2830.54 447.238 2827.49 444.571C2824.83 441.524 2821.21 440 2816.63 440Z" fill="url(#paint0_linear_374_205)"/>
<defs>
<linearGradient id="paint0_linear_374_205" x1="1492.91" y1="-2.1374" x2="1492.91" y2="842.137" gradientUnits="userSpaceOnUse">
<stop stop-color="white"/>
<stop offset="1" stop-color="#E7A3FF" stop-opacity="0"/>
</linearGradient>
</defs>
</svg>
