<svg  viewBox="0 0 2969 840" fill="none" xmlns="http://www.w3.org/2000/svg">
<path fill-rule="evenodd" clip-rule="evenodd" d="M30.8331 0H0V15.4286C0 20 1.3323 23.8095 3.99689 26.8571C7.04214 29.5238 10.8487 30.8572 15.4166 30.8572H30.8331V92.5714H15.4166C10.8487 92.5714 7.04214 94.0952 3.99689 97.1429C1.3323 99.8095 0 103.429 0 108V400H30.8331V92.5714H61.6663V138.286C61.6663 142.857 62.9986 146.667 65.6631 149.714C68.7084 152.381 72.5149 153.714 77.0828 153.714H92.4994V200C92.4994 204.571 93.8317 208.381 96.4963 211.429C99.5415 214.095 103.348 215.429 107.916 215.429H123.333V261.714C123.333 266.286 124.665 270.095 127.329 273.143C130.375 275.81 134.181 277.143 138.749 277.143H154.166V322.286C154.166 326.857 155.498 330.667 158.163 333.714C161.208 336.381 165.014 337.714 169.582 337.714C174.531 337.714 178.337 336.381 181.002 333.714C183.666 330.667 184.999 326.857 184.999 322.286V277.143H200.415C204.983 277.143 208.599 275.81 211.264 273.143C214.309 270.095 215.832 266.286 215.832 261.714V215.429H231.248C235.816 215.429 239.433 214.095 242.097 211.429C245.142 208.381 246.665 204.571 246.665 200V153.714H262.082C266.649 153.714 270.266 152.381 272.93 149.714C275.976 146.667 277.498 142.857 277.498 138.286V92.5714H308.331V400H339.164V108C339.164 103.429 337.642 99.8095 334.597 97.1429C331.932 94.0952 328.316 92.5714 323.748 92.5714H308.331V30.8572H323.748C328.316 30.8572 331.932 29.5238 334.597 26.8571C337.642 23.8095 339.164 20 339.164 15.4286V0H308.331V30.8572H292.915C288.347 30.8572 284.54 32.381 281.495 35.4286C278.83 38.0952 277.498 41.7143 277.498 46.2857V92.5714H262.082C257.514 92.5714 253.707 94.0952 250.662 97.1429C247.997 99.8095 246.665 103.429 246.665 108V153.714H231.248C226.681 153.714 222.874 155.238 219.829 158.286C217.164 160.952 215.832 164.571 215.832 169.143V215.429H200.415C195.847 215.429 192.041 216.952 188.996 220C186.331 222.667 184.999 226.286 184.999 230.857V277.143H154.166V230.857C154.166 226.286 152.643 222.667 149.598 220C146.933 216.952 143.317 215.429 138.749 215.429H123.333V169.143C123.333 164.571 121.81 160.952 118.765 158.286C116.1 155.238 112.484 153.714 107.916 153.714H92.4994V108C92.4994 103.429 90.9768 99.8095 87.9315 97.1429C85.2669 94.0952 81.6507 92.5714 77.0828 92.5714H61.6663V46.2857C61.6663 41.7143 60.1436 38.0952 57.0984 35.4286C54.4338 32.381 50.8176 30.8572 46.2497 30.8572H30.8331V0ZM401.08 15.4286V30.8572H385.664C381.096 30.8572 377.289 32.381 374.244 35.4286C371.58 38.0952 370.247 41.7143 370.247 46.2857V169.143C370.247 173.714 371.58 177.524 374.244 180.571C377.289 183.238 381.096 184.571 385.664 184.571H401.08V215.429H385.664C381.096 215.429 377.289 216.952 374.244 220C371.58 222.667 370.247 226.286 370.247 230.857V353.714C370.247 358.286 371.58 362.095 374.244 365.143C377.289 367.81 381.096 369.143 385.664 369.143H401.08V384.571C401.08 389.143 402.413 392.952 405.077 396C408.123 398.667 411.929 400 416.497 400H647.174V369.143H401.08V215.429H616.341V184.571H401.08V30.8572H647.174V0H416.497C411.929 0 408.123 1.52381 405.077 4.57144C402.413 7.23809 401.08 10.8571 401.08 15.4286ZM708.876 30.8572V15.4286C708.876 10.8571 710.209 7.23809 712.873 4.57144C715.919 1.52381 719.725 0 724.293 0H954.97V30.8572H708.876ZM708.876 184.571H693.46C688.892 184.571 685.085 183.238 682.04 180.571C679.376 177.524 678.043 173.714 678.043 169.143V46.2857C678.043 41.7143 679.376 38.0952 682.04 35.4286C685.085 32.381 688.892 30.8572 693.46 30.8572H708.876V184.571ZM708.876 215.429V184.571H924.137V215.429H708.876ZM708.876 369.143H693.46C688.892 369.143 685.085 367.81 682.04 365.143C679.376 362.095 678.043 358.286 678.043 353.714V230.857C678.043 226.286 679.376 222.667 682.04 220C685.085 216.952 688.892 215.429 693.46 215.429H708.876V369.143ZM708.876 369.143H954.97V400H724.293C719.725 400 715.919 398.667 712.873 396C710.209 392.952 708.876 389.143 708.876 384.571V369.143ZM1093.18 0H985.839V30.8572H1108.6V400H1139.43V30.8572H1262.2V0H1154.85C1150.28 0 1146.48 1.52381 1143.43 4.57144C1140.77 7.23809 1139.43 10.8571 1139.43 15.4286V30.8572H1108.6V15.4286C1108.6 10.8571 1107.08 7.23809 1104.03 4.57144C1101.37 1.52381 1097.75 0 1093.18 0ZM1003.67 444.571C1001.01 447.238 999.673 450.857 999.673 455.429V470.857H984.256C979.688 470.857 975.881 472.381 972.836 475.429C970.171 478.095 968.839 481.714 968.839 486.286V532.571H953.993C949.425 532.571 945.619 534.095 942.573 537.143C939.909 539.81 938.576 543.429 938.576 548V732C938.576 736.571 939.909 740.381 942.573 743.429C945.619 746.095 949.425 747.429 953.993 747.429H968.839V793.714C968.839 798.286 970.171 802.095 972.836 805.143C975.881 807.81 979.688 809.143 984.256 809.143H999.673V824.571C999.673 829.143 1001.01 832.952 1003.67 836C1006.72 838.667 1010.52 840 1015.09 840H1168.69C1173.26 840 1176.87 838.667 1179.54 836C1182.58 832.952 1184.11 829.143 1184.11 824.571V809.143H1199.52C1204.09 809.143 1207.71 807.81 1210.37 805.143C1213.42 802.095 1214.94 798.286 1214.94 793.714V747.429H1230.36C1234.92 747.429 1238.54 746.095 1241.21 743.429C1244.25 740.381 1245.77 736.571 1245.77 732V686.286H1214.94V747.429H1199.52C1194.95 747.429 1191.15 748.952 1188.1 752C1185.44 754.667 1184.11 758.286 1184.11 762.857V809.143H999.673V762.857C999.673 758.286 998.15 754.667 995.105 752C992.44 748.952 988.824 747.429 984.256 747.429H968.839V532.571H984.256C988.824 532.571 992.44 531.238 995.105 528.571C998.15 525.524 999.673 521.714 999.673 517.143V470.857H1184.11V517.143C1184.11 521.714 1185.44 525.524 1188.1 528.571C1191.15 531.238 1194.95 532.571 1199.52 532.571H1214.94V593.714H1245.77V548C1245.77 543.429 1244.25 539.81 1241.21 537.143C1238.54 534.095 1234.92 532.571 1230.36 532.571H1214.94V486.286C1214.94 481.714 1213.42 478.095 1210.37 475.429C1207.71 472.381 1204.09 470.857 1199.52 470.857H1184.11V455.429C1184.11 450.857 1182.58 447.238 1179.54 444.571C1176.87 441.524 1173.26 440 1168.69 440H1015.09C1010.52 440 1006.72 441.524 1003.67 444.571ZM1372.99 444.571C1370.32 447.238 1368.99 450.857 1368.99 455.429V470.857H1353.58C1349.01 470.857 1345.2 472.381 1342.16 475.429C1339.49 478.095 1338.16 481.714 1338.16 486.286V501.714H1322.74C1318.17 501.714 1314.37 503.238 1311.32 506.286C1308.66 508.952 1307.32 512.571 1307.32 517.143V562.857H1291.91C1287.34 562.857 1283.53 564.381 1280.49 567.429C1277.82 570.095 1276.49 573.714 1276.49 578.286V701.714C1276.49 706.286 1277.82 710.095 1280.49 713.143C1283.53 715.81 1287.34 717.143 1291.91 717.143H1307.32V762.857C1307.32 767.429 1308.66 771.238 1311.32 774.286C1314.37 776.952 1318.17 778.286 1322.74 778.286H1338.16V793.714C1338.16 798.286 1339.49 802.095 1342.16 805.143C1345.2 807.81 1349.01 809.143 1353.58 809.143H1368.99V824.571C1368.99 829.143 1370.32 832.952 1372.99 836C1376.03 838.667 1379.84 840 1384.41 840H1507.17C1511.74 840 1515.36 838.667 1518.02 836C1521.07 832.952 1522.59 829.143 1522.59 824.571V809.143H1537.44C1542 809.143 1545.62 807.81 1548.29 805.143C1551.33 802.095 1552.85 798.286 1552.85 793.714V778.286H1568.27C1572.84 778.286 1576.45 776.952 1579.12 774.286C1582.16 771.238 1583.69 767.429 1583.69 762.857V717.143H1599.1C1603.67 717.143 1607.29 715.81 1609.95 713.143C1613 710.095 1614.52 706.286 1614.52 701.714V578.286C1614.52 573.714 1613 570.095 1609.95 567.429C1607.29 564.381 1603.67 562.857 1599.1 562.857H1583.69V517.143C1583.69 512.571 1582.16 508.952 1579.12 506.286C1576.45 503.238 1572.84 501.714 1568.27 501.714H1552.85V486.286C1552.85 481.714 1551.33 478.095 1548.29 475.429C1545.62 472.381 1542 470.857 1537.44 470.857H1522.59V455.429C1522.59 450.857 1521.07 447.238 1518.02 444.571C1515.36 441.524 1511.74 440 1507.17 440H1384.41C1379.84 440 1376.03 441.524 1372.99 444.571ZM1522.59 470.857V486.286C1522.59 490.857 1523.92 494.667 1526.59 497.714C1529.63 500.381 1533.44 501.714 1538.01 501.714H1552.85V547.429C1552.85 552 1554.19 555.81 1556.85 558.857C1559.9 561.524 1563.7 562.857 1568.27 562.857H1583.69V717.143H1568.27C1563.7 717.143 1559.9 718.667 1556.85 721.714C1554.19 724.381 1552.85 728 1552.85 732.571V778.286H1538.01C1533.44 778.286 1529.63 779.81 1526.59 782.857C1523.92 785.524 1522.59 789.143 1522.59 793.714V809.143H1368.99V793.714C1368.99 789.143 1367.47 785.524 1364.42 782.857C1361.76 779.81 1358.14 778.286 1353.58 778.286H1338.16V732.571C1338.16 728 1336.64 724.381 1333.59 721.714C1330.93 718.667 1327.31 717.143 1322.74 717.143H1307.32V562.857H1322.74C1327.31 562.857 1330.93 561.524 1333.59 558.857C1336.64 555.81 1338.16 552 1338.16 547.429V501.714H1353.58C1358.14 501.714 1361.76 500.381 1364.42 497.714C1367.47 494.667 1368.99 490.857 1368.99 486.286V470.857H1522.59ZM1706.73 455.429C1706.73 450.857 1708.06 447.238 1710.73 444.571C1713.77 441.524 1717.58 440 1722.15 440H1845.48C1850.05 440 1853.67 441.524 1856.33 444.571C1859.38 447.238 1860.9 450.857 1860.9 455.429V470.857H1706.73V455.429ZM1676.47 501.714V486.286C1676.47 481.714 1677.8 478.095 1680.46 475.429C1683.51 472.381 1687.31 470.857 1691.88 470.857H1706.73V486.286C1706.73 490.857 1705.21 494.667 1702.16 497.714C1699.5 500.381 1695.88 501.714 1691.31 501.714H1676.47ZM1676.47 593.714H1661.05C1656.48 593.714 1652.67 592.381 1649.63 589.714C1646.96 586.667 1645.63 582.857 1645.63 578.286V517.143C1645.63 512.571 1646.96 508.952 1649.63 506.286C1652.67 503.238 1656.48 501.714 1661.05 501.714H1676.47V593.714ZM1706.73 624.571H1691.88C1687.31 624.571 1683.51 623.238 1680.46 620.571C1677.8 617.524 1676.47 613.714 1676.47 609.143V593.714H1691.31C1695.88 593.714 1699.5 595.238 1702.16 598.286C1705.21 600.952 1706.73 604.571 1706.73 609.143V624.571ZM1860.9 655.429H1722.15C1717.58 655.429 1713.77 654.095 1710.73 651.429C1708.06 648.381 1706.73 644.571 1706.73 640V624.571H1845.48C1850.05 624.571 1853.67 626.095 1856.33 629.143C1859.38 631.81 1860.9 635.429 1860.9 640V655.429ZM1891.16 686.286H1876.32C1871.75 686.286 1867.94 684.952 1864.89 682.286C1862.23 679.238 1860.9 675.429 1860.9 670.857V655.429H1875.74C1880.31 655.429 1883.93 656.952 1886.59 660C1889.64 662.667 1891.16 666.286 1891.16 670.857V686.286ZM1891.16 778.286V686.286H1906.58C1911.15 686.286 1914.76 687.81 1917.43 690.857C1920.47 693.524 1921.99 697.143 1921.99 701.714V762.857C1921.99 767.429 1920.47 771.238 1917.43 774.286C1914.76 776.952 1911.15 778.286 1906.58 778.286H1891.16ZM1860.9 809.143V793.714C1860.9 789.143 1862.23 785.524 1864.89 782.857C1867.94 779.81 1871.75 778.286 1876.32 778.286H1891.16V793.714C1891.16 798.286 1889.64 802.095 1886.59 805.143C1883.93 807.81 1880.31 809.143 1875.74 809.143H1860.9ZM1706.73 809.143H1860.9V824.571C1860.9 829.143 1859.38 832.952 1856.33 836C1853.67 838.667 1850.05 840 1845.48 840H1722.15C1717.58 840 1713.77 838.667 1710.73 836C1708.06 832.952 1706.73 829.143 1706.73 824.571V809.143ZM1676.47 778.286H1691.31C1695.88 778.286 1699.5 779.81 1702.16 782.857C1705.21 785.524 1706.73 789.143 1706.73 793.714V809.143H1691.88C1687.31 809.143 1683.51 807.81 1680.46 805.143C1677.8 802.095 1676.47 798.286 1676.47 793.714V778.286ZM1676.47 778.286H1661.05C1656.48 778.286 1652.67 776.952 1649.63 774.286C1646.96 771.238 1645.63 767.429 1645.63 762.857V717.143H1676.47V778.286ZM1891.16 501.714H1876.32C1871.75 501.714 1867.94 500.381 1864.89 497.714C1862.23 494.667 1860.9 490.857 1860.9 486.286V470.857H1875.74C1880.31 470.857 1883.93 472.381 1886.59 475.429C1889.64 478.095 1891.16 481.714 1891.16 486.286V501.714ZM1891.16 501.714H1906.58C1911.15 501.714 1914.76 503.238 1917.43 506.286C1920.47 508.952 1921.99 512.571 1921.99 517.143V532.571H1891.16V501.714ZM1983.71 440H1952.88V455.429C1952.88 460 1954.21 463.81 1956.87 466.857C1959.92 469.524 1963.73 470.857 1968.29 470.857H1983.71V532.571H1968.29C1963.73 532.571 1959.92 534.095 1956.87 537.143C1954.21 539.81 1952.88 543.429 1952.88 548V840H1983.71V532.571H2014.55V578.286C2014.55 582.857 2015.88 586.667 2018.54 589.714C2021.59 592.381 2025.39 593.714 2029.96 593.714H2045.38V640C2045.38 644.571 2046.71 648.381 2049.38 651.429C2052.42 654.095 2056.23 655.429 2060.8 655.429H2076.21V701.714C2076.21 706.286 2077.55 710.095 2080.21 713.143C2083.26 715.81 2087.06 717.143 2091.63 717.143H2107.05V762.286C2107.05 766.857 2108.38 770.667 2111.04 773.714C2114.09 776.381 2117.9 777.714 2122.46 777.714C2127.41 777.714 2131.22 776.381 2133.88 773.714C2136.55 770.667 2137.88 766.857 2137.88 762.286V717.143H2153.3C2157.87 717.143 2161.48 715.81 2164.15 713.143C2167.19 710.095 2168.71 706.286 2168.71 701.714V655.429H2184.13C2188.7 655.429 2192.32 654.095 2194.98 651.429C2198.03 648.381 2199.55 644.571 2199.55 640V593.714H2214.97C2219.53 593.714 2223.15 592.381 2225.81 589.714C2228.86 586.667 2230.38 582.857 2230.38 578.286V532.571H2261.22V840H2292.05V548C2292.05 543.429 2290.53 539.81 2287.48 537.143C2284.82 534.095 2281.2 532.571 2276.63 532.571H2261.22V470.857H2276.63C2281.2 470.857 2284.82 469.524 2287.48 466.857C2290.53 463.81 2292.05 460 2292.05 455.429V440H2261.22V470.857H2245.8C2241.23 470.857 2237.42 472.381 2234.38 475.429C2231.71 478.095 2230.38 481.714 2230.38 486.286V532.571H2214.97C2210.4 532.571 2206.59 534.095 2203.55 537.143C2200.88 539.81 2199.55 543.429 2199.55 548V593.714H2184.13C2179.56 593.714 2175.76 595.238 2172.71 598.286C2170.05 600.952 2168.71 604.571 2168.71 609.143V655.429H2153.3C2148.73 655.429 2144.92 656.952 2141.88 660C2139.21 662.667 2137.88 666.286 2137.88 670.857V717.143H2107.05V670.857C2107.05 666.286 2105.52 662.667 2102.48 660C2099.81 656.952 2096.2 655.429 2091.63 655.429H2076.21V609.143C2076.21 604.571 2074.69 600.952 2071.65 598.286C2068.98 595.238 2065.36 593.714 2060.8 593.714H2045.38V548C2045.38 543.429 2043.86 539.81 2040.81 537.143C2038.15 534.095 2034.53 532.571 2029.96 532.571H2014.55V486.286C2014.55 481.714 2013.02 478.095 2009.98 475.429C2007.31 472.381 2003.7 470.857 1999.13 470.857H1983.71V440ZM2415.64 455.429C2415.64 450.857 2416.97 447.238 2419.63 444.571C2422.68 441.524 2426.48 440 2431.05 440H2553.82C2558.38 440 2562 441.524 2564.67 444.571C2567.71 447.238 2569.23 450.857 2569.23 455.429V470.857H2415.64V455.429ZM2384.8 501.714V486.286C2384.8 481.714 2386.13 478.095 2388.8 475.429C2391.84 472.381 2395.65 470.857 2400.22 470.857H2415.64V486.286C2415.64 490.857 2414.11 494.667 2411.07 497.714C2408.4 500.381 2404.79 501.714 2400.22 501.714H2384.8ZM2353.97 562.857V517.143C2353.97 512.571 2355.3 508.952 2357.96 506.286C2361.01 503.238 2364.82 501.714 2369.38 501.714H2384.8V547.429C2384.8 552 2383.28 555.81 2380.23 558.857C2377.57 561.524 2373.95 562.857 2369.38 562.857H2353.97ZM2353.97 717.143H2338.55C2333.98 717.143 2330.18 715.81 2327.13 713.143C2324.47 710.095 2323.13 706.286 2323.13 701.714V578.286C2323.13 573.714 2324.47 570.095 2327.13 567.429C2330.18 564.381 2333.98 562.857 2338.55 562.857H2353.97V717.143ZM2384.8 778.286H2369.38C2364.82 778.286 2361.01 776.952 2357.96 774.286C2355.3 771.238 2353.97 767.429 2353.97 762.857V717.143H2369.38C2373.95 717.143 2377.57 718.667 2380.23 721.714C2383.28 724.381 2384.8 728 2384.8 732.571V778.286ZM2415.64 809.143H2400.22C2395.65 809.143 2391.84 807.81 2388.8 805.143C2386.13 802.095 2384.8 798.286 2384.8 793.714V778.286H2400.22C2404.79 778.286 2408.4 779.81 2411.07 782.857C2414.11 785.524 2415.64 789.143 2415.64 793.714V809.143ZM2569.23 809.143V824.571C2569.23 829.143 2567.71 832.952 2564.67 836C2562 838.667 2558.38 840 2553.82 840H2431.05C2426.48 840 2422.68 838.667 2419.63 836C2416.97 832.952 2415.64 829.143 2415.64 824.571V809.143H2569.23ZM2599.5 778.286V793.714C2599.5 798.286 2597.97 802.095 2594.93 805.143C2592.26 807.81 2588.65 809.143 2584.08 809.143H2569.23V793.714C2569.23 789.143 2570.57 785.524 2573.23 782.857C2576.28 779.81 2580.08 778.286 2584.65 778.286H2599.5ZM2630.33 717.143V762.857C2630.33 767.429 2628.81 771.238 2625.76 774.286C2623.1 776.952 2619.48 778.286 2614.91 778.286H2599.5V732.571C2599.5 728 2600.83 724.381 2603.49 721.714C2606.54 718.667 2610.35 717.143 2614.91 717.143H2630.33ZM2630.33 562.857H2645.75C2650.32 562.857 2653.93 564.381 2656.6 567.429C2659.64 570.095 2661.16 573.714 2661.16 578.286V701.714C2661.16 706.286 2659.64 710.095 2656.6 713.143C2653.93 715.81 2650.32 717.143 2645.75 717.143H2630.33V562.857ZM2599.5 501.714H2614.91C2619.48 501.714 2623.1 503.238 2625.76 506.286C2628.81 508.952 2630.33 512.571 2630.33 517.143V562.857H2614.91C2610.35 562.857 2606.54 561.524 2603.49 558.857C2600.83 555.81 2599.5 552 2599.5 547.429V501.714ZM2599.5 501.714V486.286C2599.5 481.714 2597.97 478.095 2594.93 475.429C2592.26 472.381 2588.65 470.857 2584.08 470.857H2569.23V486.286C2569.23 490.857 2570.57 494.667 2573.23 497.714C2576.28 500.381 2580.08 501.714 2584.65 501.714H2599.5ZM2757.37 444.571C2754.7 447.238 2753.37 450.857 2753.37 455.429V470.857H2738.53C2733.96 470.857 2730.15 472.381 2727.11 475.429C2724.44 478.095 2723.11 481.714 2723.11 486.286V501.714H2707.69C2703.12 501.714 2699.32 503.238 2696.27 506.286C2693.61 508.952 2692.27 512.571 2692.27 517.143V578.286C2692.27 582.857 2693.61 586.667 2696.27 589.714C2699.32 592.381 2703.12 593.714 2707.69 593.714H2723.11V609.143C2723.11 613.714 2724.44 617.524 2727.11 620.571C2730.15 623.238 2733.96 624.571 2738.53 624.571H2753.37V640C2753.37 644.571 2754.7 648.381 2757.37 651.429C2760.41 654.095 2764.22 655.429 2768.79 655.429H2907.54V670.857C2907.54 675.429 2908.87 679.238 2911.54 682.286C2914.58 684.952 2918.39 686.286 2922.96 686.286H2937.8V778.286H2922.96C2918.39 778.286 2914.58 779.81 2911.54 782.857C2908.87 785.524 2907.54 789.143 2907.54 793.714V809.143H2753.37V793.714C2753.37 789.143 2751.85 785.524 2748.8 782.857C2746.14 779.81 2742.52 778.286 2737.95 778.286H2723.11V717.143H2692.27V762.857C2692.27 767.429 2693.61 771.238 2696.27 774.286C2699.32 776.952 2703.12 778.286 2707.69 778.286H2723.11V793.714C2723.11 798.286 2724.44 802.095 2727.11 805.143C2730.15 807.81 2733.96 809.143 2738.53 809.143H2753.37V824.571C2753.37 829.143 2754.7 832.952 2757.37 836C2760.41 838.667 2764.22 840 2768.79 840H2892.12C2896.69 840 2900.31 838.667 2902.97 836C2906.02 832.952 2907.54 829.143 2907.54 824.571V809.143H2922.39C2926.95 809.143 2930.57 807.81 2933.24 805.143C2936.28 802.095 2937.8 798.286 2937.8 793.714V778.286H2953.22C2957.79 778.286 2961.4 776.952 2964.07 774.286C2967.11 771.238 2968.64 767.429 2968.64 762.857V701.714C2968.64 697.143 2967.11 693.524 2964.07 690.857C2961.4 687.81 2957.79 686.286 2953.22 686.286H2937.8V670.857C2937.8 666.286 2936.28 662.667 2933.24 660C2930.57 656.952 2926.95 655.429 2922.39 655.429H2907.54V640C2907.54 635.429 2906.02 631.81 2902.97 629.143C2900.31 626.095 2896.69 624.571 2892.12 624.571H2753.37V609.143C2753.37 604.571 2751.85 600.952 2748.8 598.286C2746.14 595.238 2742.52 593.714 2737.95 593.714H2723.11V501.714H2737.95C2742.52 501.714 2746.14 500.381 2748.8 497.714C2751.85 494.667 2753.37 490.857 2753.37 486.286V470.857H2907.54V486.286C2907.54 490.857 2908.87 494.667 2911.54 497.714C2914.58 500.381 2918.39 501.714 2922.96 501.714H2937.8V532.571H2968.64V517.143C2968.64 512.571 2967.11 508.952 2964.07 506.286C2961.4 503.238 2957.79 501.714 2953.22 501.714H2937.8V486.286C2937.8 481.714 2936.28 478.095 2933.24 475.429C2930.57 472.381 2926.95 470.857 2922.39 470.857H2907.54V455.429C2907.54 450.857 2906.02 447.238 2902.97 444.571C2900.31 441.524 2896.69 440 2892.12 440H2768.79C2764.22 440 2760.41 441.524 2757.37 444.571ZM592.2 455.429C592.2 450.857 593.532 447.238 596.197 444.571C599.242 441.524 603.049 440 607.617 440C612.566 440 616.372 441.524 619.037 444.571C621.701 447.238 623.034 450.857 623.034 455.429V470.857H592.2V455.429ZM561.366 532.571V486.286C561.366 481.714 562.698 478.095 565.363 475.429C568.408 472.381 572.215 470.857 576.783 470.857H592.2V517.143C592.2 521.714 590.677 525.524 587.632 528.571C584.967 531.238 581.351 532.571 576.783 532.571H561.366ZM530.532 624.571V548C530.532 543.429 531.865 539.81 534.529 537.143C537.575 534.095 541.381 532.571 545.949 532.571H561.366V609.143C561.366 613.714 559.843 617.524 556.798 620.571C554.133 623.238 550.517 624.571 545.949 624.571H530.532ZM530.532 686.286V624.571H515.115C510.547 624.571 506.741 626.095 503.695 629.143C501.031 631.81 499.698 635.429 499.698 640V686.286H484.281C479.713 686.286 475.907 687.81 472.861 690.857C470.197 693.524 468.865 697.143 468.865 701.714V778.286H454.018C449.451 778.286 445.644 779.81 442.598 782.857C439.934 785.524 438.602 789.143 438.602 793.714V840H468.865V778.286H484.281C488.849 778.286 492.466 776.952 495.13 774.286C498.176 771.238 499.698 767.429 499.698 762.857V686.286H530.532ZM684.13 686.286V701.714C684.13 706.286 682.608 710.095 679.562 713.143C676.898 715.81 673.281 717.143 668.713 717.143H545.949C541.381 717.143 537.575 715.81 534.529 713.143C531.865 710.095 530.532 706.286 530.532 701.714V686.286H684.13ZM684.13 624.571V686.286H714.964V762.857C714.964 767.429 716.297 771.238 718.961 774.286C722.007 776.952 725.813 778.286 730.381 778.286H745.798V840H776.632V793.714C776.632 789.143 775.109 785.524 772.064 782.857C769.399 779.81 765.783 778.286 761.215 778.286H745.798V701.714C745.798 697.143 744.275 693.524 741.23 690.857C738.565 687.81 734.949 686.286 730.381 686.286H714.964V640C714.964 635.429 713.442 631.81 710.396 629.143C707.732 626.095 704.115 624.571 699.547 624.571H684.13ZM653.297 532.571H668.713C673.281 532.571 676.898 534.095 679.562 537.143C682.608 539.81 684.13 543.429 684.13 548V624.571H668.713C664.145 624.571 660.339 623.238 657.294 620.571C654.629 617.524 653.297 613.714 653.297 609.143V532.571ZM653.297 532.571V486.286C653.297 481.714 651.774 478.095 648.729 475.429C646.064 472.381 642.447 470.857 637.879 470.857H623.034V517.143C623.034 521.714 624.366 525.524 627.031 528.571C630.076 531.238 633.883 532.571 638.451 532.571H653.297ZM807.742 440H838.576V840H807.742V440ZM30.8339 440H0V455.429C0 460 1.33227 463.81 3.99693 466.857C7.04225 469.524 10.849 470.857 15.417 470.857H30.8339V486.286C30.8339 490.857 32.1661 494.667 34.8308 497.714C37.8761 500.381 41.6829 501.714 46.2508 501.714H61.6677V547.429C61.6677 552 63.0001 555.81 65.6648 558.857C68.7101 561.524 72.5167 562.857 77.0847 562.857H92.5016V578.286C92.5016 582.857 93.834 586.667 96.4986 589.714C99.5439 592.381 103.351 593.714 107.919 593.714H123.335V609.143C123.335 613.714 124.668 617.524 127.332 620.571C130.378 623.238 134.184 624.571 138.752 624.571H154.169V655.429H138.752C134.184 655.429 130.378 656.952 127.332 660C124.668 662.667 123.335 666.286 123.335 670.857V686.286H107.919C103.351 686.286 99.5439 687.81 96.4986 690.857C93.834 693.524 92.5016 697.143 92.5016 701.714V717.143H77.0847C72.5167 717.143 68.7101 718.667 65.6648 721.714C63.0001 724.381 61.6677 728 61.6677 732.571V778.286H46.2508C41.6829 778.286 37.8761 779.81 34.8308 782.857C32.1661 785.524 30.8339 789.143 30.8339 793.714V809.143H15.417C10.849 809.143 7.04225 810.667 3.99693 813.714C1.33227 816.381 0 820 0 824.571V840H30.8339V809.143H46.2508C50.8188 809.143 54.4351 807.81 57.0998 805.143C60.1451 802.095 61.6677 798.286 61.6677 793.714V778.286H77.0847C81.6527 778.286 85.269 776.952 87.9336 774.286C90.979 771.238 92.5016 767.429 92.5016 762.857V717.143H107.919C112.487 717.143 116.103 715.81 118.767 713.143C121.813 710.095 123.335 706.286 123.335 701.714V686.286H138.752C143.32 686.286 146.937 684.952 149.601 682.286C152.647 679.238 154.169 675.429 154.169 670.857V655.429H184.432V670.857C184.432 675.429 185.765 679.238 188.429 682.286C191.475 684.952 195.281 686.286 199.849 686.286H215.266V701.714C215.266 706.286 216.598 710.095 219.263 713.143C222.308 715.81 226.115 717.143 230.683 717.143H246.1V762.857C246.1 767.429 247.432 771.238 250.097 774.286C253.142 776.952 256.949 778.286 261.517 778.286H276.934V793.714C276.934 798.286 278.266 802.095 280.931 805.143C283.976 807.81 287.783 809.143 292.351 809.143H307.768V840H338.602V809.143H307.768V793.714C307.768 789.143 306.245 785.524 303.2 782.857C300.535 779.81 296.919 778.286 292.351 778.286H276.934V732.571C276.934 728 275.411 724.381 272.366 721.714C269.701 718.667 266.085 717.143 261.517 717.143H246.1V701.714C246.1 697.143 244.577 693.524 241.532 690.857C238.867 687.81 235.251 686.286 230.683 686.286H215.266V670.857C215.266 666.286 213.743 662.667 210.698 660C208.034 656.952 204.417 655.429 199.849 655.429H184.432V624.571H199.849C204.417 624.571 208.034 623.238 210.698 620.571C213.743 617.524 215.266 613.714 215.266 609.143V593.714H230.683C235.251 593.714 238.867 592.381 241.532 589.714C244.577 586.667 246.1 582.857 246.1 578.286V562.857H261.517C266.085 562.857 269.701 561.524 272.366 558.857C275.411 555.81 276.934 552 276.934 547.429V501.714H292.351C296.919 501.714 300.535 500.381 303.2 497.714C306.245 494.667 307.768 490.857 307.768 486.286V470.857H323.185C327.752 470.857 331.369 469.524 334.034 466.857C337.079 463.81 338.602 460 338.602 455.429V440H307.768V470.857H292.351C287.783 470.857 283.976 472.381 280.931 475.429C278.266 478.095 276.934 481.714 276.934 486.286V501.714H261.517C256.949 501.714 253.142 503.238 250.097 506.286C247.432 508.952 246.1 512.571 246.1 517.143V562.857H230.683C226.115 562.857 222.308 564.381 219.263 567.429C216.598 570.095 215.266 573.714 215.266 578.286V593.714H199.849C195.281 593.714 191.475 595.238 188.429 598.286C185.765 600.952 184.432 604.571 184.432 609.143V624.571H154.169V609.143C154.169 604.571 152.647 600.952 149.601 598.286C146.937 595.238 143.32 593.714 138.752 593.714H123.335V578.286C123.335 573.714 121.813 570.095 118.767 567.429C116.103 564.381 112.487 562.857 107.919 562.857H92.5016V517.143C92.5016 512.571 90.979 508.952 87.9336 506.286C85.269 503.238 81.6527 501.714 77.0847 501.714H61.6677V486.286C61.6677 481.714 60.1451 478.095 57.0998 475.429C54.4351 472.381 50.8188 470.857 46.2508 470.857H30.8339V440Z" fill="url(#paint0_linear_367_288)"/>
<defs>
<linearGradient id="paint0_linear_367_288" x1="1484.32" y1="-2.1374" x2="1484.32" y2="842.137" gradientUnits="userSpaceOnUse">
<stop stop-color="white"/>
<stop offset="1" stop-color="#E7A3FF" stop-opacity="0"/>
</linearGradient>
</defs>
</svg>
