<svg  viewBox="0 0 334 480" fill="none" xmlns="http://www.w3.org/2000/svg">
<path fill-rule="evenodd" clip-rule="evenodd" d="M0 0.292969H40.0285V219.568H292.316V0.292969H333.024V203.235C333.024 209.16 331.025 214.205 327 218.225C323.376 221.844 318.519 223.562 312.67 223.562H296.315V256.227H312.67C318.554 256.227 323.408 258.195 327.003 262.24C331.054 265.83 333.024 270.678 333.024 276.553V479.496H292.316V260.221H40.0285V479.496H0V276.553C0 270.713 1.71975 265.863 5.34425 262.243C9.36935 258.223 14.4211 256.227 20.3541 256.227H36.0296V223.562H20.3541C14.4981 223.562 9.47878 221.843 5.44142 218.315L5.34111 218.228L5.25333 218.128C1.72064 214.096 0 209.083 0 203.235V0.292969ZM38.0291 221.565V258.224H20.3541C14.9157 258.224 10.3837 260.034 6.75805 263.655C3.58563 266.823 1.99942 271.122 1.99942 276.553V477.499H38.0291V258.224H294.315V477.499H331.025V276.553C331.025 271.122 329.212 266.823 325.586 263.655C322.414 260.034 318.108 258.224 312.67 258.224H294.315V221.565H312.67C318.108 221.565 322.414 219.981 325.586 216.813C329.212 213.192 331.025 208.666 331.025 203.235V2.28965H294.315V221.565H38.0291V2.28965H1.99942V203.235C1.99942 208.666 3.58563 213.192 6.75805 216.813C10.3837 219.981 14.9157 221.565 20.3541 221.565H38.0291Z" fill="white"/>
</svg>
