<svg  viewBox="0 0 627 480" fill="none" xmlns="http://www.w3.org/2000/svg">
<path fill-rule="evenodd" clip-rule="evenodd" d="M0 0H40.7083V73.3181H57.0636C62.9476 73.3181 67.8018 75.286 71.3966 79.3311C75.4471 82.921 77.4177 87.7684 77.4177 93.6443V145.957H93.773C99.6569 145.957 104.511 147.925 108.106 151.97C112.156 155.56 114.127 160.407 114.127 166.283V255.934H129.803C135.687 255.934 140.541 257.902 144.136 261.947C148.186 265.537 150.157 270.385 150.157 276.26V365.232H182.867V276.26C182.867 270.42 184.587 265.57 188.212 261.95C192.237 257.93 197.288 255.934 203.221 255.934H219.577V166.283C219.577 160.443 221.297 155.593 224.921 151.973C228.946 147.953 233.998 145.957 239.931 145.957H256.286V93.6443C256.286 87.8036 258.006 82.9534 261.63 79.3338C265.656 75.3143 270.707 73.3181 276.64 73.3181H292.996V0H333.704V73.3181H349.38C355.263 73.3181 360.118 75.2859 363.712 79.3309C367.763 82.9208 369.734 87.7683 369.734 93.6443V145.957H386.089C391.973 145.957 396.827 147.925 400.422 151.97C404.472 155.56 406.443 160.407 406.443 166.283V255.934H422.798C428.682 255.934 433.537 257.902 437.132 261.948C441.182 265.537 443.152 270.385 443.152 276.26V365.232H475.863V276.26C475.863 270.42 477.583 265.57 481.207 261.95C485.232 257.93 490.284 255.934 496.217 255.934H512.572V166.283C512.572 160.443 514.292 155.593 517.917 151.973C521.942 147.953 526.994 145.957 532.927 145.957H549.282V93.6443C549.282 87.8036 551.002 82.9534 554.626 79.3338C558.651 75.3143 563.703 73.3181 569.636 73.3181H585.991V0H626.02V56.9852C626.02 62.9101 624.021 67.9549 619.996 71.9745C616.371 75.594 611.514 77.3114 605.666 77.3114H589.99V129.624C589.99 135.549 587.991 140.594 583.966 144.614C580.342 148.233 575.485 149.951 569.636 149.951H553.281V239.601C553.281 245.526 551.282 250.571 547.257 254.591C543.632 258.21 538.775 259.928 532.927 259.928H516.571V348.9C516.571 354.825 514.572 359.869 510.547 363.889C506.923 367.508 502.066 369.226 496.217 369.226H479.862V479.203H439.154V369.226H422.798C416.942 369.226 411.923 367.508 407.886 363.98L407.785 363.892L407.698 363.792C404.165 359.76 402.444 354.748 402.444 348.9V259.928H386.089C380.233 259.928 375.213 258.209 371.176 254.682L371.076 254.594L370.988 254.494C367.455 250.462 365.735 245.449 365.735 239.601V149.951H350.059C344.203 149.951 339.184 148.232 335.146 144.704L335.046 144.617L334.958 144.517C331.426 140.485 329.705 135.472 329.705 129.624V77.3114H296.995V129.624C296.995 135.549 294.996 140.594 290.97 144.614C287.346 148.233 282.489 149.951 276.64 149.951H260.285V239.601C260.285 245.526 258.286 250.571 254.261 254.591C250.637 258.21 245.78 259.928 239.931 259.928H223.576V348.9C223.576 354.825 221.577 359.869 217.552 363.889C213.927 367.508 209.07 369.226 203.221 369.226H186.866V479.203H146.158V369.226H130.482C124.626 369.226 119.607 367.508 115.57 363.98L115.469 363.892L115.382 363.792C111.849 359.76 110.128 354.748 110.128 348.9V259.928H93.773C87.917 259.928 82.8976 258.209 78.8603 254.682L78.7599 254.594L78.6722 254.494C75.1395 250.462 73.4189 245.449 73.4189 239.601V149.951H57.0636C51.2076 149.951 46.1882 148.232 42.1509 144.704L42.0506 144.617L41.9628 144.517C38.4301 140.485 36.7095 135.472 36.7095 129.624V77.3114H20.3541C14.4981 77.3114 9.47876 75.5931 5.44141 72.0653L5.34113 71.9776L5.25336 71.8775C1.72062 67.8456 0 62.8332 0 56.9852V0ZM38.7089 75.3148V129.624C38.7089 135.055 40.2951 139.581 43.4675 143.202C47.0931 146.37 51.6252 147.954 57.0636 147.954H75.4183V239.601C75.4183 245.032 77.0045 249.558 80.1769 253.179C83.8025 256.347 88.3346 257.931 93.773 257.931H112.128V348.9C112.128 354.331 113.714 358.856 116.886 362.477C120.512 365.645 125.044 367.229 130.482 367.229H148.157V477.206H184.867V367.229H203.221C208.66 367.229 212.965 365.645 216.138 362.477C219.763 358.856 221.576 354.331 221.576 348.9V257.931H239.931C245.369 257.931 249.675 256.347 252.847 253.179C256.473 249.558 258.286 245.032 258.286 239.601V147.954H276.64C282.079 147.954 286.384 146.37 289.557 143.202C293.182 139.581 294.995 135.055 294.995 129.624V75.3148H331.705V129.624C331.705 135.055 333.291 139.581 336.463 143.202C340.089 146.37 344.621 147.954 350.059 147.954H367.734V239.601C367.734 245.032 369.32 249.558 372.493 253.179C376.118 256.347 380.65 257.931 386.089 257.931H404.444V348.9C404.444 354.331 406.03 358.856 409.202 362.477C412.828 365.645 417.36 367.229 422.798 367.229H441.153V477.206H477.862V367.229H496.217C501.656 367.229 505.961 365.645 509.133 362.477C512.759 358.856 514.572 354.331 514.572 348.9V257.931H532.927C538.365 257.931 542.67 256.347 545.843 253.179C549.469 249.558 551.281 245.032 551.281 239.601V147.954H569.636C575.074 147.954 579.38 146.37 582.552 143.202C586.178 139.581 587.991 135.055 587.991 129.624V75.3148H605.666C611.104 75.3148 615.409 73.7307 618.582 70.5626C622.208 66.942 624.02 62.4162 624.02 56.9852V1.99668H587.991V75.3148H569.636C564.197 75.3148 559.665 77.1251 556.04 80.7457C552.867 83.9138 551.281 88.2133 551.281 93.6443V147.954H532.927C527.488 147.954 522.956 149.764 519.331 153.385C516.158 156.553 514.572 160.852 514.572 166.283V257.931H496.217C490.779 257.931 486.247 259.741 482.621 263.362C479.449 266.53 477.862 270.83 477.862 276.26V367.229H441.153V276.26C441.153 270.83 439.34 266.53 435.715 263.362C432.542 259.741 428.237 257.931 422.798 257.931H404.444V166.283C404.444 160.852 402.631 156.553 399.005 153.385C395.833 149.764 391.527 147.954 386.089 147.954H367.734V93.6443C367.734 88.2133 365.921 83.9138 362.296 80.7457C359.123 77.1251 354.818 75.3148 349.38 75.3148H331.705V1.99668H294.995V75.3148H276.64C271.202 75.3148 266.67 77.1251 263.044 80.7457C259.872 83.9138 258.286 88.2133 258.286 93.6443V147.954H239.931C234.492 147.954 229.96 149.764 226.335 153.385C223.162 156.553 221.576 160.852 221.576 166.283V257.931H203.221C197.783 257.931 193.251 259.741 189.625 263.362C186.453 266.53 184.867 270.83 184.867 276.26V367.229H148.157V276.26C148.157 270.83 146.345 266.53 142.719 263.362C139.547 259.741 135.241 257.931 129.803 257.931H112.128V166.283C112.128 160.852 110.315 156.553 106.689 153.385C103.517 149.764 99.2114 147.954 93.773 147.954H75.4183V93.6443C75.4183 88.2133 73.6055 83.9138 69.9799 80.7457C66.8074 77.1251 62.502 75.3148 57.0636 75.3148H38.7089V1.99668H1.99939V56.9852C1.99939 62.4162 3.58563 66.942 6.75806 70.5626C10.3837 73.7307 14.9158 75.3148 20.3541 75.3148H38.7089Z" fill="white"/>
</svg>
