<svg  viewBox="0 0 407 480" fill="none" xmlns="http://www.w3.org/2000/svg">
<path fill-rule="evenodd" clip-rule="evenodd" d="M298.337 71.9776L298.249 71.8775C294.716 67.8456 292.996 62.8332 292.996 56.9852V40.6524H114.127V56.9852C114.127 62.9101 112.128 67.9549 108.103 71.9745C104.479 75.594 99.6217 77.3114 93.773 77.3114H77.4177V129.624C77.4177 135.549 75.4187 140.594 71.3936 144.614C67.7691 148.233 62.9123 149.951 57.0636 149.951H40.7083V329.252H57.0636C62.9476 329.252 67.8017 331.22 71.3964 335.265C75.4471 338.855 77.4177 343.703 77.4177 349.579V401.892H93.773C99.657 401.892 104.511 403.859 108.106 407.905C112.157 411.494 114.127 416.342 114.127 422.218V438.551H292.996V422.218C292.996 416.377 294.715 411.527 298.34 407.907C302.365 403.888 307.417 401.892 313.35 401.892H329.025V349.579C329.025 343.738 330.745 338.888 334.37 335.268C338.395 331.249 343.446 329.252 349.379 329.252H365.735V149.951H349.379C343.523 149.951 338.504 148.232 334.467 144.704L334.366 144.617L334.279 144.517C330.746 140.485 329.025 135.472 329.025 129.624V77.3114H313.35C307.494 77.3114 302.474 75.5931 298.437 72.0653L298.337 71.9776ZM331.025 75.3148V129.624C331.025 135.055 332.611 139.581 335.783 143.202C339.409 146.37 343.941 147.954 349.379 147.954H367.734V331.249H349.379C343.941 331.249 339.409 333.059 335.783 336.68C332.611 339.848 331.025 344.148 331.025 349.579V403.888H313.35C307.911 403.888 303.379 405.698 299.754 409.319C296.581 412.487 294.995 416.787 294.995 422.218V440.547H112.128V422.218C112.128 416.787 110.315 412.487 106.689 409.319C103.517 405.698 99.2114 403.888 93.773 403.888H75.4183V349.579C75.4183 344.148 73.6055 339.848 69.9799 336.68C66.8074 333.059 62.502 331.249 57.0636 331.249H38.7088V147.954H57.0636C62.502 147.954 66.8074 146.37 69.9799 143.202C73.6055 139.581 75.4183 135.055 75.4183 129.624V75.3148H93.773C99.2114 75.3148 103.517 73.7307 106.689 70.5626C110.315 66.942 112.128 62.4162 112.128 56.9852V38.6557H294.995V56.9852C294.995 62.4162 296.581 66.942 299.754 70.5626C303.379 73.7307 307.911 75.3148 313.35 75.3148H331.025ZM294.995 38.6557H312.67C318.108 38.6557 322.414 40.466 325.586 44.0867C329.212 47.2547 331.025 51.5543 331.025 56.9852V75.3148H349.379C354.818 75.3148 359.123 77.1251 362.296 80.7457C365.921 83.9138 367.734 88.2133 367.734 93.6443V147.954H386.089C391.527 147.954 395.833 149.764 399.005 153.385C402.631 156.553 404.444 160.852 404.444 166.283V312.92C404.444 318.35 402.631 322.876 399.005 326.497C395.833 329.665 391.527 331.249 386.089 331.249H367.734V385.559C367.734 390.99 365.921 395.515 362.296 399.136C359.123 402.304 354.818 403.888 349.379 403.888H331.025V422.218C331.025 427.649 329.212 432.174 325.586 435.795C322.414 438.963 318.108 440.547 312.67 440.547H294.995V458.877C294.995 464.308 293.182 468.834 289.557 472.454C286.384 475.622 282.079 477.206 276.64 477.206H130.482C125.044 477.206 120.512 475.622 116.886 472.454C113.714 468.834 112.128 464.308 112.128 458.877V440.547H93.773C88.3345 440.547 83.8026 438.963 80.1769 435.795C77.0045 432.174 75.4183 427.649 75.4183 422.218V403.888H57.0636C51.6252 403.888 47.0931 402.304 43.4675 399.136C40.295 395.515 38.7088 390.99 38.7088 385.559V331.249H20.3541C14.9157 331.249 10.3837 329.665 6.75806 326.497C3.58563 322.876 1.99942 318.35 1.99942 312.92V166.283C1.99942 160.852 3.58563 156.553 6.75806 153.385C10.3837 149.764 14.9157 147.954 20.3541 147.954H38.7088V93.6443C38.7088 88.2133 40.295 83.9138 43.4675 80.7457C47.0931 77.1251 51.6252 75.3148 57.0636 75.3148H75.4183V56.9852C75.4183 51.5543 77.0045 47.2547 80.1769 44.0867C83.8026 40.466 88.3345 38.6557 93.773 38.6557H112.128V20.3262C112.128 14.8952 113.714 10.5957 116.886 7.42765C120.512 3.807 125.044 1.99668 130.482 1.99668H276.64C282.079 1.99668 286.384 3.807 289.557 7.42765C293.182 10.5957 294.995 14.8952 294.995 20.3262V38.6557ZM296.995 36.659H312.67C318.554 36.659 323.408 38.627 327.003 42.6721C331.054 46.2619 333.024 51.1094 333.024 56.9852V73.3181H349.379C355.263 73.3181 360.118 75.286 363.712 79.3312C367.763 82.921 369.734 87.7684 369.734 93.6443V145.957H386.089C391.973 145.957 396.827 147.925 400.422 151.97C404.472 155.56 406.443 160.408 406.443 166.283V312.92C406.443 318.844 404.444 323.889 400.419 327.909C396.794 331.528 391.938 333.246 386.089 333.246H369.734V385.559C369.734 391.484 367.735 396.528 363.71 400.548C360.085 404.167 355.228 405.885 349.379 405.885H333.024V422.218C333.024 428.143 331.025 433.187 327 437.207C323.376 440.826 318.519 442.544 312.67 442.544H296.995V458.877C296.995 464.802 294.996 469.846 290.97 473.866C287.346 477.486 282.489 479.203 276.64 479.203H130.482C124.626 479.203 119.607 477.485 115.57 473.957L115.469 473.869L115.382 473.769C111.849 469.737 110.128 464.725 110.128 458.877V442.544H93.773C87.9169 442.544 82.8977 440.826 78.8603 437.298L78.76 437.21L78.6722 437.11C75.1395 433.078 73.4189 428.066 73.4189 422.218V405.885H57.0636C51.2076 405.885 46.1882 404.167 42.1509 400.639L42.0505 400.551L41.9628 400.451C38.4301 396.419 36.7094 391.407 36.7094 385.559V333.246H20.3541C14.4981 333.246 9.47882 331.527 5.44144 328L5.34113 327.912L5.2533 327.812C1.72062 323.78 0 318.767 0 312.92V166.283C0 160.443 1.71973 155.593 5.34424 151.973C9.36936 147.953 14.4211 145.957 20.3541 145.957H36.7094V93.6443C36.7094 87.8036 38.4292 82.9534 42.0537 79.3338C46.0788 75.3143 51.1306 73.3181 57.0636 73.3181H73.4189V56.9852C73.4189 51.1446 75.1386 46.2943 78.7631 42.6748C82.7882 38.6552 87.84 36.659 93.773 36.659H110.128V20.3262C110.128 14.4855 111.848 9.6353 115.473 6.01579C119.498 1.99621 124.549 0 130.482 0H276.64C282.524 0 287.379 1.96794 290.973 6.01307C295.024 9.6029 296.995 14.4503 296.995 20.3262V36.659Z" fill="white"/>
</svg>
