<svg  viewBox="0 0 274 505" fill="none" xmlns="http://www.w3.org/2000/svg">
<path fill-rule="evenodd" clip-rule="evenodd" d="M92.4299 294.065L92.4368 294.041C96.1294 281.135 102.127 268.934 110.412 257.443L110.427 257.422L110.442 257.402C119.165 245.94 130.834 234.069 145.413 221.784C163.064 206.869 176.6 194.475 186.046 184.592L186.062 184.575L186.079 184.559C195.93 174.721 202.779 165.196 206.729 155.993C210.673 146.802 212.685 135.544 212.685 122.157C212.685 100.902 205.836 84.7661 192.326 73.4502C178.77 62.0964 158.907 56.2664 132.428 56.2664C110.395 56.2664 90.9059 59.1856 73.9325 64.9843L73.91 64.9919L73.8875 64.9991C56.7565 70.4014 40.3054 76.928 24.5331 84.5783L22.6702 85.482L0 34.3618L1.65625 33.4935C19.9141 23.9213 39.9804 15.9535 61.8485 9.58406L61.8591 9.58099C84.2731 3.18584 109.161 0 136.507 0C179.879 0 213.731 10.7168 237.779 32.4223C261.832 54.1325 273.788 83.6722 273.788 120.799C273.788 141.374 270.355 159.099 263.408 173.906C256.952 188.176 247.516 201.493 235.133 213.858C223.3 225.675 209.208 238.385 192.863 251.988C177.959 264.616 166.496 275.62 158.436 285.008C150.873 294.344 145.816 303.605 143.188 312.789L143.185 312.802L143.181 312.814C140.534 321.623 139.186 332.505 139.186 345.505V359.043H87.6011V338.717C87.6011 321.406 89.1967 306.519 92.4238 294.089L92.4299 294.065ZM191.571 250.463C207.887 236.886 221.936 224.214 233.719 212.447C245.956 200.227 255.246 187.102 261.591 173.072C268.389 158.59 271.788 141.165 271.788 120.799C271.788 84.14 260.005 55.1749 236.438 33.9036C212.872 12.6323 179.561 1.99668 136.507 1.99668C109.315 1.99668 84.6154 5.16474 62.4084 11.5009C40.6547 17.837 20.7138 25.7572 2.58569 35.2614L23.6595 82.7823C24.2592 82.4914 24.8599 82.2022 25.4615 81.9146C40.7734 74.5939 56.7146 68.3207 73.2853 63.0951C90.507 57.2115 110.221 54.2697 132.428 54.2697C159.167 54.2697 179.561 60.1533 193.611 71.9204C207.66 83.6875 214.685 100.433 214.685 122.157C214.685 135.734 212.645 147.275 208.566 156.779C204.488 166.283 197.463 176.014 187.492 185.971C177.975 195.927 164.379 208.373 146.704 223.309C132.202 235.528 120.645 247.295 112.034 258.61C103.876 269.924 97.9849 281.918 94.3593 294.59C91.1868 306.81 89.6006 321.519 89.6006 338.717V357.046H137.187V345.505C137.187 332.381 138.547 321.292 141.266 312.241C143.985 302.736 149.197 293.232 156.901 283.728C165.059 274.224 176.616 263.136 191.571 250.463ZM84.2201 420.023L84.2417 420.005C92.8125 412.872 103.484 409.359 116.113 409.359C127.877 409.359 138.082 412.896 146.625 420.005C155.448 427.348 159.58 439.844 159.58 456.84C159.58 473.419 155.432 485.859 146.673 493.634C138.134 501.213 127.912 505 116.113 505C103.45 505 92.7621 501.24 84.1935 493.634L84.1722 493.615L84.1515 493.595C75.8723 485.814 71.9657 473.389 71.9657 456.84C71.9657 439.874 75.8564 427.393 84.199 420.042L84.2201 420.023ZM85.5217 421.539C77.8173 428.328 73.9652 440.095 73.9652 456.84C73.9652 473.133 77.8173 484.9 85.5217 492.141C93.6794 499.383 103.876 503.003 116.113 503.003C127.443 503.003 137.187 499.383 145.344 492.141C153.502 484.9 157.581 473.133 157.581 456.84C157.581 440.095 153.502 428.328 145.344 421.539C137.187 414.75 127.443 411.356 116.113 411.356C103.876 411.356 93.6794 414.75 85.5217 421.539Z" fill="white"/>
</svg>
