<svg viewBox="0 0 45 40" fill="none" xmlns="http://www.w3.org/2000/svg">
<path d="M13.5176 25.2762L15.1561 22.9104L13.643 20.7871H15.1477L16.0087 22.1664H16.0756L16.9283 20.7871H18.4247L16.9199 22.9021L18.55 25.2762H17.0119L16.0422 23.7715H15.9669L14.9972 25.2762H13.5176Z" fill="#5DF5ED"/>
<path d="M26.4691 20.8525L24.9546 25.3591H25.9313L26.9142 22.3362L27.143 21.6376H27.1801L27.4088 22.3362L27.8539 23.6838L28.0888 24.4565L28.3917 25.3591H29.3931L27.8724 20.8525H26.4691Z" fill="white"/>
<path d="M29.9106 25.3591V20.8594H30.9245V25.3591H29.9106Z" fill="#5DF5ED"/>
<path fill-rule="evenodd" clip-rule="evenodd" d="M21.9118 4.77589L21.946 7.81367H14.5387C6.7729 7.81367 0.426925 13.8928 0 21.5519H6.28717C6.7005 17.3589 10.2371 14.0834 14.5387 14.0834H29.9278C34.2295 14.0834 37.7661 17.3589 38.1794 21.5519H44.4666C44.0396 13.8928 37.6937 7.81367 29.9278 7.81367H22.5352L22.5011 4.78265C23.1079 4.7146 23.666 4.41767 24.0615 3.9524C24.457 3.48713 24.6601 2.88855 24.6295 2.27867C24.599 1.66878 24.3369 1.09352 23.8969 0.670147C23.4568 0.246774 22.8719 0.00716308 22.2613 0.000158019C21.6507 -0.00684704 21.0604 0.219282 20.6107 0.632448C20.1611 1.04561 19.8859 1.61471 19.8414 2.22373C19.7968 2.83275 19.9862 3.43584 20.3709 3.91006C20.7556 4.38428 21.3067 4.69393 21.9118 4.77589ZM44.3338 24.5123H37.9418C36.9992 28.0562 33.7684 30.6672 29.9278 30.6672H14.5387C10.6981 30.6672 7.46738 28.0562 6.5248 24.5123H0.132818C0.749293 28.7041 3.15182 32.3149 6.54256 34.547V40.0001L11.5093 36.6214C12.4866 36.8282 13.4999 36.9369 14.5387 36.9369H29.9278C37.244 36.9369 43.3 31.5414 44.3338 24.5123Z" fill="url(#paint0_linear_385_308)"/>
<path d="M20.3714 3.91006C20.7561 4.38428 21.3072 4.69393 21.9123 4.77589L22.5016 4.78265C23.1084 4.7146 23.6665 4.41767 24.062 3.9524C24.4575 3.48713 24.6606 2.88855 24.63 2.27867C24.5995 1.66878 24.3374 1.09352 23.8974 0.670147C23.4573 0.246774 22.8724 0.00716308 22.2618 0.000158019C21.6512 -0.00684704 21.0609 0.219282 20.6112 0.632448C20.1616 1.04561 19.8864 1.61471 19.8419 2.22373C19.7973 2.83275 19.9867 3.43584 20.3714 3.91006Z" fill="#5DF5ED"/>
<defs>
<linearGradient id="paint0_linear_385_308" x1="22.2333" y1="7.83351" x2="22.2333" y2="36.8013" gradientUnits="userSpaceOnUse">
<stop stop-color="#572B7A"/>
<stop offset="0.536458" stop-color="#B972F2"/>
<stop offset="1" stop-color="#572B7A"/>
</linearGradient>
</defs>
</svg>
