<svg viewBox="0 0 1760 353" fill="none" xmlns="http://www.w3.org/2000/svg">
<g clip-path="url(#clip0_151_10069)">
<path d="M0 149.268C0 157.338 5.73008 162.884 14.0648 162.884H27.6086V0H0V149.268ZM238.059 162.884C246.394 162.884 252.124 157.338 252.124 149.268V0H223.993V162.884H238.059ZM223.993 162.884H27.6086V190.116H223.993V162.884ZM14.0648 190.116C5.73008 190.116 0 195.662 0 203.732V353H27.6086V190.116H14.0648ZM252.124 203.732C252.124 195.662 246.394 190.116 238.059 190.116H223.993V353H252.124V203.732Z" fill="url(#paint0_linear_151_10069)"/>
<path d="M282.902 353H311.031V0H282.902V353Z" fill="url(#paint1_linear_151_10069)"/>
<path d="M392.502 27.2314H533.15V13.6158C533.15 5.54715 527.419 0 519.085 0H406.566C398.232 0 392.502 5.54715 392.502 13.6158V27.2314ZM392.502 27.2314H378.958C370.623 27.2314 364.893 32.7786 364.893 40.8472V54.4628H378.437C386.771 54.4628 392.502 48.9158 392.502 40.8472V27.2314ZM560.758 54.4628V40.8472C560.758 32.7786 555.028 27.2314 546.694 27.2314H533.15V40.8472C533.15 48.9158 538.88 54.4628 547.214 54.4628H560.758ZM364.893 135.652V54.4628H350.828C342.494 54.4628 336.764 60.01 336.764 68.0786V122.037C336.764 130.106 342.494 135.652 350.828 135.652H364.893ZM560.758 54.4628V81.6942H588.888V68.0786C588.888 60.01 583.157 54.4628 574.823 54.4628H560.758ZM392.502 162.884V149.268C392.502 141.2 386.771 135.652 378.437 135.652H364.893V149.268C364.893 157.338 370.623 162.884 378.958 162.884H392.502ZM392.502 162.884V176.5C392.502 184.568 398.232 190.116 406.566 190.116H533.15V176.5C533.15 168.432 527.419 162.884 519.085 162.884H392.502ZM560.758 217.348V203.732C560.758 195.662 555.028 190.116 546.694 190.116H533.15V203.732C533.15 211.8 538.88 217.348 547.214 217.348H560.758ZM560.758 298.538H574.823C583.157 298.538 588.888 292.99 588.888 284.922V230.962C588.888 222.894 583.157 217.348 574.823 217.348H560.758V298.538ZM364.893 244.578H336.764V284.922C336.764 292.99 342.494 298.538 350.828 298.538H364.893V244.578ZM364.893 298.538V312.152C364.893 320.222 370.623 325.768 378.958 325.768H392.502V312.152C392.502 304.084 386.771 298.538 378.437 298.538H364.893ZM533.15 325.768H546.694C555.028 325.768 560.758 320.222 560.758 312.152V298.538H547.214C538.88 298.538 533.15 304.084 533.15 312.152V325.768ZM392.502 325.768V339.384C392.502 347.452 398.232 353 406.566 353H519.085C527.419 353 533.15 347.452 533.15 339.384V325.768H392.502Z" fill="url(#paint2_linear_151_10069)"/>
<path d="M744.646 353V21.3353H868.998V0.207031H595.424V21.3353H720.283V353H744.646Z" fill="url(#paint3_linear_151_10069)"/>
<path d="M945.642 27.2314H1085.77V13.6158C1085.77 5.54715 1080.04 0 1071.7 0H959.707C951.372 0 945.642 5.54715 945.642 13.6158V27.2314ZM945.642 27.2314H931.577C923.243 27.2314 917.513 32.7786 917.513 40.8472V54.4628H931.577C939.912 54.4628 945.642 48.9158 945.642 40.8472V27.2314ZM1113.38 54.4628V40.8472C1113.38 32.7786 1107.65 27.2314 1099.31 27.2314H1085.77V40.8472C1085.77 48.9158 1091.5 54.4628 1099.83 54.4628H1113.38ZM889.383 108.421H903.448C911.782 108.421 917.513 102.874 917.513 94.8058V54.4628H903.448C895.114 54.4628 889.383 60.01 889.383 68.0786V108.421ZM1113.38 54.4628V94.8058C1113.38 102.874 1119.11 108.421 1127.44 108.421H1141.51V68.0786C1141.51 60.01 1135.78 54.4628 1127.44 54.4628H1113.38ZM889.383 244.578V108.421H875.319C866.984 108.421 861.254 113.969 861.254 122.037V230.962C861.254 239.032 866.984 244.578 875.319 244.578H889.383ZM1141.51 108.421V244.578H1155.57C1163.91 244.578 1169.64 239.032 1169.64 230.962V122.037C1169.64 113.969 1163.91 108.421 1155.57 108.421H1141.51ZM1113.38 298.538H1127.44C1135.78 298.538 1141.51 292.99 1141.51 284.922V244.578H1127.44C1119.11 244.578 1113.38 250.126 1113.38 258.194V298.538ZM889.383 244.578V284.922C889.383 292.99 895.114 298.538 903.448 298.538H917.513V258.194C917.513 250.126 911.782 244.578 903.448 244.578H889.383ZM1085.77 325.768H1099.31C1107.65 325.768 1113.38 320.222 1113.38 312.152V298.538H1099.83C1091.5 298.538 1085.77 304.084 1085.77 312.152V325.768ZM917.513 298.538V312.152C917.513 320.222 923.243 325.768 931.577 325.768H945.642V312.152C945.642 304.084 939.912 298.538 931.577 298.538H917.513ZM945.642 325.768V339.384C945.642 347.452 951.372 353 959.707 353H1071.7C1080.04 353 1085.77 347.452 1085.77 339.384V325.768H945.642Z" fill="url(#paint4_linear_151_10069)"/>
<path d="M1222.81 353V208.051H1317.72L1421.26 353H1450.71L1344.62 206.085C1404.01 199.206 1441.56 159.406 1441.56 104.374C1441.56 38.0414 1395.38 0.207031 1323.3 0.207031H1197.94V353H1222.81ZM1222.81 20.3526H1320.26C1379.13 20.3526 1416.7 50.3253 1416.7 104.374C1416.7 158.423 1379.13 187.905 1320.26 187.905H1222.81V20.3526Z" fill="url(#paint5_linear_151_10069)"/>
<path d="M1451.62 13.6158C1451.62 21.6844 1457.35 27.2314 1465.69 27.2314H1479.74V0H1451.62V13.6158ZM1745.93 27.2314C1754.27 27.2314 1760 21.6844 1760 13.6158V0H1732.4V27.2314H1745.93ZM1507.88 40.8472C1507.88 32.7786 1502.15 27.2314 1493.81 27.2314H1479.74V40.8472C1479.74 48.9158 1485.47 54.4628 1493.81 54.4628H1507.88V40.8472ZM1718.33 27.2314C1709.99 27.2314 1704.26 32.7786 1704.26 40.8472V54.4628H1718.33C1726.67 54.4628 1732.4 48.9158 1732.4 40.8472V27.2314H1718.33ZM1536.01 68.0786C1536.01 60.01 1530.28 54.4628 1521.94 54.4628H1507.88V94.8058C1507.88 102.874 1513.61 108.421 1521.94 108.421H1536.01V68.0786ZM1690.2 54.4628C1681.86 54.4628 1676.13 60.01 1676.13 68.0786V108.421H1690.2C1698.53 108.421 1704.26 102.874 1704.26 94.8058V54.4628H1690.2ZM1564.14 122.037C1564.14 113.969 1558.41 108.421 1550.07 108.421H1536.01V122.037C1536.01 130.106 1541.74 135.652 1550.07 135.652H1564.14V122.037ZM1662.06 108.421C1653.73 108.421 1648 113.969 1648 122.037V135.652H1662.06C1670.4 135.652 1676.13 130.106 1676.13 122.037V108.421H1662.06ZM1591.74 149.268C1591.74 141.2 1586.01 135.652 1577.68 135.652H1564.14V176.5C1564.14 184.568 1569.87 190.116 1578.21 190.116H1591.74V149.268ZM1619.88 190.116H1633.93C1642.27 190.116 1648 184.568 1648 176.5V135.652H1633.93C1625.61 135.652 1619.88 141.2 1619.88 149.268V190.116ZM1591.74 353H1619.88V190.116H1591.74V353Z" fill="url(#paint6_linear_151_10069)"/>
</g>
<defs>
<linearGradient id="paint0_linear_151_10069" x1="126.062" y1="-0.898219" x2="126.062" y2="353.898" gradientUnits="userSpaceOnUse">
<stop stop-color="white"/>
<stop offset="1" stop-color="#E7A3FF" stop-opacity="0"/>
</linearGradient>
<linearGradient id="paint1_linear_151_10069" x1="296.967" y1="-0.898219" x2="296.967" y2="353.898" gradientUnits="userSpaceOnUse">
<stop stop-color="white"/>
<stop offset="1" stop-color="#E7A3FF" stop-opacity="0"/>
</linearGradient>
<linearGradient id="paint2_linear_151_10069" x1="462.826" y1="-0.898219" x2="462.826" y2="353.898" gradientUnits="userSpaceOnUse">
<stop stop-color="white"/>
<stop offset="1" stop-color="#E7A3FF" stop-opacity="0"/>
</linearGradient>
<linearGradient id="paint3_linear_151_10069" x1="732.211" y1="-0.690661" x2="732.211" y2="353.898" gradientUnits="userSpaceOnUse">
<stop stop-color="white"/>
<stop offset="1" stop-color="#E7A3FF" stop-opacity="0"/>
</linearGradient>
<linearGradient id="paint4_linear_151_10069" x1="1015.45" y1="-0.898219" x2="1015.45" y2="353.898" gradientUnits="userSpaceOnUse">
<stop stop-color="white"/>
<stop offset="1" stop-color="#E7A3FF" stop-opacity="0"/>
</linearGradient>
<linearGradient id="paint5_linear_151_10069" x1="1324.32" y1="-0.690661" x2="1324.32" y2="353.898" gradientUnits="userSpaceOnUse">
<stop stop-color="white"/>
<stop offset="1" stop-color="#E7A3FF" stop-opacity="0"/>
</linearGradient>
<linearGradient id="paint6_linear_151_10069" x1="1605.81" y1="-0.898219" x2="1605.81" y2="353.898" gradientUnits="userSpaceOnUse">
<stop stop-color="white"/>
<stop offset="1" stop-color="#E7A3FF" stop-opacity="0"/>
</linearGradient>
<clipPath id="clip0_151_10069">
<rect width="1760" height="353" fill="white"/>
</clipPath>
</defs>
</svg>
