<svg viewBox="0 0 3908 350" fill="none" xmlns="http://www.w3.org/2000/svg">
<path d="M53.5 13.5C53.5 9.5 54.6667 6.33333 57 4.00001C59.6667 1.33334 63 0 67 0H175C179 0 182.167 1.33334 184.5 4.00001C187.167 6.33333 188.5 9.5 188.5 13.5V27H53.5V13.5ZM53.5 40.5C53.5 44.5 52.1667 47.8333 49.5 50.5C47.1667 52.8333 44 54 40 54H27V40.5C27 36.5 28.1667 33.3333 30.5 31C33.1667 28.3333 36.5 27 40.5 27H53.5V40.5ZM202 54C198 54 194.667 52.8333 192 50.5C189.667 47.8333 188.5 44.5 188.5 40.5V27H201.5C205.5 27 208.667 28.3333 211 31C213.667 33.3333 215 36.5 215 40.5V54H202ZM0 67.5C0 63.5 1.16667 60.3333 3.5 58C6.16667 55.3333 9.5 54 13.5 54H27V134.5H13.5C9.5 134.5 6.16667 133.333 3.5 131C1.16667 128.333 0 125 0 121V67.5ZM228.5 54C232.5 54 235.667 55.3333 238 58C240.667 60.3333 242 63.5 242 67.5V81H215V54H228.5ZM40.5 161.5C36.5 161.5 33.1667 160.333 30.5 158C28.1667 155.333 27 152 27 148V134.5H40C44 134.5 47.1667 135.833 49.5 138.5C52.1667 140.833 53.5 144 53.5 148V161.5H40.5ZM67 188.5C63 188.5 59.6667 187.333 57 185C54.6667 182.333 53.5 179 53.5 175V161.5H175C179 161.5 182.167 162.833 184.5 165.5C187.167 167.833 188.5 171 188.5 175V188.5H67ZM202 215.5C198 215.5 194.667 214.333 192 212C189.667 209.333 188.5 206 188.5 202V188.5H201.5C205.5 188.5 208.667 189.833 211 192.5C213.667 194.833 215 198 215 202V215.5H202ZM228.5 215.5C232.5 215.5 235.667 216.833 238 219.5C240.667 221.833 242 225 242 229V282.5C242 286.5 240.667 289.833 238 292.5C235.667 294.833 232.5 296 228.5 296H215V215.5H228.5ZM13.5 296C9.5 296 6.16667 294.833 3.5 292.5C1.16667 289.833 0 286.5 0 282.5V242.5H27V296H13.5ZM40.5 323C36.5 323 33.1667 321.833 30.5 319.5C28.1667 316.833 27 313.5 27 309.5V296H40C44 296 47.1667 297.333 49.5 300C52.1667 302.333 53.5 305.5 53.5 309.5V323H40.5ZM215 309.5C215 313.5 213.667 316.833 211 319.5C208.667 321.833 205.5 323 201.5 323H188.5V309.5C188.5 305.5 189.667 302.333 192 300C194.667 297.333 198 296 202 296H215V309.5ZM67 350C63 350 59.6667 348.833 57 346.5C54.6667 343.833 53.5 340.5 53.5 336.5V323H188.5V336.5C188.5 340.5 187.167 343.833 184.5 346.5C182.167 348.833 179 350 175 350H67Z" fill="url(#paint0_linear_907_3622)"/>
<path d="M403.543 13.5C403.543 9.5 404.71 6.33333 407.043 4.00001C409.71 1.33334 413.043 0 417.043 0C421.376 0 424.71 1.33334 427.043 4.00001C429.376 6.33333 430.543 9.5 430.543 13.5V27H403.543V13.5ZM376.543 40.5C376.543 36.5 377.71 33.3333 380.043 31C382.71 28.3333 386.043 27 390.043 27H403.543V67.5C403.543 71.5 402.21 74.8333 399.543 77.5C397.21 79.8333 394.043 81 390.043 81H376.543V40.5ZM443.543 27C447.543 27 450.71 28.3333 453.043 31C455.71 33.3333 457.043 36.5 457.043 40.5V81H444.043C440.043 81 436.71 79.8333 434.043 77.5C431.71 74.8333 430.543 71.5 430.543 67.5V27H443.543ZM349.543 94.5C349.543 90.5 350.71 87.3333 353.043 85C355.71 82.3333 359.043 81 363.043 81H376.543V148C376.543 152 375.21 155.333 372.543 158C370.21 160.333 367.043 161.5 363.043 161.5H349.543V94.5ZM470.543 81C474.543 81 477.71 82.3333 480.043 85C482.71 87.3333 484.043 90.5 484.043 94.5V161.5H470.543C466.543 161.5 463.21 160.333 460.543 158C458.21 155.333 457.043 152 457.043 148V81H470.543ZM322.543 175C322.543 171 323.71 167.833 326.043 165.5C328.71 162.833 332.043 161.5 336.043 161.5H349.543V215.5H322.543V175ZM497.543 161.5C501.543 161.5 504.71 162.833 507.043 165.5C509.71 167.833 511.043 171 511.043 175V215.5H484.043V161.5H497.543ZM295.543 229C295.543 225 296.71 221.833 299.043 219.5C301.71 216.833 305.043 215.5 309.043 215.5H322.543V282.5C322.543 286.5 321.21 289.833 318.543 292.5C316.21 294.833 313.043 296 309.043 296H295.543V229ZM349.543 215.5H484.043V229C484.043 233 482.71 236.333 480.043 239C477.71 241.333 474.543 242.5 470.543 242.5H363.043C359.043 242.5 355.71 241.333 353.043 239C350.71 236.333 349.543 233 349.543 229V215.5ZM511.043 215.5H524.543C528.543 215.5 531.71 216.833 534.043 219.5C536.71 221.833 538.043 225 538.043 229V296H524.543C520.543 296 517.21 294.833 514.543 292.5C512.21 289.833 511.043 286.5 511.043 282.5V215.5ZM269.043 309.5C269.043 305.5 270.21 302.333 272.543 300C275.21 297.333 278.543 296 282.543 296H295.543V350H269.043V309.5ZM551.543 296C555.543 296 558.71 297.333 561.043 300C563.71 302.333 565.043 305.5 565.043 309.5V350H538.043V296H551.543Z" fill="url(#paint1_linear_907_3622)"/>
<path d="M484.863 0H578.863C582.863 0 586.03 1.33334 588.363 4.00001C591.03 6.33333 592.363 9.5 592.363 13.5V27H484.863V0ZM619.363 27V13.5C619.363 9.5 620.53 6.33333 622.863 4.00001C625.53 1.33334 628.863 0 632.863 0H726.863V27H619.363ZM592.363 27H619.363V350H592.363V27Z" fill="url(#paint2_linear_907_3622)"/>
<path d="M753.906 0H780.906V296H767.406C763.406 296 760.073 294.833 757.406 292.5C755.073 289.833 753.906 286.5 753.906 282.5V0ZM968.906 0H995.906V282.5C995.906 286.5 994.573 289.833 991.906 292.5C989.573 294.833 986.406 296 982.406 296H968.906V0ZM807.906 323H942.406V336.5C942.406 340.5 941.073 343.833 938.406 346.5C936.073 348.833 932.906 350 928.906 350H820.906C816.906 350 813.573 348.833 810.906 346.5C808.573 343.833 807.406 340.5 807.406 336.5V323H794.406C790.406 323 787.073 321.833 784.406 319.5C782.073 316.833 780.906 313.5 780.906 309.5V296H794.406C798.406 296 801.573 297.333 803.906 300C806.573 302.333 807.906 305.5 807.906 309.5V323ZM968.906 296V309.5C968.906 313.5 967.573 316.833 964.906 319.5C962.573 321.833 959.406 323 955.406 323H942.406V309.5C942.406 305.5 943.573 302.333 945.906 300C948.573 297.333 951.906 296 955.906 296H968.906Z" fill="url(#paint3_linear_907_3622)"/>
<path d="M1049.95 27V13.5C1049.95 9.5 1051.12 6.33333 1053.45 4.00001C1056.12 1.33334 1059.45 0 1063.45 0H1224.45C1228.45 0 1231.62 1.33334 1233.95 4.00001C1236.62 6.33333 1237.95 9.5 1237.95 13.5V27H1049.95ZM1049.95 188.5H1036.45C1032.45 188.5 1029.12 187.333 1026.45 185C1024.12 182.333 1022.95 179 1022.95 175V40.5C1022.95 36.5 1024.12 33.3333 1026.45 31C1029.12 28.3333 1032.45 27 1036.45 27H1049.95V188.5ZM1237.95 27H1251.45C1255.45 27 1258.62 28.3333 1260.95 31C1263.62 33.3333 1264.95 36.5 1264.95 40.5V54H1251.45C1247.45 54 1244.12 52.8333 1241.45 50.5C1239.12 47.8333 1237.95 44.5 1237.95 40.5V27ZM1264.95 54H1278.45C1282.45 54 1285.62 55.3333 1287.95 58C1290.62 60.3333 1291.95 63.5 1291.95 67.5V148C1291.95 152 1290.62 155.333 1287.95 158C1285.62 160.333 1282.45 161.5 1278.45 161.5H1264.95V54ZM1264.95 161.5V175C1264.95 179 1263.62 182.333 1260.95 185C1258.62 187.333 1255.45 188.5 1251.45 188.5H1237.95V175C1237.95 171 1239.12 167.833 1241.45 165.5C1244.12 162.833 1247.45 161.5 1251.45 161.5H1264.95ZM1049.95 215.5V188.5H1237.95V215.5H1049.95ZM1022.95 350V229C1022.95 225 1024.12 221.833 1026.45 219.5C1029.12 216.833 1032.45 215.5 1036.45 215.5H1049.95V350H1022.95ZM1237.95 215.5H1251.45C1255.45 215.5 1258.62 216.833 1260.95 219.5C1263.62 221.833 1264.95 225 1264.95 229V242.5H1251.45C1247.45 242.5 1244.12 241.333 1241.45 239C1239.12 236.333 1237.95 233 1237.95 229V215.5ZM1264.95 242.5H1278.45C1282.45 242.5 1285.62 243.833 1287.95 246.5C1290.62 248.833 1291.95 252 1291.95 256V350H1264.95V242.5Z" fill="url(#paint4_linear_907_3622)"/>
<path d="M1318.85 0H1345.85V27H1332.35C1328.35 27 1325.01 25.8333 1322.35 23.5C1320.01 20.8333 1318.85 17.5 1318.85 13.5V0ZM1533.85 0H1560.85V255.5C1560.85 259.5 1559.51 262.833 1556.85 265.5C1554.51 267.833 1551.35 269 1547.35 269H1533.85V0ZM1345.85 81V27H1358.85C1362.85 27 1366.01 28.3333 1368.35 31C1371.01 33.3333 1372.35 36.5 1372.35 40.5V81H1345.85ZM1318.85 350V94.5C1318.85 90.5 1320.01 87.3333 1322.35 85C1325.01 82.3333 1328.35 81 1332.35 81H1345.85V350H1318.85ZM1372.35 81H1385.85C1389.85 81 1393.01 82.3333 1395.35 85C1398.01 87.3333 1399.35 90.5 1399.35 94.5V107.5H1385.85C1381.85 107.5 1378.51 106.333 1375.85 104C1373.51 101.333 1372.35 98 1372.35 94V81ZM1399.35 107.5H1412.85C1416.85 107.5 1420.01 108.833 1422.35 111.5C1425.01 113.833 1426.35 117 1426.35 121V161.5H1412.85C1408.85 161.5 1405.51 160.333 1402.85 158C1400.51 155.333 1399.35 152 1399.35 148V107.5ZM1453.35 188.5H1439.85C1435.85 188.5 1432.51 187.333 1429.85 185C1427.51 182.333 1426.35 179 1426.35 175V161.5H1439.85C1443.85 161.5 1447.01 162.833 1449.35 165.5C1452.01 167.833 1453.35 171 1453.35 175V188.5ZM1480.35 215.5H1466.85C1462.85 215.5 1459.51 214.333 1456.85 212C1454.51 209.333 1453.35 206 1453.35 202V188.5H1466.85C1470.85 188.5 1474.01 189.833 1476.35 192.5C1479.01 194.833 1480.35 198 1480.35 202V215.5ZM1507.35 269H1493.85C1489.85 269 1486.51 267.833 1483.85 265.5C1481.51 262.833 1480.35 259.5 1480.35 255.5V215.5H1493.85C1497.85 215.5 1501.01 216.833 1503.35 219.5C1506.01 221.833 1507.35 225 1507.35 229V269ZM1533.85 269V323H1520.85C1516.85 323 1513.51 321.833 1510.85 319.5C1508.51 316.833 1507.35 313.5 1507.35 309.5V269H1533.85ZM1560.85 350H1533.85V323H1547.35C1551.35 323 1554.51 324.333 1556.85 327C1559.51 329.333 1560.85 332.5 1560.85 336.5V350Z" fill="url(#paint5_linear_907_3622)"/>
<path d="M1744.29 235.5V196.5H1865.29V235.5H1744.29Z" fill="url(#paint6_linear_907_3622)"/>
<path d="M2102.33 13.5C2102.33 9.5 2103.49 6.33333 2105.83 4.00001C2108.49 1.33334 2111.83 0 2115.83 0H2250.33C2254.33 0 2257.49 1.33334 2259.83 4.00001C2262.49 6.33333 2263.83 9.5 2263.83 13.5V27H2102.33V13.5ZM2102.33 67.5C2102.33 71.5 2100.99 74.8333 2098.33 77.5C2095.99 79.8333 2092.83 81 2088.83 81H2075.33V40.5C2075.33 36.5 2076.49 33.3333 2078.83 31C2081.49 28.3333 2084.83 27 2088.83 27H2102.33V67.5ZM2277.33 27C2281.33 27 2284.49 28.3333 2286.83 31C2289.49 33.3333 2290.83 36.5 2290.83 40.5V81H2277.33C2273.33 81 2269.99 79.8333 2267.33 77.5C2264.99 74.8333 2263.83 71.5 2263.83 67.5V27H2277.33ZM2048.83 94.5C2048.83 90.5 2049.99 87.3333 2052.33 85C2054.99 82.3333 2058.33 81 2062.33 81H2075.33V269H2062.33C2058.33 269 2054.99 267.833 2052.33 265.5C2049.99 262.833 2048.83 259.5 2048.83 255.5V94.5ZM2304.33 81C2308.33 81 2311.49 82.3333 2313.83 85C2316.49 87.3333 2317.83 90.5 2317.83 94.5V134.5H2290.83V81H2304.33ZM2290.83 215.5H2317.83V255.5C2317.83 259.5 2316.49 262.833 2313.83 265.5C2311.49 267.833 2308.33 269 2304.33 269H2290.83V215.5ZM2088.83 269C2092.83 269 2095.99 270.333 2098.33 273C2100.99 275.333 2102.33 278.5 2102.33 282.5V323H2088.83C2084.83 323 2081.49 321.833 2078.83 319.5C2076.49 316.833 2075.33 313.5 2075.33 309.5V269H2088.83ZM2263.83 282.5C2263.83 278.5 2264.99 275.333 2267.33 273C2269.99 270.333 2273.33 269 2277.33 269H2290.83V309.5C2290.83 313.5 2289.49 316.833 2286.83 319.5C2284.49 321.833 2281.33 323 2277.33 323H2263.83V282.5ZM2115.83 350C2111.83 350 2108.49 348.833 2105.83 346.5C2103.49 343.833 2102.33 340.5 2102.33 336.5V323H2263.83V336.5C2263.83 340.5 2262.49 343.833 2259.83 346.5C2257.49 348.833 2254.33 350 2250.33 350H2115.83Z" fill="url(#paint7_linear_907_3622)"/>
<path d="M2344.73 0H2371.23V161.5H2358.23C2354.23 161.5 2350.89 160.333 2348.23 158C2345.89 155.333 2344.73 152 2344.73 148V0ZM2559.73 0H2586.73V148C2586.73 152 2585.39 155.333 2582.73 158C2580.39 160.333 2577.23 161.5 2573.23 161.5H2559.73V0ZM2371.23 188.5V161.5H2559.73V188.5H2371.23ZM2344.73 350V202C2344.73 198 2345.89 194.833 2348.23 192.5C2350.89 189.833 2354.23 188.5 2358.23 188.5H2371.23V350H2344.73ZM2559.73 188.5H2573.23C2577.23 188.5 2580.39 189.833 2582.73 192.5C2585.39 194.833 2586.73 198 2586.73 202V350H2559.73V188.5Z" fill="url(#paint8_linear_907_3622)"/>
<path d="M2748.27 13.5C2748.27 9.5 2749.44 6.33333 2751.77 4.00001C2754.44 1.33334 2757.77 0 2761.77 0C2766.1 0 2769.44 1.33334 2771.77 4.00001C2774.1 6.33333 2775.27 9.5 2775.27 13.5V27H2748.27V13.5ZM2721.27 40.5C2721.27 36.5 2722.44 33.3333 2724.77 31C2727.44 28.3333 2730.77 27 2734.77 27H2748.27V67.5C2748.27 71.5 2746.94 74.8333 2744.27 77.5C2741.94 79.8333 2738.77 81 2734.77 81H2721.27V40.5ZM2788.27 27C2792.27 27 2795.44 28.3333 2797.77 31C2800.44 33.3333 2801.77 36.5 2801.77 40.5V81H2788.77C2784.77 81 2781.44 79.8333 2778.77 77.5C2776.44 74.8333 2775.27 71.5 2775.27 67.5V27H2788.27ZM2694.27 94.5C2694.27 90.5 2695.44 87.3333 2697.77 85C2700.44 82.3333 2703.77 81 2707.77 81H2721.27V148C2721.27 152 2719.94 155.333 2717.27 158C2714.94 160.333 2711.77 161.5 2707.77 161.5H2694.27V94.5ZM2815.27 81C2819.27 81 2822.44 82.3333 2824.77 85C2827.44 87.3333 2828.77 90.5 2828.77 94.5V161.5H2815.27C2811.27 161.5 2807.94 160.333 2805.27 158C2802.94 155.333 2801.77 152 2801.77 148V81H2815.27ZM2667.27 175C2667.27 171 2668.44 167.833 2670.77 165.5C2673.44 162.833 2676.77 161.5 2680.77 161.5H2694.27V215.5H2667.27V175ZM2842.27 161.5C2846.27 161.5 2849.44 162.833 2851.77 165.5C2854.44 167.833 2855.77 171 2855.77 175V215.5H2828.77V161.5H2842.27ZM2640.27 229C2640.27 225 2641.44 221.833 2643.77 219.5C2646.44 216.833 2649.77 215.5 2653.77 215.5H2667.27V282.5C2667.27 286.5 2665.94 289.833 2663.27 292.5C2660.94 294.833 2657.77 296 2653.77 296H2640.27V229ZM2694.27 215.5H2828.77V229C2828.77 233 2827.44 236.333 2824.77 239C2822.44 241.333 2819.27 242.5 2815.27 242.5H2707.77C2703.77 242.5 2700.44 241.333 2697.77 239C2695.44 236.333 2694.27 233 2694.27 229V215.5ZM2855.77 215.5H2869.27C2873.27 215.5 2876.44 216.833 2878.77 219.5C2881.44 221.833 2882.77 225 2882.77 229V296H2869.27C2865.27 296 2861.94 294.833 2859.27 292.5C2856.94 289.833 2855.77 286.5 2855.77 282.5V215.5ZM2613.77 309.5C2613.77 305.5 2614.94 302.333 2617.27 300C2619.94 297.333 2623.27 296 2627.27 296H2640.27V350H2613.77V309.5ZM2896.27 296C2900.27 296 2903.44 297.333 2905.77 300C2908.44 302.333 2909.77 305.5 2909.77 309.5V350H2882.77V296H2896.27Z" fill="url(#paint9_linear_907_3622)"/>
<path d="M2829.59 0H2923.59C2927.59 0 2930.76 1.33334 2933.09 4.00001C2935.76 6.33333 2937.09 9.5 2937.09 13.5V27H2829.59V0ZM2964.09 27V13.5C2964.09 9.5 2965.26 6.33333 2967.59 4.00001C2970.26 1.33334 2973.59 0 2977.59 0H3071.59V27H2964.09ZM2937.09 27H2964.09V350H2937.09V27Z" fill="url(#paint10_linear_907_3622)"/>
<path d="M3125.63 27V13.5C3125.63 9.5 3126.8 6.33333 3129.13 4.00001C3131.8 1.33334 3135.13 0 3139.13 0H3273.63C3277.63 0 3280.8 1.33334 3283.13 4.00001C3285.8 6.33333 3287.13 9.5 3287.13 13.5V27H3125.63ZM3125.63 161.5H3112.13C3108.13 161.5 3104.8 160.333 3102.13 158C3099.8 155.333 3098.63 152 3098.63 148V40.5C3098.63 36.5 3099.8 33.3333 3102.13 31C3104.8 28.3333 3108.13 27 3112.13 27H3125.63V161.5ZM3287.13 27H3300.63C3304.63 27 3307.8 28.3333 3310.13 31C3312.8 33.3333 3314.13 36.5 3314.13 40.5V54H3300.63C3296.63 54 3293.3 52.8333 3290.63 50.5C3288.3 47.8333 3287.13 44.5 3287.13 40.5V27ZM3314.13 54H3327.63C3331.63 54 3334.8 55.3333 3337.13 58C3339.8 60.3333 3341.13 63.5 3341.13 67.5V121C3341.13 125 3339.8 128.333 3337.13 131C3334.8 133.333 3331.63 134.5 3327.63 134.5H3314.13V54ZM3314.13 134.5V148C3314.13 152 3312.8 155.333 3310.13 158C3307.8 160.333 3304.63 161.5 3300.63 161.5H3287.13V148C3287.13 144 3288.3 140.833 3290.63 138.5C3293.3 135.833 3296.63 134.5 3300.63 134.5H3314.13ZM3125.63 188.5V161.5H3287.13V188.5H3125.63ZM3125.63 323H3112.13C3108.13 323 3104.8 321.833 3102.13 319.5C3099.8 316.833 3098.63 313.5 3098.63 309.5V202C3098.63 198 3099.8 194.833 3102.13 192.5C3104.8 189.833 3108.13 188.5 3112.13 188.5H3125.63V323ZM3287.13 188.5H3327.63C3331.63 188.5 3334.8 189.833 3337.13 192.5C3339.8 194.833 3341.13 198 3341.13 202V215.5H3300.63C3296.63 215.5 3293.3 214.333 3290.63 212C3288.3 209.333 3287.13 206 3287.13 202V188.5ZM3341.13 215.5H3354.63C3358.63 215.5 3361.8 216.833 3364.13 219.5C3366.8 221.833 3368.13 225 3368.13 229V282.5C3368.13 286.5 3366.8 289.833 3364.13 292.5C3361.8 294.833 3358.63 296 3354.63 296H3341.13V215.5ZM3341.13 296V309.5C3341.13 313.5 3339.8 316.833 3337.13 319.5C3334.8 321.833 3331.63 323 3327.63 323H3314.13V309.5C3314.13 305.5 3315.3 302.333 3317.63 300C3320.3 297.333 3323.63 296 3327.63 296H3341.13ZM3125.63 323H3314.13V336.5C3314.13 340.5 3312.8 343.833 3310.13 346.5C3307.8 348.833 3304.63 350 3300.63 350H3139.13C3135.13 350 3131.8 348.833 3129.13 346.5C3126.8 343.833 3125.63 340.5 3125.63 336.5V323Z" fill="url(#paint11_linear_907_3622)"/>
<path d="M3476.02 13.5C3476.02 9.5 3477.19 6.33333 3479.52 4.00001C3482.19 1.33334 3485.52 0 3489.52 0H3597.02C3601.02 0 3604.19 1.33334 3606.52 4.00001C3609.19 6.33333 3610.52 9.5 3610.52 13.5V27H3476.02V13.5ZM3476.02 40.5C3476.02 44.5 3474.69 47.8333 3472.02 50.5C3469.69 52.8333 3466.52 54 3462.52 54H3449.02V40.5C3449.02 36.5 3450.19 33.3333 3452.52 31C3455.19 28.3333 3458.52 27 3462.52 27H3476.02V40.5ZM3624.02 54C3620.02 54 3616.69 52.8333 3614.02 50.5C3611.69 47.8333 3610.52 44.5 3610.52 40.5V27H3623.52C3627.52 27 3630.69 28.3333 3633.02 31C3635.69 33.3333 3637.02 36.5 3637.02 40.5V54H3624.02ZM3422.02 67.5C3422.02 63.5 3423.19 60.3333 3425.52 58C3428.19 55.3333 3431.52 54 3435.52 54H3449.02V94C3449.02 98 3447.69 101.333 3445.02 104C3442.69 106.333 3439.52 107.5 3435.52 107.5H3422.02V67.5ZM3650.52 54C3654.52 54 3657.69 55.3333 3660.02 58C3662.69 60.3333 3664.02 63.5 3664.02 67.5V107.5H3650.52C3646.52 107.5 3643.19 106.333 3640.52 104C3638.19 101.333 3637.02 98 3637.02 94V54H3650.52ZM3395.02 121C3395.02 117 3396.19 113.833 3398.52 111.5C3401.19 108.833 3404.52 107.5 3408.52 107.5H3422.02V242.5H3408.52C3404.52 242.5 3401.19 241.333 3398.52 239C3396.19 236.333 3395.02 233 3395.02 229V121ZM3677.52 107.5C3681.52 107.5 3684.69 108.833 3687.02 111.5C3689.69 113.833 3691.02 117 3691.02 121V229C3691.02 233 3689.69 236.333 3687.02 239C3684.69 241.333 3681.52 242.5 3677.52 242.5H3664.02V107.5H3677.52ZM3637.02 256C3637.02 252 3638.19 248.833 3640.52 246.5C3643.19 243.833 3646.52 242.5 3650.52 242.5H3664.02V282.5C3664.02 286.5 3662.69 289.833 3660.02 292.5C3657.69 294.833 3654.52 296 3650.52 296H3637.02V256ZM3435.52 242.5C3439.52 242.5 3442.69 243.833 3445.02 246.5C3447.69 248.833 3449.02 252 3449.02 256V296H3435.52C3431.52 296 3428.19 294.833 3425.52 292.5C3423.19 289.833 3422.02 286.5 3422.02 282.5V242.5H3435.52ZM3637.02 309.5C3637.02 313.5 3635.69 316.833 3633.02 319.5C3630.69 321.833 3627.52 323 3623.52 323H3610.52V309.5C3610.52 305.5 3611.69 302.333 3614.02 300C3616.69 297.333 3620.02 296 3624.02 296H3637.02V309.5ZM3462.52 323C3458.52 323 3455.19 321.833 3452.52 319.5C3450.19 316.833 3449.02 313.5 3449.02 309.5V296H3462.52C3466.52 296 3469.69 297.333 3472.02 300C3474.69 302.333 3476.02 305.5 3476.02 309.5V323H3462.52ZM3489.52 350C3485.52 350 3482.19 348.833 3479.52 346.5C3477.19 343.833 3476.02 340.5 3476.02 336.5V323H3610.52V336.5C3610.52 340.5 3609.19 343.833 3606.52 346.5C3604.19 348.833 3601.02 350 3597.02 350H3489.52Z" fill="url(#paint12_linear_907_3622)"/>
<path d="M3665.53 0H3759.53C3763.53 0 3766.69 1.33334 3769.03 4.00001C3771.69 6.33333 3773.03 9.5 3773.03 13.5V27H3665.53V0ZM3800.03 27V13.5C3800.03 9.5 3801.19 6.33333 3803.53 4.00001C3806.19 1.33334 3809.53 0 3813.53 0H3907.53V27H3800.03ZM3773.03 27H3800.03V350H3773.03V27Z" fill="url(#paint13_linear_907_3622)"/>
<defs>
<linearGradient id="paint0_linear_907_3622" x1="1953.77" y1="-0.890585" x2="1953.77" y2="350.891" gradientUnits="userSpaceOnUse">
<stop stop-color="white"/>
<stop offset="1" stop-color="#E7A3FF" stop-opacity="0"/>
</linearGradient>
<linearGradient id="paint1_linear_907_3622" x1="1953.77" y1="-0.890585" x2="1953.77" y2="350.891" gradientUnits="userSpaceOnUse">
<stop stop-color="white"/>
<stop offset="1" stop-color="#E7A3FF" stop-opacity="0"/>
</linearGradient>
<linearGradient id="paint2_linear_907_3622" x1="1953.77" y1="-0.890585" x2="1953.77" y2="350.891" gradientUnits="userSpaceOnUse">
<stop stop-color="white"/>
<stop offset="1" stop-color="#E7A3FF" stop-opacity="0"/>
</linearGradient>
<linearGradient id="paint3_linear_907_3622" x1="1953.77" y1="-0.890585" x2="1953.77" y2="350.891" gradientUnits="userSpaceOnUse">
<stop stop-color="white"/>
<stop offset="1" stop-color="#E7A3FF" stop-opacity="0"/>
</linearGradient>
<linearGradient id="paint4_linear_907_3622" x1="1953.77" y1="-0.890585" x2="1953.77" y2="350.891" gradientUnits="userSpaceOnUse">
<stop stop-color="white"/>
<stop offset="1" stop-color="#E7A3FF" stop-opacity="0"/>
</linearGradient>
<linearGradient id="paint5_linear_907_3622" x1="1953.77" y1="-0.890585" x2="1953.77" y2="350.891" gradientUnits="userSpaceOnUse">
<stop stop-color="white"/>
<stop offset="1" stop-color="#E7A3FF" stop-opacity="0"/>
</linearGradient>
<linearGradient id="paint6_linear_907_3622" x1="1953.77" y1="-0.890585" x2="1953.77" y2="350.891" gradientUnits="userSpaceOnUse">
<stop stop-color="white"/>
<stop offset="1" stop-color="#E7A3FF" stop-opacity="0"/>
</linearGradient>
<linearGradient id="paint7_linear_907_3622" x1="1953.77" y1="-0.890585" x2="1953.77" y2="350.891" gradientUnits="userSpaceOnUse">
<stop stop-color="white"/>
<stop offset="1" stop-color="#E7A3FF" stop-opacity="0"/>
</linearGradient>
<linearGradient id="paint8_linear_907_3622" x1="1953.77" y1="-0.890585" x2="1953.77" y2="350.891" gradientUnits="userSpaceOnUse">
<stop stop-color="white"/>
<stop offset="1" stop-color="#E7A3FF" stop-opacity="0"/>
</linearGradient>
<linearGradient id="paint9_linear_907_3622" x1="1953.77" y1="-0.890585" x2="1953.77" y2="350.891" gradientUnits="userSpaceOnUse">
<stop stop-color="white"/>
<stop offset="1" stop-color="#E7A3FF" stop-opacity="0"/>
</linearGradient>
<linearGradient id="paint10_linear_907_3622" x1="1953.77" y1="-0.890585" x2="1953.77" y2="350.891" gradientUnits="userSpaceOnUse">
<stop stop-color="white"/>
<stop offset="1" stop-color="#E7A3FF" stop-opacity="0"/>
</linearGradient>
<linearGradient id="paint11_linear_907_3622" x1="1953.77" y1="-0.890585" x2="1953.77" y2="350.891" gradientUnits="userSpaceOnUse">
<stop stop-color="white"/>
<stop offset="1" stop-color="#E7A3FF" stop-opacity="0"/>
</linearGradient>
<linearGradient id="paint12_linear_907_3622" x1="1953.77" y1="-0.890585" x2="1953.77" y2="350.891" gradientUnits="userSpaceOnUse">
<stop stop-color="white"/>
<stop offset="1" stop-color="#E7A3FF" stop-opacity="0"/>
</linearGradient>
<linearGradient id="paint13_linear_907_3622" x1="1953.77" y1="-0.890585" x2="1953.77" y2="350.891" gradientUnits="userSpaceOnUse">
<stop stop-color="white"/>
<stop offset="1" stop-color="#E7A3FF" stop-opacity="0"/>
</linearGradient>
</defs>
</svg>
