<svg viewBox="0 0 1794 261" fill="none" xmlns="http://www.w3.org/2000/svg">
<mask id="path-1-inside-1_151_188" fill="white">
<path d="M0 0.746094H101V101.746H0V0.746094Z"/>
</mask>
<path d="M0 0.746094V-0.253906H-1V0.746094H0ZM0 1.74609H101V-0.253906H0V1.74609ZM1 101.746V0.746094H-1V101.746H1Z" fill="white" mask="url(#path-1-inside-1_151_188)"/>
<mask id="path-3-inside-2_151_188" fill="white">
<path d="M1693 0.746094H1794V101.746H1693V0.746094Z"/>
</mask>
<path d="M1794 0.746094H1795V-0.253906H1794V0.746094ZM1693 1.74609H1794V-0.253906H1693V1.74609ZM1793 0.746094V101.746H1795V0.746094H1793Z" fill="white" mask="url(#path-3-inside-2_151_188)"/>
<g clip-path="url(#clip0_151_188)">
<g clip-path="url(#clip1_151_188)">
<g clip-path="url(#clip2_151_188)">
<path d="M214.33 342.965C348.901 342.965 433.455 248.289 433.455 120.863C433.455 -6.56248 348.901 -101.834 214.33 -101.834C79.759 -101.834 -5.38989 -6.56248 -5.38989 120.863C-5.38989 248.289 79.759 342.965 214.33 342.965ZM214.33 319.147C97.6264 319.147 24.3825 229.83 24.3825 120.863C24.3825 11.3009 97.6225 -78.0161 214.33 -78.0161C330.437 -78.0161 403.682 11.3009 403.682 120.863C403.682 229.83 330.446 319.147 214.33 319.147ZM286.379 82.7576H328.06C322.106 30.3582 280.425 -13.1094 213.139 -13.1094C135.731 -13.1094 94.0498 42.8626 94.0498 120.866C94.0498 199.465 138.113 254.246 217.903 254.246C283.997 254.246 324.488 210.779 328.06 157.784H286.379C283.993 174.456 270.302 212.565 214.926 212.565C152.404 212.565 135.731 167.906 135.731 120.866C135.731 73.2304 152.404 28.5719 214.926 28.5719C270.305 28.5689 283.997 68.4639 286.379 82.7546V82.7576ZM535.276 66.0851C535.276 9.51759 556.712 -38.7136 628.761 -38.7136C691.879 -38.7136 707.36 2.96765 707.36 37.5036C707.36 97.6447 669.252 111.934 592.439 156.593C516.817 200.653 469.777 259.007 469.777 333.438H754.996V285.802H534.681V284.609C560.285 186.36 760.95 178.024 760.95 36.9032C760.95 -41.6958 700.213 -86.3544 629.952 -86.3544C528.131 -86.3544 481.686 -19.0688 481.686 66.0801L535.276 66.0851ZM966.975 341.774C1079.51 341.774 1125.36 244.716 1125.36 128.009C1125.36 11.3009 1079.51 -86.3524 966.975 -86.3524C854.436 -86.3524 808.586 11.3009 808.586 128.009C808.586 244.716 854.436 341.774 966.975 341.774ZM966.975 294.138C888.376 294.138 862.174 215.541 862.174 128.009C862.174 40.4759 888.373 -38.7166 966.972 -38.7166C1045.57 -38.7166 1071.77 40.4778 1071.77 128.009C1071.77 215.539 1045.58 294.138 966.975 294.138ZM1232.54 66.0821C1232.54 9.51461 1253.98 -38.7166 1326.03 -38.7166C1389.15 -38.7166 1404.63 2.96468 1404.63 37.5006C1404.63 97.6418 1366.52 111.932 1289.71 156.59C1214.09 200.653 1167.05 259.007 1167.05 333.438H1452.26V285.802H1231.95V284.609C1257.55 186.36 1458.22 178.024 1458.22 36.9032C1458.22 -41.6958 1397.48 -86.3544 1327.22 -86.3544C1225.4 -86.3544 1178.95 -19.0688 1178.95 66.0801L1232.54 66.0821ZM1554.68 45.2414C1554.68 4.75104 1571.95 -38.7166 1652.33 -38.7166C1708.31 -38.7166 1730.93 -5.96701 1730.93 27.378C1730.93 75.0138 1698.78 94.6635 1656.5 94.6635H1614.82V142.299H1658.88C1698.78 142.299 1745.82 153.613 1745.82 217.921C1745.82 267.343 1720.22 294.138 1649.36 294.138C1571.35 294.138 1543.96 253.648 1543.96 194.103H1490.37C1490.37 286.993 1548.73 341.774 1653.53 341.774C1741.65 341.774 1799.41 298.902 1799.41 217.921C1799.41 169.69 1779.76 132.177 1721.41 116.1V114.907C1763.09 98.2342 1784.52 70.8437 1784.52 27.376C1784.52 -45.2685 1722.59 -86.3544 1652.33 -86.3544C1550.51 -86.3544 1501.09 -30.3823 1501.09 45.2394L1554.68 45.2414Z" fill="white"/>
</g>
</g>
</g>
<mask id="path-6-inside-3_151_188" fill="white">
<path d="M0 158.557H101V259.557H0V158.557Z"/>
</mask>
<path d="M0 259.557H-1V260.557H0V259.557ZM101 258.557H0V260.557H101V258.557ZM1 259.557V158.557H-1V259.557H1Z" fill="white" mask="url(#path-6-inside-3_151_188)"/>
<mask id="path-8-inside-4_151_188" fill="white">
<path d="M1693 158.557H1794V259.557H1693V158.557Z"/>
</mask>
<path d="M1794 259.557V260.557H1795V259.557H1794ZM1793 158.557V259.557H1795V158.557H1793ZM1794 258.557H1693V260.557H1794V258.557Z" fill="white" mask="url(#path-8-inside-4_151_188)"/>
<defs>
<clipPath id="clip0_151_188">
<rect width="1764" height="228.81" fill="white" transform="translate(15 15.7461)"/>
</clipPath>
<clipPath id="clip1_151_188">
<rect width="1804.8" height="444.8" fill="white" transform="translate(-5.38989 -101.834)"/>
</clipPath>
<clipPath id="clip2_151_188">
<rect width="1804.8" height="444.799" fill="white" transform="translate(-5.38989 -101.834)"/>
</clipPath>
</defs>
</svg>
