<svg viewBox="0 0 1000 240" fill="none" xmlns="http://www.w3.org/2000/svg">
<path d="M258.124 9.25714C258.124 6.51428 258.924 4.34286 260.524 2.74286C262.353 0.914289 264.639 0 267.382 0C270.354 0 272.641 0.914289 274.241 2.74286C275.841 4.34286 276.641 6.51428 276.641 9.25714V18.5143H258.124V9.25714ZM239.606 27.7714C239.606 25.0286 240.406 22.8571 242.007 21.2572C243.836 19.4286 246.122 18.5143 248.865 18.5143H258.124V46.2857C258.124 49.0286 257.209 51.3143 255.38 53.1429C253.78 54.7429 251.608 55.5429 248.865 55.5429H239.606V27.7714ZM285.557 18.5143C288.3 18.5143 290.472 19.4286 292.072 21.2572C293.901 22.8571 294.816 25.0286 294.816 27.7714V55.5429H285.9C283.157 55.5429 280.87 54.7429 279.042 53.1429C277.441 51.3143 276.641 49.0286 276.641 46.2857V18.5143H285.557ZM221.089 64.8C221.089 62.0571 221.889 59.8857 223.489 58.2857C225.318 56.4571 227.604 55.5429 230.348 55.5429H239.606V101.486C239.606 104.229 238.692 106.514 236.863 108.343C235.263 109.943 233.091 110.743 230.348 110.743H221.089V64.8ZM304.074 55.5429C306.818 55.5429 308.99 56.4571 310.59 58.2857C312.419 59.8857 313.333 62.0571 313.333 64.8V110.743H304.074C301.331 110.743 299.045 109.943 297.216 108.343C295.616 106.514 294.816 104.229 294.816 101.486V55.5429H304.074ZM202.571 120C202.571 117.257 203.372 115.086 204.972 113.486C206.801 111.657 209.087 110.743 211.83 110.743H221.089V147.771H202.571V120ZM322.592 110.743C325.335 110.743 327.507 111.657 329.107 113.486C330.936 115.086 331.851 117.257 331.851 120V147.771H313.333V110.743H322.592ZM184.054 157.029C184.054 154.286 184.854 152.114 186.454 150.514C188.283 148.686 190.569 147.771 193.313 147.771H202.571V193.714C202.571 196.457 201.657 198.743 199.828 200.571C198.228 202.171 196.056 202.971 193.313 202.971H184.054V157.029ZM221.089 147.771H313.333V157.029C313.333 159.771 312.419 162.057 310.59 163.886C308.99 165.486 306.818 166.286 304.074 166.286H230.348C227.604 166.286 225.318 165.486 223.489 163.886C221.889 162.057 221.089 159.771 221.089 157.029V147.771ZM331.851 147.771H341.109C343.853 147.771 346.024 148.686 347.625 150.514C349.454 152.114 350.368 154.286 350.368 157.029V202.971H341.109C338.366 202.971 336.08 202.171 334.251 200.571C332.651 198.743 331.851 196.457 331.851 193.714V147.771ZM165.879 212.229C165.879 209.486 166.68 207.314 168.28 205.714C170.109 203.886 172.395 202.971 175.138 202.971H184.054V240H165.879V212.229ZM359.627 202.971C362.37 202.971 364.542 203.886 366.142 205.714C367.971 207.314 368.886 209.486 368.886 212.229V240H350.368V202.971H359.627Z" fill="#572B7A"/>
<path d="M387.102 0H405.62V240H387.102V0Z" fill="#572B7A"/>
<path d="M9.52416 96.0668C6.86459 96.0668 4.64827 95.2876 2.87522 93.7291C1.3238 91.948 0.548096 89.7217 0.548096 87.0501V60H18.1678V96.0668H9.52416ZM125.548 87.0501C125.548 89.7217 124.662 91.948 122.889 93.7291C121.337 95.2876 119.232 96.0668 116.572 96.0668H107.928V60H125.548V87.0501ZM27.1438 114.1C24.4843 114.1 22.268 113.321 20.4949 111.763C18.9435 109.981 18.1678 107.755 18.1678 105.083V96.0668H27.1438C29.8034 96.0668 31.9089 96.9573 33.4603 98.7384C35.2334 100.297 36.1199 102.412 36.1199 105.083V114.1H27.1438ZM107.928 105.083C107.928 107.755 107.042 109.981 105.269 111.763C103.717 113.321 101.612 114.1 98.9524 114.1H89.9763V105.083C89.9763 102.412 90.752 100.297 92.3034 98.7384C94.0765 96.9573 96.2928 96.0668 98.9524 96.0668H107.928V105.083ZM45.096 132.134C42.4364 132.134 40.2201 131.354 38.447 129.796C36.8956 128.015 36.1199 125.788 36.1199 123.117V114.1H45.096C47.7555 114.1 49.861 114.991 51.4125 116.772C53.1855 118.33 54.072 120.445 54.072 123.117V132.134H45.096ZM89.9763 123.117C89.9763 125.788 89.0898 128.015 87.3167 129.796C85.7653 131.354 83.6598 132.134 81.0002 132.134H72.0242V123.117C72.0242 120.445 72.7999 118.33 74.3513 116.772C76.1243 114.991 78.3406 114.1 81.0002 114.1H89.9763V123.117ZM72.0242 150.167H54.072V132.134H72.0242V150.167ZM54.072 158.85C54.072 161.521 53.1855 163.748 51.4125 165.529C49.861 167.087 47.7555 167.866 45.096 167.866H36.1199V159.184C36.1199 156.512 36.8956 154.397 38.447 152.839C40.2201 151.058 42.4364 150.167 45.096 150.167H54.072V158.85ZM81.0002 167.866C78.3406 167.866 76.1243 167.087 74.3513 165.529C72.7999 163.748 72.0242 161.521 72.0242 158.85V150.167H81.0002C83.6598 150.167 85.7653 151.058 87.3167 152.839C89.0898 154.397 89.9763 156.512 89.9763 159.184V167.866H81.0002ZM36.1199 176.883C36.1199 179.555 35.2334 181.781 33.4603 183.562C31.9089 185.121 29.8034 185.9 27.1438 185.9H18.1678V176.883C18.1678 174.211 18.9435 172.096 20.4949 170.538C22.268 168.757 24.4843 167.866 27.1438 167.866H36.1199V176.883ZM98.9524 185.9C96.2928 185.9 94.0765 185.121 92.3034 183.562C90.752 181.781 89.9763 179.555 89.9763 176.883V167.866H98.9524C101.612 167.866 103.717 168.757 105.269 170.538C107.042 172.096 107.928 174.211 107.928 176.883V185.9H98.9524ZM0.548096 194.917C0.548096 192.245 1.3238 190.13 2.87522 188.571C4.64827 186.79 6.86459 185.9 9.52416 185.9H18.1678V240H0.548096V194.917ZM116.572 185.9C119.232 185.9 121.337 186.79 122.889 188.571C124.662 190.13 125.548 192.245 125.548 194.917V240H107.928V185.9H116.572Z" fill="#572B7A"/>
<path d="M464.137 18.5143V9.25714C464.137 6.51428 464.938 4.34286 466.538 2.74286C468.367 0.914289 470.653 0 473.396 0H565.64C568.384 0 570.556 0.914289 572.156 2.74286C573.985 4.34286 574.899 6.51428 574.899 9.25714V18.5143H464.137ZM464.137 110.743H454.879C452.135 110.743 449.849 109.943 448.02 108.343C446.42 106.514 445.62 104.229 445.62 101.486V27.7714C445.62 25.0286 446.42 22.8571 448.02 21.2572C449.849 19.4286 452.135 18.5143 454.879 18.5143H464.137V110.743ZM574.899 18.5143H584.158C586.901 18.5143 589.073 19.4286 590.673 21.2572C592.502 22.8571 593.417 25.0286 593.417 27.7714V37.0286H584.158C581.415 37.0286 579.128 36.2286 577.3 34.6286C575.699 32.8 574.899 30.5143 574.899 27.7714V18.5143ZM593.417 37.0286H602.675C605.419 37.0286 607.59 37.9429 609.191 39.7714C611.02 41.3714 611.934 43.5429 611.934 46.2857V82.9714C611.934 85.7143 611.02 88 609.191 89.8286C607.59 91.4286 605.419 92.2286 602.675 92.2286H593.417V37.0286ZM593.417 92.2286V101.486C593.417 104.229 592.502 106.514 590.673 108.343C589.073 109.943 586.901 110.743 584.158 110.743H574.899V101.486C574.899 98.7429 575.699 96.5714 577.3 94.9714C579.128 93.1429 581.415 92.2286 584.158 92.2286H593.417ZM464.137 129.257V110.743H574.899V129.257H464.137ZM464.137 221.486H454.879C452.135 221.486 449.849 220.686 448.02 219.086C446.42 217.257 445.62 214.971 445.62 212.229V138.514C445.62 135.771 446.42 133.6 448.02 132C449.849 130.171 452.135 129.257 454.879 129.257H464.137V221.486ZM574.899 129.257H602.675C605.419 129.257 607.59 130.171 609.191 132C611.02 133.6 611.934 135.771 611.934 138.514V147.771H584.158C581.415 147.771 579.128 146.971 577.3 145.371C575.699 143.543 574.899 141.257 574.899 138.514V129.257ZM611.934 147.771H621.193C623.936 147.771 626.108 148.686 627.708 150.514C629.537 152.114 630.451 154.286 630.451 157.029V193.714C630.451 196.457 629.537 198.743 627.708 200.571C626.108 202.171 623.936 202.971 621.193 202.971H611.934V147.771ZM611.934 202.971V212.229C611.934 214.971 611.02 217.257 609.191 219.086C607.59 220.686 605.419 221.486 602.675 221.486H593.417V212.229C593.417 209.486 594.217 207.314 595.817 205.714C597.646 203.886 599.932 202.971 602.675 202.971H611.934ZM464.137 221.486H593.417V230.743C593.417 233.486 592.502 235.771 590.673 237.6C589.073 239.2 586.901 240 584.158 240H473.396C470.653 240 468.367 239.2 466.538 237.6C464.938 235.771 464.137 233.486 464.137 230.743V221.486Z" fill="#572B7A"/>
<path d="M703.977 9.25714C703.977 6.51428 704.777 4.34286 706.377 2.74286C708.206 0.914289 710.492 0 713.236 0H786.962C789.706 0 791.878 0.914289 793.478 2.74286C795.307 4.34286 796.221 6.51428 796.221 9.25714V18.5143H703.977V9.25714ZM703.977 27.7714C703.977 30.5143 703.062 32.8 701.234 34.6286C699.633 36.2286 697.462 37.0286 694.718 37.0286H685.459V27.7714C685.459 25.0286 686.26 22.8571 687.86 21.2572C689.689 19.4286 691.975 18.5143 694.718 18.5143H703.977V27.7714ZM805.48 37.0286C802.737 37.0286 800.451 36.2286 798.622 34.6286C797.021 32.8 796.221 30.5143 796.221 27.7714V18.5143H805.137C807.88 18.5143 810.052 19.4286 811.652 21.2572C813.481 22.8571 814.396 25.0286 814.396 27.7714V37.0286H805.48ZM666.942 46.2857C666.942 43.5429 667.742 41.3714 669.342 39.7714C671.171 37.9429 673.457 37.0286 676.201 37.0286H685.459V64.4571C685.459 67.2 684.545 69.4857 682.716 71.3143C681.116 72.9143 678.944 73.7143 676.201 73.7143H666.942V46.2857ZM823.654 37.0286C826.398 37.0286 828.57 37.9429 830.17 39.7714C831.999 41.3714 832.913 43.5429 832.913 46.2857V73.7143H823.654C820.911 73.7143 818.625 72.9143 816.796 71.3143C815.196 69.4857 814.396 67.2 814.396 64.4571V37.0286H823.654ZM648.425 82.9714C648.425 80.2286 649.225 78.0571 650.825 76.4571C652.654 74.6286 654.94 73.7143 657.683 73.7143H666.942V166.286H657.683C654.94 166.286 652.654 165.486 650.825 163.886C649.225 162.057 648.425 159.771 648.425 157.029V82.9714ZM842.172 73.7143C844.915 73.7143 847.087 74.6286 848.687 76.4571C850.516 78.0571 851.431 80.2286 851.431 82.9714V157.029C851.431 159.771 850.516 162.057 848.687 163.886C847.087 165.486 844.915 166.286 842.172 166.286H832.913V73.7143H842.172ZM814.396 175.543C814.396 172.8 815.196 170.629 816.796 169.029C818.625 167.2 820.911 166.286 823.654 166.286H832.913V193.714C832.913 196.457 831.999 198.743 830.17 200.571C828.57 202.171 826.398 202.971 823.654 202.971H814.396V175.543ZM676.201 166.286C678.944 166.286 681.116 167.2 682.716 169.029C684.545 170.629 685.459 172.8 685.459 175.543V202.971H676.201C673.457 202.971 671.171 202.171 669.342 200.571C667.742 198.743 666.942 196.457 666.942 193.714V166.286H676.201ZM814.396 212.229C814.396 214.971 813.481 217.257 811.652 219.086C810.052 220.686 807.88 221.486 805.137 221.486H796.221V212.229C796.221 209.486 797.021 207.314 798.622 205.714C800.451 203.886 802.737 202.971 805.48 202.971H814.396V212.229ZM694.718 221.486C691.975 221.486 689.689 220.686 687.86 219.086C686.26 217.257 685.459 214.971 685.459 212.229V202.971H694.718C697.462 202.971 699.633 203.886 701.234 205.714C703.062 207.314 703.977 209.486 703.977 212.229V221.486H694.718ZM713.236 240C710.492 240 708.206 239.2 706.377 237.6C704.777 235.771 703.977 233.486 703.977 230.743V221.486H796.221V230.743C796.221 233.486 795.307 235.771 793.478 237.6C791.878 239.2 789.706 240 786.962 240H713.236Z" fill="#572B7A"/>
<path d="M833.481 0H897.949C900.692 0 902.864 0.914289 904.464 2.74286C906.293 4.34286 907.208 6.51428 907.208 9.25714V18.5143H833.481V0ZM925.725 18.5143V9.25714C925.725 6.51428 926.525 4.34286 928.125 2.74286C929.954 0.914289 932.24 0 934.984 0H999.452V18.5143H925.725ZM907.208 18.5143H925.725V240H907.208V18.5143Z" fill="#572B7A"/>
</svg>
