<svg width="1544" height="240" viewBox="0 0 1544 240" fill="none" xmlns="http://www.w3.org/2000/svg">
<path d="M18.5134 18.5143V9.25714C18.5134 6.51428 19.3133 4.34286 20.9133 2.74286C22.7417 0.914289 25.0273 0 27.7701 0H138.165C140.907 0 143.079 0.914289 144.679 2.74286C146.507 4.34286 147.421 6.51428 147.421 9.25714V18.5143H18.5134ZM18.5134 129.257H9.25669C6.51397 129.257 4.22836 128.457 2.39988 126.857C0.799961 125.029 0 122.743 0 120V27.7714C0 25.0286 0.799961 22.8571 2.39988 21.2572C4.22836 19.4286 6.51397 18.5143 9.25669 18.5143H18.5134V129.257ZM147.421 18.5143H156.678C159.421 18.5143 161.592 19.4286 163.192 21.2572C165.02 22.8571 165.935 25.0286 165.935 27.7714V37.0286H156.678C153.935 37.0286 151.65 36.2286 149.821 34.6286C148.221 32.8 147.421 30.5143 147.421 27.7714V18.5143ZM165.935 37.0286H175.191C177.934 37.0286 180.105 37.9429 181.705 39.7714C183.534 41.3714 184.448 43.5429 184.448 46.2857V101.486C184.448 104.229 183.534 106.514 181.705 108.343C180.105 109.943 177.934 110.743 175.191 110.743H165.935V37.0286ZM165.935 110.743V120C165.935 122.743 165.02 125.029 163.192 126.857C161.592 128.457 159.421 129.257 156.678 129.257H147.421V120C147.421 117.257 148.221 115.086 149.821 113.486C151.65 111.657 153.935 110.743 156.678 110.743H165.935ZM18.5134 147.771V129.257H147.421V147.771H18.5134ZM0 240V157.029C0 154.286 0.799961 152.114 2.39988 150.514C4.22836 148.686 6.51397 147.771 9.25669 147.771H18.5134V240H0ZM147.421 147.771H156.678C159.421 147.771 161.592 148.686 163.192 150.514C165.02 152.114 165.935 154.286 165.935 157.029V166.286H156.678C153.935 166.286 151.65 165.486 149.821 163.886C148.221 162.057 147.421 159.771 147.421 157.029V147.771ZM165.935 166.286H175.191C177.934 166.286 180.105 167.2 181.705 169.029C183.534 170.629 184.448 172.8 184.448 175.543V240H165.935V166.286Z" fill="white"/>
<path d="M258.432 9.25714C258.432 6.51428 259.232 4.34286 260.832 2.74286C262.66 0.914289 264.946 0 267.689 0H341.399C344.142 0 346.313 0.914289 347.913 2.74286C349.742 4.34286 350.656 6.51428 350.656 9.25714V18.5143H258.432V9.25714ZM258.432 27.7714C258.432 30.5143 257.518 32.8 255.689 34.6286C254.089 36.2286 251.918 37.0286 249.175 37.0286H239.919V27.7714C239.919 25.0286 240.719 22.8571 242.318 21.2572C244.147 19.4286 246.433 18.5143 249.175 18.5143H258.432V27.7714ZM359.913 37.0286C357.17 37.0286 354.884 36.2286 353.056 34.6286C351.456 32.8 350.656 30.5143 350.656 27.7714V18.5143H359.57C362.313 18.5143 364.484 19.4286 366.084 21.2572C367.912 22.8571 368.827 25.0286 368.827 27.7714V37.0286H359.913ZM221.405 46.2857C221.405 43.5429 222.205 41.3714 223.805 39.7714C225.634 37.9429 227.919 37.0286 230.662 37.0286H239.919V64.4571C239.919 67.2 239.004 69.4857 237.176 71.3143C235.576 72.9143 233.405 73.7143 230.662 73.7143H221.405V46.2857ZM378.083 37.0286C380.826 37.0286 382.997 37.9429 384.597 39.7714C386.426 41.3714 387.34 43.5429 387.34 46.2857V73.7143H378.083C375.34 73.7143 373.055 72.9143 371.226 71.3143C369.626 69.4857 368.827 67.2 368.827 64.4571V37.0286H378.083ZM202.892 82.9714C202.892 80.2286 203.692 78.0571 205.292 76.4571C207.12 74.6286 209.406 73.7143 212.148 73.7143H221.405V166.286H212.148C209.406 166.286 207.12 165.486 205.292 163.886C203.692 162.057 202.892 159.771 202.892 157.029V82.9714ZM396.597 73.7143C399.339 73.7143 401.511 74.6286 403.111 76.4571C404.939 78.0571 405.853 80.2286 405.853 82.9714V157.029C405.853 159.771 404.939 162.057 403.111 163.886C401.511 165.486 399.339 166.286 396.597 166.286H387.34V73.7143H396.597ZM368.827 175.543C368.827 172.8 369.626 170.629 371.226 169.029C373.055 167.2 375.34 166.286 378.083 166.286H387.34V193.714C387.34 196.457 386.426 198.743 384.597 200.571C382.997 202.171 380.826 202.971 378.083 202.971H368.827V175.543ZM230.662 166.286C233.405 166.286 235.576 167.2 237.176 169.029C239.004 170.629 239.919 172.8 239.919 175.543V202.971H230.662C227.919 202.971 225.634 202.171 223.805 200.571C222.205 198.743 221.405 196.457 221.405 193.714V166.286H230.662ZM368.827 212.229C368.827 214.971 367.912 217.257 366.084 219.086C364.484 220.686 362.313 221.486 359.57 221.486H350.656V212.229C350.656 209.486 351.456 207.314 353.056 205.714C354.884 203.886 357.17 202.971 359.913 202.971H368.827V212.229ZM249.175 221.486C246.433 221.486 244.147 220.686 242.318 219.086C240.719 217.257 239.919 214.971 239.919 212.229V202.971H249.175C251.918 202.971 254.089 203.886 255.689 205.714C257.518 207.314 258.432 209.486 258.432 212.229V221.486H249.175ZM267.689 240C264.946 240 262.66 239.2 260.832 237.6C259.232 235.771 258.432 233.486 258.432 230.743V221.486H350.656V230.743C350.656 233.486 349.742 235.771 347.913 237.6C346.313 239.2 344.142 240 341.399 240H267.689Z" fill="white"/>
<path d="M498.677 9.25714C498.677 6.51428 499.477 4.34286 501.077 2.74286C502.906 0.914289 505.191 0 507.934 0C510.905 0 513.191 0.914289 514.791 2.74286C516.391 4.34286 517.191 6.51428 517.191 9.25714V18.5143H498.677V9.25714ZM480.164 27.7714C480.164 25.0286 480.964 22.8571 482.564 21.2572C484.392 19.4286 486.678 18.5143 489.421 18.5143H498.677V46.2857C498.677 49.0286 497.763 51.3143 495.935 53.1429C494.335 54.7429 492.163 55.5429 489.421 55.5429H480.164V27.7714ZM526.105 18.5143C528.847 18.5143 531.019 19.4286 532.618 21.2572C534.447 22.8571 535.361 25.0286 535.361 27.7714V55.5429H526.447C523.705 55.5429 521.419 54.7429 519.591 53.1429C517.991 51.3143 517.191 49.0286 517.191 46.2857V18.5143H526.105ZM461.651 64.8C461.651 62.0571 462.451 59.8857 464.05 58.2857C465.879 56.4571 468.164 55.5429 470.907 55.5429H480.164V101.486C480.164 104.229 479.25 106.514 477.421 108.343C475.821 109.943 473.65 110.743 470.907 110.743H461.651V64.8ZM544.618 55.5429C547.361 55.5429 549.532 56.4571 551.132 58.2857C552.96 59.8857 553.875 62.0571 553.875 64.8V110.743H544.618C541.875 110.743 539.59 109.943 537.761 108.343C536.161 106.514 535.361 104.229 535.361 101.486V55.5429H544.618ZM443.137 120C443.137 117.257 443.937 115.086 445.537 113.486C447.366 111.657 449.651 110.743 452.394 110.743H461.651V147.771H443.137V120ZM563.131 110.743C565.874 110.743 568.045 111.657 569.645 113.486C571.474 115.086 572.388 117.257 572.388 120V147.771H553.875V110.743H563.131ZM424.624 157.029C424.624 154.286 425.424 152.114 427.024 150.514C428.852 148.686 431.138 147.771 433.88 147.771H443.137V193.714C443.137 196.457 442.223 198.743 440.394 200.571C438.795 202.171 436.623 202.971 433.88 202.971H424.624V157.029ZM461.651 147.771H553.875V157.029C553.875 159.771 552.96 162.057 551.132 163.886C549.532 165.486 547.361 166.286 544.618 166.286H470.907C468.164 166.286 465.879 165.486 464.05 163.886C462.451 162.057 461.651 159.771 461.651 157.029V147.771ZM572.388 147.771H581.645C584.387 147.771 586.559 148.686 588.159 150.514C589.987 152.114 590.901 154.286 590.901 157.029V202.971H581.645C578.902 202.971 576.616 202.171 574.788 200.571C573.188 198.743 572.388 196.457 572.388 193.714V147.771ZM406.453 212.229C406.453 209.486 407.253 207.314 408.853 205.714C410.682 203.886 412.967 202.971 415.71 202.971H424.624V240H406.453V212.229ZM600.158 202.971C602.901 202.971 605.072 203.886 606.672 205.714C608.5 207.314 609.415 209.486 609.415 212.229V240H590.901V202.971H600.158Z" fill="white"/>
<path d="M646.265 18.5143V9.25714C646.265 6.51428 647.065 4.34286 648.665 2.74286C650.493 0.914289 652.779 0 655.521 0H748.088C750.831 0 753.002 0.914289 754.602 2.74286C756.431 4.34286 757.345 6.51428 757.345 9.25714V18.5143H646.265ZM646.265 221.486H637.351C634.608 221.486 632.322 220.686 630.494 219.086C628.894 217.257 628.094 214.971 628.094 212.229V27.7714C628.094 25.0286 628.894 22.8571 630.494 21.2572C632.322 19.4286 634.608 18.5143 637.351 18.5143H646.265V221.486ZM757.345 18.5143H766.259C769.002 18.5143 771.173 19.4286 772.773 21.2572C774.601 22.8571 775.515 25.0286 775.515 27.7714V37.0286H766.602C763.859 37.0286 761.573 36.2286 759.745 34.6286C758.145 32.8 757.345 30.5143 757.345 27.7714V18.5143ZM775.515 37.0286H784.772C787.515 37.0286 789.686 37.9429 791.286 39.7714C793.115 41.3714 794.029 43.5429 794.029 46.2857V55.5429H784.772C782.029 55.5429 779.744 54.7429 777.915 53.1429C776.315 51.3143 775.515 49.0286 775.515 46.2857V37.0286ZM794.029 55.5429H803.286C806.028 55.5429 808.2 56.4571 809.799 58.2857C811.628 59.8857 812.542 62.0571 812.542 64.8V175.2C812.542 177.943 811.628 180.229 809.799 182.057C808.2 183.657 806.028 184.457 803.286 184.457H794.029V55.5429ZM775.515 202.971V193.714C775.515 190.971 776.315 188.8 777.915 187.2C779.744 185.371 782.029 184.457 784.772 184.457H794.029V193.714C794.029 196.457 793.115 198.743 791.286 200.571C789.686 202.171 787.515 202.971 784.772 202.971H775.515ZM757.345 221.486V212.229C757.345 209.486 758.145 207.314 759.745 205.714C761.573 203.886 763.859 202.971 766.602 202.971H775.515V212.229C775.515 214.971 774.601 217.257 772.773 219.086C771.173 220.686 769.002 221.486 766.259 221.486H757.345ZM646.265 221.486H757.345V230.743C757.345 233.486 756.431 235.771 754.602 237.6C753.002 239.2 750.831 240 748.088 240H655.521C652.779 240 650.493 239.2 648.665 237.6C647.065 235.771 646.265 233.486 646.265 230.743V221.486Z" fill="white"/>
<path d="M933.771 0H952.284V18.5143H943.028C940.285 18.5143 937.999 17.7143 936.171 16.1143C934.571 14.2857 933.771 12 933.771 9.25714V0ZM1118.9 18.5143V0H1137.42V9.25714C1137.42 12 1136.5 14.2857 1134.68 16.1143C1133.08 17.7143 1130.9 18.5143 1128.16 18.5143H1118.9ZM952.284 55.5429V18.5143H961.541C964.284 18.5143 966.455 19.4286 968.055 21.2572C969.884 22.8571 970.798 25.0286 970.798 27.7714V55.5429H952.284ZM1100.39 55.5429V27.7714C1100.39 25.0286 1101.19 22.8571 1102.79 21.2572C1104.62 19.4286 1106.91 18.5143 1109.65 18.5143H1118.9V55.5429H1100.39ZM933.771 240V64.8C933.771 62.0571 934.571 59.8857 936.171 58.2857C937.999 56.4571 940.285 55.5429 943.028 55.5429H952.284V240H933.771ZM1118.9 55.5429H1128.16C1130.9 55.5429 1133.08 56.4571 1134.68 58.2857C1136.5 59.8857 1137.42 62.0571 1137.42 64.8V240H1118.9V55.5429ZM1081.88 92.2286V64.8C1081.88 62.0571 1082.68 59.8857 1084.28 58.2857C1086.11 56.4571 1088.39 55.5429 1091.13 55.5429H1100.39V82.9714C1100.39 85.7143 1099.48 88 1097.65 89.8286C1096.05 91.4286 1093.88 92.2286 1091.13 92.2286H1081.88ZM970.798 55.5429H980.055C982.797 55.5429 984.969 56.4571 986.568 58.2857C988.397 59.8857 989.311 62.0571 989.311 64.8V92.2286H980.055C977.312 92.2286 975.026 91.4286 973.198 89.8286C971.598 88 970.798 85.7143 970.798 82.9714V55.5429ZM1063.36 129.257V101.486C1063.36 98.7429 1064.16 96.5714 1065.76 94.9714C1067.59 93.1429 1069.88 92.2286 1072.62 92.2286H1081.88V120C1081.88 122.743 1080.96 125.029 1079.14 126.857C1077.54 128.457 1075.36 129.257 1072.62 129.257H1063.36ZM1007.82 129.257H998.568C995.825 129.257 993.54 128.457 991.711 126.857C990.111 125.029 989.311 122.743 989.311 120V92.2286H998.568C1001.31 92.2286 1003.48 93.1429 1005.08 94.9714C1006.91 96.5714 1007.82 98.7429 1007.82 101.486V129.257ZM1026.34 166.286H1017.08C1014.34 166.286 1012.05 165.486 1010.22 163.886C1008.62 162.057 1007.82 159.771 1007.82 157.029V129.257H1017.08C1019.82 129.257 1022 130.171 1023.6 132C1025.42 133.6 1026.34 135.771 1026.34 138.514V166.286ZM1044.85 166.286V138.514C1044.85 135.771 1045.65 133.6 1047.25 132C1049.08 130.171 1051.37 129.257 1054.11 129.257H1063.36V157.029C1063.36 159.771 1062.45 162.057 1060.62 163.886C1059.02 165.486 1056.85 166.286 1054.11 166.286H1044.85ZM1026.34 166.286H1044.85V193.371C1044.85 196.114 1044.05 198.4 1042.45 200.229C1040.85 201.829 1038.57 202.629 1035.59 202.629C1032.85 202.629 1030.57 201.829 1028.74 200.229C1027.14 198.4 1026.34 196.114 1026.34 193.371V166.286Z" fill="white"/>
<path d="M1248.31 9.25714C1248.31 6.51428 1249.11 4.34286 1250.71 2.74286C1252.53 0.914289 1254.82 0 1257.56 0C1260.53 0 1262.82 0.914289 1264.42 2.74286C1266.02 4.34286 1266.82 6.51428 1266.82 9.25714V18.5143H1248.31V9.25714ZM1229.79 27.7714C1229.79 25.0286 1230.59 22.8571 1232.19 21.2572C1234.02 19.4286 1236.31 18.5143 1239.05 18.5143H1248.31V46.2857C1248.31 49.0286 1247.39 51.3143 1245.56 53.1429C1243.96 54.7429 1241.79 55.5429 1239.05 55.5429H1229.79V27.7714ZM1275.73 18.5143C1278.48 18.5143 1280.65 19.4286 1282.25 21.2572C1284.08 22.8571 1284.99 25.0286 1284.99 27.7714V55.5429H1276.08C1273.33 55.5429 1271.05 54.7429 1269.22 53.1429C1267.62 51.3143 1266.82 49.0286 1266.82 46.2857V18.5143H1275.73ZM1211.28 64.8C1211.28 62.0571 1212.08 59.8857 1213.68 58.2857C1215.51 56.4571 1217.79 55.5429 1220.54 55.5429H1229.79V101.486C1229.79 104.229 1228.88 106.514 1227.05 108.343C1225.45 109.943 1223.28 110.743 1220.54 110.743H1211.28V64.8ZM1294.25 55.5429C1296.99 55.5429 1299.16 56.4571 1300.76 58.2857C1302.59 59.8857 1303.5 62.0571 1303.5 64.8V110.743H1294.25C1291.5 110.743 1289.22 109.943 1287.39 108.343C1285.79 106.514 1284.99 104.229 1284.99 101.486V55.5429H1294.25ZM1192.77 120C1192.77 117.257 1193.57 115.086 1195.17 113.486C1196.99 111.657 1199.28 110.743 1202.02 110.743H1211.28V147.771H1192.77V120ZM1312.76 110.743C1315.5 110.743 1317.67 111.657 1319.27 113.486C1321.1 115.086 1322.02 117.257 1322.02 120V147.771H1303.5V110.743H1312.76ZM1174.25 157.029C1174.25 154.286 1175.05 152.114 1176.65 150.514C1178.48 148.686 1180.77 147.771 1183.51 147.771H1192.77V193.714C1192.77 196.457 1191.85 198.743 1190.02 200.571C1188.42 202.171 1186.25 202.971 1183.51 202.971H1174.25V157.029ZM1211.28 147.771H1303.5V157.029C1303.5 159.771 1302.59 162.057 1300.76 163.886C1299.16 165.486 1296.99 166.286 1294.25 166.286H1220.54C1217.79 166.286 1215.51 165.486 1213.68 163.886C1212.08 162.057 1211.28 159.771 1211.28 157.029V147.771ZM1322.02 147.771H1331.27C1334.02 147.771 1336.19 148.686 1337.79 150.514C1339.62 152.114 1340.53 154.286 1340.53 157.029V202.971H1331.27C1328.53 202.971 1326.24 202.171 1324.42 200.571C1322.82 198.743 1322.02 196.457 1322.02 193.714V147.771ZM1156.08 212.229C1156.08 209.486 1156.88 207.314 1158.48 205.714C1160.31 203.886 1162.6 202.971 1165.34 202.971H1174.25V240H1156.08V212.229ZM1349.79 202.971C1352.53 202.971 1354.7 203.886 1356.3 205.714C1358.13 207.314 1359.04 209.486 1359.04 212.229V240H1340.53V202.971H1349.79Z" fill="white"/>
<path d="M1396.24 18.5143V9.25714C1396.24 6.51428 1397.04 4.34286 1398.64 2.74286C1400.46 0.914289 1402.75 0 1405.49 0H1497.72C1500.46 0 1502.63 0.914289 1504.23 2.74286C1506.06 4.34286 1506.97 6.51428 1506.97 9.25714V18.5143H1396.24ZM1396.24 129.257H1386.98C1384.24 129.257 1381.95 128.457 1380.12 126.857C1378.52 125.029 1377.72 122.743 1377.72 120V27.7714C1377.72 25.0286 1378.52 22.8571 1380.12 21.2572C1381.95 19.4286 1384.24 18.5143 1386.98 18.5143H1396.24V129.257ZM1506.97 18.5143H1516.23C1518.97 18.5143 1521.14 19.4286 1522.74 21.2572C1524.57 22.8571 1525.49 25.0286 1525.49 27.7714V37.0286H1516.23C1513.49 37.0286 1511.2 36.2286 1509.37 34.6286C1507.77 32.8 1506.97 30.5143 1506.97 27.7714V18.5143ZM1525.49 37.0286H1534.74C1537.49 37.0286 1539.66 37.9429 1541.26 39.7714C1543.09 41.3714 1544 43.5429 1544 46.2857V101.486C1544 104.229 1543.09 106.514 1541.26 108.343C1539.66 109.943 1537.49 110.743 1534.74 110.743H1525.49V37.0286ZM1525.49 110.743V120C1525.49 122.743 1524.57 125.029 1522.74 126.857C1521.14 128.457 1518.97 129.257 1516.23 129.257H1506.97V120C1506.97 117.257 1507.77 115.086 1509.37 113.486C1511.2 111.657 1513.49 110.743 1516.23 110.743H1525.49ZM1396.24 147.771V129.257H1506.97V138.514C1506.97 141.257 1506.06 143.543 1504.23 145.371C1502.63 146.971 1500.46 147.771 1497.72 147.771H1396.24ZM1377.72 240V157.029C1377.72 154.286 1378.52 152.114 1380.12 150.514C1381.95 148.686 1384.24 147.771 1386.98 147.771H1396.24V240H1377.72Z" fill="white"/>
</svg>
