<svg width="1009" height="240" viewBox="0 0 1009 240" fill="none" xmlns="http://www.w3.org/2000/svg">
<path d="M66.3759 219.907C47.0225 218.047 29.3439 210.326 13.3402 196.744C10.3628 194.326 8.87405 195.256 8.87405 199.535V213.488C8.87405 216.279 7.47838 217.674 4.68703 217.674C1.89568 217.674 0.5 216.279 0.5 213.488V160.465C0.5 157.674 1.89568 156.279 4.68703 156.279C7.47838 156.279 8.87405 157.674 8.87405 160.465V181.395C18.5507 192.372 31.6701 201.023 48.2321 207.349C53.6287 209.395 59.6766 210.791 66.3759 211.535V121.116C48.5112 116.279 35.2988 111.814 26.7387 107.721C18.3646 103.442 11.8515 98.2326 7.19924 92.093C2.73308 85.9535 0.5 78.8837 0.5 70.8837C0.5 55.2558 5.61747 42.7907 15.8524 33.4884C26.0874 24.186 42.3702 19.5349 64.701 19.5349H66.3759V4.18604C66.3759 1.39535 67.7715 0 70.5629 0C73.3542 0 74.7499 1.39535 74.7499 4.18604V20.093C91.3119 22.6977 105.176 28 116.341 36C120.249 38.7907 123.319 41.1163 125.552 42.9767C128.902 45.5814 130.484 44.7442 130.298 40.4651V26.5116C130.298 23.7209 131.693 22.3256 134.485 22.3256C137.276 22.3256 138.672 23.7209 138.672 26.5116V79.5349C138.672 82.3256 137.276 83.7209 134.485 83.7209C131.693 83.7209 130.298 82.3256 130.298 79.5349V60C120.063 48.2791 107.223 39.2558 91.7771 32.9302C86.5666 30.6977 80.8909 29.2093 74.7499 28.4651V113.581C75.3082 113.767 80.7048 115.256 90.9397 118.047C101.361 120.651 110.758 124.093 119.132 128.372C127.692 132.465 134.206 137.581 138.672 143.721C143.324 149.86 145.65 157.209 145.65 165.767C145.65 182.512 139.788 195.814 128.065 205.674C116.341 215.535 99.4068 220.465 77.2621 220.465H74.7499V235.814C74.7499 238.605 73.3542 240 70.5629 240C67.7715 240 66.3759 238.605 66.3759 235.814V219.907ZM77.2621 212.093C96.6155 212.093 111.41 208 121.645 199.814C132.066 191.442 137.276 180.651 137.276 167.442C137.276 160.186 134.95 153.86 130.298 148.465C125.832 143.07 120.249 138.884 113.55 135.907C107.037 132.93 100.43 130.512 93.7311 128.651C87.0318 126.791 80.7048 125.023 74.7499 123.349V212.093H77.2621ZM8.87405 68.3721C8.87405 75.6279 11.1071 81.9535 15.5733 87.3488C20.2255 92.7442 25.8082 96.9302 32.3214 99.907C39.0206 102.884 45.2546 105.209 51.0234 106.884C56.9783 108.558 62.0958 110.047 66.3759 111.349V27.907H64.701C45.7199 27.907 31.6701 31.814 22.5517 39.6279C13.4333 47.4419 8.87405 57.0233 8.87405 68.3721Z" fill="white"/>
<path d="M165.475 22.3256H180.549V37.3953H173.012C170.779 37.3953 168.918 36.7442 167.429 35.4419C166.127 33.9535 165.475 32.093 165.475 29.8605V22.3256ZM315.929 37.3953V22.3256H331.002V29.8605C331.002 32.093 330.258 33.9535 328.769 35.4419C327.467 36.7442 325.699 37.3953 323.466 37.3953H315.929ZM195.622 52.4651H188.085C185.852 52.4651 183.991 51.814 182.503 50.5116C181.2 49.0232 180.549 47.1628 180.549 44.9302V37.3953H188.085C190.318 37.3953 192.086 38.1395 193.389 39.6279C194.878 40.9302 195.622 42.6977 195.622 44.9302V52.4651ZM300.856 52.4651V44.9302C300.856 42.6977 301.507 40.9302 302.81 39.6279C304.298 38.1395 306.159 37.3953 308.392 37.3953H315.929V44.9302C315.929 47.1628 315.185 49.0232 313.696 50.5116C312.393 51.814 310.625 52.4651 308.392 52.4651H300.856ZM210.695 82.3256H203.159C200.925 82.3256 199.065 81.6744 197.576 80.3721C196.273 78.8837 195.622 77.0233 195.622 74.7907V52.4651H203.159C205.392 52.4651 207.159 53.2093 208.462 54.6977C209.951 56 210.695 57.7674 210.695 60V82.3256ZM285.782 82.3256V60C285.782 57.7674 286.434 56 287.736 54.6977C289.225 53.2093 291.086 52.4651 293.319 52.4651H300.856V74.7907C300.856 77.0233 300.111 78.8837 298.623 80.3721C297.32 81.6744 295.552 82.3256 293.319 82.3256H285.782ZM225.768 97.3953H218.232C215.999 97.3953 214.138 96.7442 212.649 95.4419C211.346 93.9535 210.695 92.093 210.695 89.8605V82.3256H218.232C220.465 82.3256 222.233 83.0698 223.535 84.5581C225.024 85.8605 225.768 87.6279 225.768 89.8605V97.3953ZM270.709 97.3953V89.8605C270.709 87.6279 271.361 85.8605 272.663 84.5581C274.152 83.0698 276.013 82.3256 278.246 82.3256H285.782V89.8605C285.782 92.093 285.038 93.9535 283.549 95.4419C282.247 96.7442 280.479 97.3953 278.246 97.3953H270.709ZM240.842 112.465H233.305C231.072 112.465 229.211 111.814 227.722 110.512C226.42 109.023 225.768 107.163 225.768 104.93V97.3953H233.305C235.538 97.3953 237.306 98.1395 238.609 99.6279C240.097 100.93 240.842 102.698 240.842 104.93V112.465ZM255.636 112.465V104.93C255.636 102.698 256.287 100.93 257.59 99.6279C259.079 98.1395 260.939 97.3953 263.173 97.3953H270.709V104.93C270.709 107.163 269.965 109.023 268.476 110.512C267.173 111.814 265.406 112.465 263.173 112.465H255.636ZM240.842 127.535V112.465H255.636V127.535H240.842ZM225.768 142.605V135.07C225.768 132.837 226.42 131.07 227.722 129.767C229.211 128.279 231.072 127.535 233.305 127.535H240.842V135.07C240.842 137.302 240.097 139.163 238.609 140.651C237.306 141.953 235.538 142.605 233.305 142.605H225.768ZM255.636 127.535H263.173C265.406 127.535 267.173 128.279 268.476 129.767C269.965 131.07 270.709 132.837 270.709 135.07V142.605H263.173C260.939 142.605 259.079 141.953 257.59 140.651C256.287 139.163 255.636 137.302 255.636 135.07V127.535ZM210.695 157.674V150.14C210.695 147.907 211.346 146.14 212.649 144.837C214.138 143.349 215.999 142.605 218.232 142.605H225.768V150.14C225.768 152.372 225.024 154.233 223.535 155.721C222.233 157.023 220.465 157.674 218.232 157.674H210.695ZM270.709 142.605H278.246C280.479 142.605 282.247 143.349 283.549 144.837C285.038 146.14 285.782 147.907 285.782 150.14V157.674H278.246C276.013 157.674 274.152 157.023 272.663 155.721C271.361 154.233 270.709 152.372 270.709 150.14V142.605ZM195.622 187.535V165.209C195.622 162.977 196.273 161.209 197.576 159.907C199.065 158.419 200.925 157.674 203.159 157.674H210.695V180C210.695 182.233 209.951 184.093 208.462 185.581C207.159 186.884 205.392 187.535 203.159 187.535H195.622ZM285.782 157.674H293.319C295.552 157.674 297.32 158.419 298.623 159.907C300.111 161.209 300.856 162.977 300.856 165.209V187.535H293.319C291.086 187.535 289.225 186.884 287.736 185.581C286.434 184.093 285.782 182.233 285.782 180V157.674ZM180.549 202.605V195.07C180.549 192.837 181.2 191.07 182.503 189.767C183.991 188.279 185.852 187.535 188.085 187.535H195.622V195.07C195.622 197.302 194.878 199.163 193.389 200.651C192.086 201.953 190.318 202.605 188.085 202.605H180.549ZM315.929 202.605H308.392C306.159 202.605 304.298 201.953 302.81 200.651C301.507 199.163 300.856 197.302 300.856 195.07V187.535H308.392C310.625 187.535 312.393 188.279 313.696 189.767C315.185 191.07 315.929 192.837 315.929 195.07V202.605ZM165.475 217.674V210.14C165.475 207.907 166.127 206.14 167.429 204.837C168.918 203.349 170.779 202.605 173.012 202.605H180.549V217.674H165.475ZM315.929 202.605H331.002V217.674H315.929V202.605Z" fill="white"/>
<path d="M421.292 29.8605C421.292 27.6279 421.943 25.8605 423.246 24.5581C424.734 23.0698 426.595 22.3256 428.828 22.3256C431.247 22.3256 433.108 23.0698 434.411 24.5581C435.714 25.8605 436.365 27.6279 436.365 29.8605V37.3953H421.292V29.8605ZM406.218 44.9302C406.218 42.6977 406.87 40.9302 408.172 39.6279C409.661 38.1395 411.522 37.3953 413.755 37.3953H421.292V60C421.292 62.2326 420.547 64.093 419.059 65.5814C417.756 66.8837 415.988 67.5349 413.755 67.5349H406.218V44.9302ZM443.622 37.3953C445.855 37.3953 447.623 38.1395 448.926 39.6279C450.415 40.9302 451.159 42.6977 451.159 44.9302V67.5349H443.902C441.668 67.5349 439.808 66.8837 438.319 65.5814C437.016 64.093 436.365 62.2326 436.365 60V37.3953H443.622ZM391.145 75.0698C391.145 72.8372 391.796 71.0698 393.099 69.7674C394.588 68.2791 396.449 67.5349 398.682 67.5349H406.218V104.93C406.218 107.163 405.474 109.023 403.985 110.512C402.683 111.814 400.915 112.465 398.682 112.465H391.145V75.0698ZM458.696 67.5349C460.929 67.5349 462.697 68.2791 463.999 69.7674C465.488 71.0698 466.232 72.8372 466.232 75.0698V112.465H458.696C456.463 112.465 454.602 111.814 453.113 110.512C451.81 109.023 451.159 107.163 451.159 104.93V67.5349H458.696ZM376.072 120C376.072 117.767 376.723 116 378.026 114.698C379.514 113.209 381.375 112.465 383.608 112.465H391.145V142.605H376.072V120ZM473.769 112.465C476.002 112.465 477.77 113.209 479.073 114.698C480.561 116 481.306 117.767 481.306 120V142.605H466.232V112.465H473.769ZM360.998 150.14C360.998 147.907 361.65 146.14 362.952 144.837C364.441 143.349 366.302 142.605 368.535 142.605H376.072V180C376.072 182.233 375.327 184.093 373.839 185.581C372.536 186.884 370.768 187.535 368.535 187.535H360.998V150.14ZM391.145 142.605H466.232V150.14C466.232 152.372 465.488 154.233 463.999 155.721C462.697 157.023 460.929 157.674 458.696 157.674H398.682C396.449 157.674 394.588 157.023 393.099 155.721C391.796 154.233 391.145 152.372 391.145 150.14V142.605ZM481.306 142.605H488.842C491.075 142.605 492.843 143.349 494.146 144.837C495.635 146.14 496.379 147.907 496.379 150.14V187.535H488.842C486.609 187.535 484.748 186.884 483.26 185.581C481.957 184.093 481.306 182.233 481.306 180V142.605ZM346.204 195.07C346.204 192.837 346.856 191.07 348.158 189.767C349.647 188.279 351.508 187.535 353.741 187.535H360.998V217.674H346.204V195.07ZM503.916 187.535C506.149 187.535 507.917 188.279 509.219 189.767C510.708 191.07 511.452 192.837 511.452 195.07V217.674H496.379V187.535H503.916Z" fill="white"/>
<path d="M526.661 22.3256H541.734V217.674H526.661V22.3256Z" fill="white"/>
<path d="M571.992 37.3953V29.8605C571.992 27.6279 572.643 25.8605 573.946 24.5581C575.434 23.0698 577.295 22.3256 579.528 22.3256H654.616C656.849 22.3256 658.617 23.0698 659.919 24.5581C661.408 25.8605 662.152 27.6279 662.152 29.8605V37.3953H571.992ZM571.992 112.465H564.455C562.222 112.465 560.361 111.814 558.872 110.512C557.57 109.023 556.918 107.163 556.918 104.93V44.9302C556.918 42.6977 557.57 40.9302 558.872 39.6279C560.361 38.1395 562.222 37.3953 564.455 37.3953H571.992V112.465ZM662.152 37.3953H669.689C671.922 37.3953 673.69 38.1395 674.993 39.6279C676.481 40.9302 677.226 42.6977 677.226 44.9302V52.4651H669.689C667.456 52.4651 665.595 51.814 664.106 50.5116C662.804 49.0232 662.152 47.1628 662.152 44.9302V37.3953ZM677.226 52.4651H684.762C686.995 52.4651 688.763 53.2093 690.066 54.6977C691.555 56 692.299 57.7674 692.299 60V89.8605C692.299 92.093 691.555 93.9535 690.066 95.4419C688.763 96.7442 686.995 97.3953 684.762 97.3953H677.226V52.4651ZM677.226 97.3953V104.93C677.226 107.163 676.481 109.023 674.993 110.512C673.69 111.814 671.922 112.465 669.689 112.465H662.152V104.93C662.152 102.698 662.804 100.93 664.106 99.6279C665.595 98.1395 667.456 97.3953 669.689 97.3953H677.226ZM571.992 127.535V112.465H662.152V127.535H571.992ZM571.992 202.605H564.455C562.222 202.605 560.361 201.953 558.872 200.651C557.57 199.163 556.918 197.302 556.918 195.07V135.07C556.918 132.837 557.57 131.07 558.872 129.767C560.361 128.279 562.222 127.535 564.455 127.535H571.992V202.605ZM662.152 127.535H684.762C686.995 127.535 688.763 128.279 690.066 129.767C691.555 131.07 692.299 132.837 692.299 135.07V142.605H669.689C667.456 142.605 665.595 141.953 664.106 140.651C662.804 139.163 662.152 137.302 662.152 135.07V127.535ZM692.299 142.605H699.836C702.069 142.605 703.836 143.349 705.139 144.837C706.628 146.14 707.372 147.907 707.372 150.14V180C707.372 182.233 706.628 184.093 705.139 185.581C703.836 186.884 702.069 187.535 699.836 187.535H692.299V142.605ZM692.299 187.535V195.07C692.299 197.302 691.555 199.163 690.066 200.651C688.763 201.953 686.995 202.605 684.762 202.605H677.226V195.07C677.226 192.837 677.877 191.07 679.18 189.767C680.668 188.279 682.529 187.535 684.762 187.535H692.299ZM571.992 202.605H677.226V210.14C677.226 212.372 676.481 214.233 674.993 215.721C673.69 217.023 671.922 217.674 669.689 217.674H579.528C577.295 217.674 575.434 217.023 573.946 215.721C572.643 214.233 571.992 212.372 571.992 210.14V202.605Z" fill="white"/>
<path d="M767.602 29.8605C767.602 27.6279 768.253 25.8605 769.556 24.5581C771.045 23.0698 772.906 22.3256 775.139 22.3256H835.153C837.386 22.3256 839.154 23.0698 840.456 24.5581C841.945 25.8605 842.69 27.6279 842.69 29.8605V37.3953H767.602V29.8605ZM767.602 44.9302C767.602 47.1628 766.858 49.0232 765.369 50.5116C764.066 51.814 762.299 52.4651 760.066 52.4651H752.529V44.9302C752.529 42.6977 753.18 40.9302 754.483 39.6279C755.972 38.1395 757.832 37.3953 760.066 37.3953H767.602V44.9302ZM850.226 52.4651C847.993 52.4651 846.132 51.814 844.643 50.5116C843.341 49.0232 842.69 47.1628 842.69 44.9302V37.3953H849.947C852.18 37.3953 853.948 38.1395 855.25 39.6279C856.739 40.9302 857.484 42.6977 857.484 44.9302V52.4651H850.226ZM737.456 60C737.456 57.7674 738.107 56 739.409 54.6977C740.898 53.2093 742.759 52.4651 744.992 52.4651H752.529V74.7907C752.529 77.0233 751.785 78.8837 750.296 80.3721C748.993 81.6744 747.225 82.3256 744.992 82.3256H737.456V60ZM865.02 52.4651C867.253 52.4651 869.021 53.2093 870.324 54.6977C871.813 56 872.557 57.7674 872.557 60V82.3256H865.02C862.787 82.3256 860.926 81.6744 859.438 80.3721C858.135 78.8837 857.484 77.0233 857.484 74.7907V52.4651H865.02ZM722.382 89.8605C722.382 87.6279 723.034 85.8605 724.336 84.5581C725.825 83.0698 727.686 82.3256 729.919 82.3256H737.456V157.674H729.919C727.686 157.674 725.825 157.023 724.336 155.721C723.034 154.233 722.382 152.372 722.382 150.14V89.8605ZM880.094 82.3256C882.327 82.3256 884.094 83.0698 885.397 84.5581C886.886 85.8605 887.63 87.6279 887.63 89.8605V150.14C887.63 152.372 886.886 154.233 885.397 155.721C884.094 157.023 882.327 157.674 880.094 157.674H872.557V82.3256H880.094ZM857.484 165.209C857.484 162.977 858.135 161.209 859.438 159.907C860.926 158.419 862.787 157.674 865.02 157.674H872.557V180C872.557 182.233 871.813 184.093 870.324 185.581C869.021 186.884 867.253 187.535 865.02 187.535H857.484V165.209ZM744.992 157.674C747.225 157.674 748.993 158.419 750.296 159.907C751.785 161.209 752.529 162.977 752.529 165.209V187.535H744.992C742.759 187.535 740.898 186.884 739.409 185.581C738.107 184.093 737.456 182.233 737.456 180V157.674H744.992ZM857.484 195.07C857.484 197.302 856.739 199.163 855.25 200.651C853.948 201.953 852.18 202.605 849.947 202.605H842.69V195.07C842.69 192.837 843.341 191.07 844.643 189.767C846.132 188.279 847.993 187.535 850.226 187.535H857.484V195.07ZM760.066 202.605C757.832 202.605 755.972 201.953 754.483 200.651C753.18 199.163 752.529 197.302 752.529 195.07V187.535H760.066C762.299 187.535 764.066 188.279 765.369 189.767C766.858 191.07 767.602 192.837 767.602 195.07V202.605H760.066ZM775.139 217.674C772.906 217.674 771.045 217.023 769.556 215.721C768.253 214.233 767.602 212.372 767.602 210.14V202.605H842.69V210.14C842.69 212.372 841.945 214.233 840.456 215.721C839.154 217.023 837.386 217.674 835.153 217.674H775.139Z" fill="white"/>
<path d="M873.399 22.3256H925.876C928.109 22.3256 929.877 23.0698 931.18 24.5581C932.668 25.8605 933.413 27.6279 933.413 29.8605V37.3953H873.399V22.3256ZM948.486 37.3953V29.8605C948.486 27.6279 949.137 25.8605 950.44 24.5581C951.929 23.0698 953.789 22.3256 956.023 22.3256H1008.5V37.3953H948.486ZM933.413 37.3953H948.486V217.674H933.413V37.3953Z" fill="white"/>
</svg>
