<svg width="1000" height="240" viewBox="0 0 1000 240" fill="none" xmlns="http://www.w3.org/2000/svg">
<path d="M9.47912 96.0668C6.81954 96.0668 4.60323 95.2876 2.83018 93.7291C1.27876 91.948 0.503052 89.7217 0.503052 87.0501V60H18.1227V96.0668H9.47912ZM125.503 87.0501C125.503 89.7217 124.617 91.948 122.843 93.7291C121.292 95.2876 119.187 96.0668 116.527 96.0668H107.883V60H125.503V87.0501ZM27.0988 114.1C24.4392 114.1 22.2229 113.321 20.4499 111.763C18.8984 109.981 18.1227 107.755 18.1227 105.083V96.0668H27.0988C29.7584 96.0668 31.8639 96.9573 33.4153 98.7384C35.1883 100.297 36.0749 102.412 36.0749 105.083V114.1H27.0988ZM107.883 105.083C107.883 107.755 106.997 109.981 105.224 111.763C103.672 113.321 101.567 114.1 98.9073 114.1H89.9312V105.083C89.9312 102.412 90.7069 100.297 92.2584 98.7384C94.0314 96.9573 96.2477 96.0668 98.9073 96.0668H107.883V105.083ZM45.0509 132.134C42.3914 132.134 40.175 131.354 38.402 129.796C36.8506 128.015 36.0749 125.788 36.0749 123.117V114.1H45.0509C47.7105 114.1 49.816 114.991 51.3674 116.772C53.1405 118.33 54.027 120.445 54.027 123.117V132.134H45.0509ZM89.9312 123.117C89.9312 125.788 89.0447 128.015 87.2717 129.796C85.7202 131.354 83.6148 132.134 80.9552 132.134H71.9791V123.117C71.9791 120.445 72.7548 118.33 74.3062 116.772C76.0793 114.991 78.2956 114.1 80.9552 114.1H89.9312V123.117ZM71.9791 150.167H54.027V132.134H71.9791V150.167ZM54.027 158.85C54.027 161.521 53.1405 163.748 51.3674 165.529C49.816 167.087 47.7105 167.866 45.0509 167.866H36.0749V159.184C36.0749 156.512 36.8506 154.397 38.402 152.839C40.175 151.058 42.3914 150.167 45.0509 150.167H54.027V158.85ZM80.9552 167.866C78.2956 167.866 76.0793 167.087 74.3062 165.529C72.7548 163.748 71.9791 161.521 71.9791 158.85V150.167H80.9552C83.6148 150.167 85.7202 151.058 87.2717 152.839C89.0447 154.397 89.9312 156.512 89.9312 159.184V167.866H80.9552ZM36.0749 176.883C36.0749 179.555 35.1883 181.781 33.4153 183.562C31.8639 185.121 29.7584 185.9 27.0988 185.9H18.1227V176.883C18.1227 174.211 18.8984 172.096 20.4499 170.538C22.2229 168.757 24.4392 167.866 27.0988 167.866H36.0749V176.883ZM98.9073 185.9C96.2477 185.9 94.0314 185.121 92.2584 183.562C90.7069 181.781 89.9312 179.555 89.9312 176.883V167.866H98.9073C101.567 167.866 103.672 168.757 105.224 170.538C106.997 172.096 107.883 174.211 107.883 176.883V185.9H98.9073ZM0.503052 194.917C0.503052 192.245 1.27876 190.13 2.83018 188.571C4.60323 186.79 6.81954 185.9 9.47912 185.9H18.1227V240H0.503052V194.917ZM116.527 185.9C119.187 185.9 121.292 186.79 122.843 188.571C124.617 190.13 125.503 192.245 125.503 194.917V240H107.883V185.9H116.527Z" fill="white"/>
<path d="M258.169 9.25714C258.169 6.51428 258.969 4.34286 260.569 2.74286C262.398 0.914289 264.684 0 267.428 0C270.4 0 272.686 0.914289 274.286 2.74286C275.886 4.34286 276.686 6.51428 276.686 9.25714V18.5143H258.169V9.25714ZM239.651 27.7714C239.651 25.0286 240.452 22.8571 242.052 21.2572C243.881 19.4286 246.167 18.5143 248.91 18.5143H258.169V46.2857C258.169 49.0286 257.254 51.3143 255.426 53.1429C253.825 54.7429 251.654 55.5429 248.91 55.5429H239.651V27.7714ZM285.602 18.5143C288.345 18.5143 290.517 19.4286 292.118 21.2572C293.946 22.8571 294.861 25.0286 294.861 27.7714V55.5429H285.945C283.202 55.5429 280.916 54.7429 279.087 53.1429C277.486 51.3143 276.686 49.0286 276.686 46.2857V18.5143H285.602ZM221.134 64.8C221.134 62.0571 221.934 59.8857 223.534 58.2857C225.363 56.4571 227.649 55.5429 230.393 55.5429H239.651V101.486C239.651 104.229 238.737 106.514 236.908 108.343C235.308 109.943 233.136 110.743 230.393 110.743H221.134V64.8ZM304.12 55.5429C306.863 55.5429 309.035 56.4571 310.635 58.2857C312.464 59.8857 313.378 62.0571 313.378 64.8V110.743H304.12C301.376 110.743 299.09 109.943 297.261 108.343C295.661 106.514 294.861 104.229 294.861 101.486V55.5429H304.12ZM202.617 120C202.617 117.257 203.417 115.086 205.017 113.486C206.846 111.657 209.132 110.743 211.875 110.743H221.134V147.771H202.617V120ZM322.637 110.743C325.38 110.743 327.552 111.657 329.152 113.486C330.981 115.086 331.896 117.257 331.896 120V147.771H313.378V110.743H322.637ZM184.099 157.029C184.099 154.286 184.899 152.114 186.5 150.514C188.328 148.686 190.615 147.771 193.358 147.771H202.617V193.714C202.617 196.457 201.702 198.743 199.873 200.571C198.273 202.171 196.101 202.971 193.358 202.971H184.099V157.029ZM221.134 147.771H313.378V157.029C313.378 159.771 312.464 162.057 310.635 163.886C309.035 165.486 306.863 166.286 304.12 166.286H230.393C227.649 166.286 225.363 165.486 223.534 163.886C221.934 162.057 221.134 159.771 221.134 157.029V147.771ZM331.896 147.771H341.155C343.898 147.771 346.07 148.686 347.67 150.514C349.499 152.114 350.413 154.286 350.413 157.029V202.971H341.155C338.411 202.971 336.125 202.171 334.296 200.571C332.696 198.743 331.896 196.457 331.896 193.714V147.771ZM165.925 212.229C165.925 209.486 166.725 207.314 168.325 205.714C170.154 203.886 172.44 202.971 175.183 202.971H184.099V240H165.925V212.229ZM359.672 202.971C362.415 202.971 364.587 203.886 366.187 205.714C368.016 207.314 368.931 209.486 368.931 212.229V240H350.413V202.971H359.672Z" fill="white"/>
<path d="M387.148 0H405.665V240H387.148V0Z" fill="white"/>
<path d="M464.183 18.5143V9.25714C464.183 6.51428 464.983 4.34286 466.583 2.74286C468.412 0.914289 470.698 0 473.441 0H565.686C568.429 0 570.601 0.914289 572.201 2.74286C574.03 4.34286 574.944 6.51428 574.944 9.25714V18.5143H464.183ZM464.183 110.743H454.924C452.18 110.743 449.894 109.943 448.065 108.343C446.465 106.514 445.665 104.229 445.665 101.486V27.7714C445.665 25.0286 446.465 22.8571 448.065 21.2572C449.894 19.4286 452.18 18.5143 454.924 18.5143H464.183V110.743ZM574.944 18.5143H584.203C586.946 18.5143 589.118 19.4286 590.718 21.2572C592.547 22.8571 593.462 25.0286 593.462 27.7714V37.0286H584.203C581.46 37.0286 579.174 36.2286 577.345 34.6286C575.744 32.8 574.944 30.5143 574.944 27.7714V18.5143ZM593.462 37.0286H602.72C605.464 37.0286 607.636 37.9429 609.236 39.7714C611.065 41.3714 611.979 43.5429 611.979 46.2857V82.9714C611.979 85.7143 611.065 88 609.236 89.8286C607.636 91.4286 605.464 92.2286 602.72 92.2286H593.462V37.0286ZM593.462 92.2286V101.486C593.462 104.229 592.547 106.514 590.718 108.343C589.118 109.943 586.946 110.743 584.203 110.743H574.944V101.486C574.944 98.7429 575.744 96.5714 577.345 94.9714C579.174 93.1429 581.46 92.2286 584.203 92.2286H593.462ZM464.183 129.257V110.743H574.944V129.257H464.183ZM464.183 221.486H454.924C452.18 221.486 449.894 220.686 448.065 219.086C446.465 217.257 445.665 214.971 445.665 212.229V138.514C445.665 135.771 446.465 133.6 448.065 132C449.894 130.171 452.18 129.257 454.924 129.257H464.183V221.486ZM574.944 129.257H602.72C605.464 129.257 607.636 130.171 609.236 132C611.065 133.6 611.979 135.771 611.979 138.514V147.771H584.203C581.46 147.771 579.174 146.971 577.345 145.371C575.744 143.543 574.944 141.257 574.944 138.514V129.257ZM611.979 147.771H621.238C623.981 147.771 626.153 148.686 627.753 150.514C629.582 152.114 630.497 154.286 630.497 157.029V193.714C630.497 196.457 629.582 198.743 627.753 200.571C626.153 202.171 623.981 202.971 621.238 202.971H611.979V147.771ZM611.979 202.971V212.229C611.979 214.971 611.065 217.257 609.236 219.086C607.636 220.686 605.464 221.486 602.72 221.486H593.462V212.229C593.462 209.486 594.262 207.314 595.862 205.714C597.691 203.886 599.977 202.971 602.72 202.971H611.979ZM464.183 221.486H593.462V230.743C593.462 233.486 592.547 235.771 590.718 237.6C589.118 239.2 586.946 240 584.203 240H473.441C470.698 240 468.412 239.2 466.583 237.6C464.983 235.771 464.183 233.486 464.183 230.743V221.486Z" fill="white"/>
<path d="M704.022 9.25714C704.022 6.51428 704.822 4.34286 706.422 2.74286C708.251 0.914289 710.537 0 713.281 0H787.008C789.751 0 791.923 0.914289 793.523 2.74286C795.352 4.34286 796.266 6.51428 796.266 9.25714V18.5143H704.022V9.25714ZM704.022 27.7714C704.022 30.5143 703.108 32.8 701.279 34.6286C699.678 36.2286 697.507 37.0286 694.763 37.0286H685.505V27.7714C685.505 25.0286 686.305 22.8571 687.905 21.2572C689.734 19.4286 692.02 18.5143 694.763 18.5143H704.022V27.7714ZM805.525 37.0286C802.782 37.0286 800.496 36.2286 798.667 34.6286C797.067 32.8 796.266 30.5143 796.266 27.7714V18.5143H805.182C807.926 18.5143 810.097 19.4286 811.698 21.2572C813.526 22.8571 814.441 25.0286 814.441 27.7714V37.0286H805.525ZM666.987 46.2857C666.987 43.5429 667.787 41.3714 669.388 39.7714C671.216 37.9429 673.503 37.0286 676.246 37.0286H685.505V64.4571C685.505 67.2 684.59 69.4857 682.761 71.3143C681.161 72.9143 678.989 73.7143 676.246 73.7143H666.987V46.2857ZM823.7 37.0286C826.443 37.0286 828.615 37.9429 830.215 39.7714C832.044 41.3714 832.958 43.5429 832.958 46.2857V73.7143H823.7C820.956 73.7143 818.67 72.9143 816.841 71.3143C815.241 69.4857 814.441 67.2 814.441 64.4571V37.0286H823.7ZM648.47 82.9714C648.47 80.2286 649.27 78.0571 650.87 76.4571C652.699 74.6286 654.985 73.7143 657.728 73.7143H666.987V166.286H657.728C654.985 166.286 652.699 165.486 650.87 163.886C649.27 162.057 648.47 159.771 648.47 157.029V82.9714ZM842.217 73.7143C844.96 73.7143 847.132 74.6286 848.732 76.4571C850.561 78.0571 851.476 80.2286 851.476 82.9714V157.029C851.476 159.771 850.561 162.057 848.732 163.886C847.132 165.486 844.96 166.286 842.217 166.286H832.958V73.7143H842.217ZM814.441 175.543C814.441 172.8 815.241 170.629 816.841 169.029C818.67 167.2 820.956 166.286 823.7 166.286H832.958V193.714C832.958 196.457 832.044 198.743 830.215 200.571C828.615 202.171 826.443 202.971 823.7 202.971H814.441V175.543ZM676.246 166.286C678.989 166.286 681.161 167.2 682.761 169.029C684.59 170.629 685.505 172.8 685.505 175.543V202.971H676.246C673.503 202.971 671.216 202.171 669.388 200.571C667.787 198.743 666.987 196.457 666.987 193.714V166.286H676.246ZM814.441 212.229C814.441 214.971 813.526 217.257 811.698 219.086C810.097 220.686 807.926 221.486 805.182 221.486H796.266V212.229C796.266 209.486 797.067 207.314 798.667 205.714C800.496 203.886 802.782 202.971 805.525 202.971H814.441V212.229ZM694.763 221.486C692.02 221.486 689.734 220.686 687.905 219.086C686.305 217.257 685.505 214.971 685.505 212.229V202.971H694.763C697.507 202.971 699.678 203.886 701.279 205.714C703.108 207.314 704.022 209.486 704.022 212.229V221.486H694.763ZM713.281 240C710.537 240 708.251 239.2 706.422 237.6C704.822 235.771 704.022 233.486 704.022 230.743V221.486H796.266V230.743C796.266 233.486 795.352 235.771 793.523 237.6C791.923 239.2 789.751 240 787.008 240H713.281Z" fill="white"/>
<path d="M833.526 0H897.994C900.737 0 902.909 0.914289 904.509 2.74286C906.338 4.34286 907.253 6.51428 907.253 9.25714V18.5143H833.526V0ZM925.77 18.5143V9.25714C925.77 6.51428 926.57 4.34286 928.17 2.74286C929.999 0.914289 932.285 0 935.029 0H999.497V18.5143H925.77ZM907.253 18.5143H925.77V240H907.253V18.5143Z" fill="white"/>
</svg>
