<svg  viewBox="0 0 3204 840" fill="none" xmlns="http://www.w3.org/2000/svg">
<path fill-rule="evenodd" clip-rule="evenodd" d="M30.8571 0H0V322.857C0 327.429 1.33333 331.238 4 334.286C7.04762 336.952 10.8571 338.286 15.4286 338.286H30.8571V353.714C30.8571 358.286 32.1905 362.095 34.8571 365.143C37.9048 367.81 41.7143 369.143 46.2857 369.143H61.1429V384.571C61.1429 389.143 62.4762 392.952 65.1429 396C68.1905 398.667 72 400 76.5714 400H200C204.571 400 208.19 398.667 210.857 396C213.905 392.952 215.429 389.143 215.429 384.571V369.143H230.286C234.857 369.143 238.476 367.81 241.143 365.143C244.19 362.095 245.714 358.286 245.714 353.714V338.286H261.143C265.714 338.286 269.333 336.952 272 334.286C275.048 331.238 276.571 327.429 276.571 322.857V0H245.714V338.286H230.857C226.286 338.286 222.476 339.81 219.429 342.857C216.762 345.524 215.429 349.143 215.429 353.714V369.143H61.7143V353.714C61.7143 349.143 60.1905 345.524 57.1429 342.857C54.4762 339.81 50.8571 338.286 46.2857 338.286H30.8571V0ZM336.78 15.4286V30.8572H321.351C316.78 30.8572 312.97 32.381 309.923 35.4286C307.256 38.0952 305.923 41.7143 305.923 46.2857V200C305.923 204.571 307.256 208.381 309.923 211.429C312.97 214.095 316.78 215.429 321.351 215.429H336.78V246.286H321.351C316.78 246.286 312.97 247.809 309.923 250.857C307.256 253.524 305.923 257.143 305.923 261.714V400H336.78V246.286H551.637V261.714C551.637 266.286 552.97 270.095 555.637 273.143C558.685 275.81 562.494 277.143 567.065 277.143H582.494V400H613.351V292.571C613.351 288 611.827 284.381 608.78 281.714C606.113 278.667 602.494 277.143 597.923 277.143H582.494V261.714C582.494 257.143 580.97 253.524 577.923 250.857C575.256 247.809 571.637 246.286 567.065 246.286H551.637V215.429H567.065C571.637 215.429 575.256 214.095 577.923 211.429C580.97 208.381 582.494 204.571 582.494 200V184.571H597.923C602.494 184.571 606.113 183.238 608.78 180.571C611.827 177.524 613.351 173.714 613.351 169.143V77.1429C613.351 72.5714 611.827 68.9524 608.78 66.2857C606.113 63.2381 602.494 61.7143 597.923 61.7143H582.494V46.2857C582.494 41.7143 580.97 38.0952 577.923 35.4286C575.256 32.381 571.637 30.8572 567.065 30.8572H551.637V15.4286C551.637 10.8571 550.113 7.23809 547.065 4.57144C544.399 1.52382 540.78 0 536.208 0H352.208C347.637 0 343.827 1.52382 340.78 4.57144C338.113 7.23809 336.78 10.8571 336.78 15.4286ZM551.637 30.8572V46.2857C551.637 50.8571 552.97 54.6667 555.637 57.7143C558.685 60.381 562.494 61.7143 567.065 61.7143H582.494V184.571H567.065C562.494 184.571 558.685 186.095 555.637 189.143C552.97 191.81 551.637 195.429 551.637 200V215.429H336.78V30.8572H551.637ZM796.251 15.4286C796.251 10.8571 797.585 7.23809 800.251 4.57144C803.299 1.52382 807.108 0 811.68 0C816.632 0 820.442 1.52382 823.108 4.57144C825.775 7.23809 827.109 10.8571 827.109 15.4286V30.8572H796.251V15.4286ZM765.394 92.5714V46.2857C765.394 41.7143 766.728 38.0952 769.394 35.4286C772.442 32.381 776.251 30.8572 780.823 30.8572H796.251V77.1429C796.251 81.7143 794.728 85.5238 791.68 88.5714C789.013 91.2381 785.394 92.5714 780.823 92.5714H765.394ZM734.537 184.571V108C734.537 103.429 735.87 99.8095 738.537 97.1428C741.585 94.0952 745.394 92.5714 749.966 92.5714H765.394V169.143C765.394 173.714 763.87 177.524 760.823 180.571C758.156 183.238 754.537 184.571 749.966 184.571H734.537ZM734.537 246.286V184.571H719.109C714.537 184.571 710.728 186.095 707.68 189.143C705.013 191.81 703.68 195.429 703.68 200V246.286H688.251C683.68 246.286 679.87 247.809 676.823 250.857C674.156 253.524 672.823 257.143 672.823 261.714V338.286H657.966C653.394 338.286 649.585 339.81 646.537 342.857C643.87 345.524 642.537 349.143 642.537 353.714V400H672.823V338.286H688.251C692.823 338.286 696.442 336.952 699.109 334.286C702.156 331.238 703.68 327.429 703.68 322.857V246.286H734.537ZM888.251 246.286V261.714C888.251 266.286 886.728 270.095 883.68 273.143C881.013 275.81 877.394 277.143 872.823 277.143H749.966C745.394 277.143 741.585 275.81 738.537 273.143C735.87 270.095 734.537 266.286 734.537 261.714V246.286H888.251ZM888.251 184.571V246.286H919.108V322.857C919.108 327.429 920.442 331.238 923.108 334.286C926.156 336.952 929.966 338.286 934.537 338.286H949.966V400H980.823V353.714C980.823 349.143 979.299 345.524 976.251 342.857C973.585 339.81 969.966 338.286 965.394 338.286H949.966V261.714C949.966 257.143 948.442 253.524 945.394 250.857C942.728 247.809 939.109 246.286 934.537 246.286H919.108V200C919.108 195.429 917.585 191.81 914.537 189.143C911.87 186.095 908.251 184.571 903.68 184.571H888.251ZM857.394 92.5714H872.823C877.394 92.5714 881.013 94.0952 883.68 97.1428C886.728 99.8095 888.251 103.429 888.251 108V184.571H872.823C868.251 184.571 864.442 183.238 861.394 180.571C858.728 177.524 857.394 173.714 857.394 169.143V92.5714ZM857.394 92.5714V46.2857C857.394 41.7143 855.87 38.0952 852.823 35.4286C850.156 32.381 846.537 30.8572 841.966 30.8572H827.109V77.1429C827.109 81.7143 828.442 85.5238 831.109 88.5714C834.156 91.2381 837.966 92.5714 842.537 92.5714H857.394ZM1041.26 0H1010.4V15.4286C1010.4 20 1011.73 23.8095 1014.4 26.8571C1017.45 29.5238 1021.26 30.8572 1025.83 30.8572H1041.26V92.5714H1025.83C1021.26 92.5714 1017.45 94.0952 1014.4 97.1428C1011.73 99.8095 1010.4 103.429 1010.4 108V400H1041.26V92.5714H1071.54V107.429C1071.54 112 1072.88 115.81 1075.54 118.857C1078.59 121.524 1082.4 122.857 1086.97 122.857H1102.4V169.143C1102.4 173.714 1103.73 177.524 1106.4 180.571C1109.45 183.238 1113.26 184.571 1117.83 184.571H1133.26V200C1133.26 204.571 1134.59 208.381 1137.26 211.429C1140.31 214.095 1144.12 215.429 1148.69 215.429H1164.12V230.857C1164.12 235.429 1165.45 239.238 1168.12 242.286C1171.16 244.952 1174.97 246.286 1179.54 246.286H1194.97V292C1194.97 296.571 1196.31 300.381 1198.97 303.429C1202.02 306.095 1205.83 307.429 1210.4 307.429H1225.83V353.714C1225.83 358.286 1227.16 362.095 1229.83 365.143C1232.88 367.81 1236.69 369.143 1241.26 369.143H1256.12V400H1286.97V384.571C1286.97 380 1285.45 376.381 1282.4 373.714C1279.73 370.667 1276.12 369.143 1271.54 369.143H1256.12V307.429H1271.54C1276.12 307.429 1279.73 306.095 1282.4 303.429C1285.45 300.381 1286.97 296.571 1286.97 292V0H1256.12V307.429H1225.83V261.714C1225.83 257.143 1224.31 253.524 1221.26 250.857C1218.59 247.809 1214.97 246.286 1210.4 246.286H1194.97V230.857C1194.97 226.286 1193.45 222.667 1190.4 220C1187.73 216.952 1184.12 215.429 1179.54 215.429H1164.12V200C1164.12 195.429 1162.59 191.81 1159.54 189.143C1156.88 186.095 1153.26 184.571 1148.69 184.571H1133.26V138.286C1133.26 133.714 1131.73 130.095 1128.69 127.429C1126.02 124.381 1122.4 122.857 1117.83 122.857H1102.4V108C1102.4 103.429 1100.88 99.8095 1097.83 97.1428C1095.16 94.0952 1091.54 92.5714 1086.97 92.5714H1071.54V46.2857C1071.54 41.7143 1070.02 38.0952 1066.97 35.4286C1064.31 32.381 1060.69 30.8572 1056.12 30.8572H1041.26V0ZM1316.32 0H1347.18V338.286H1331.75C1327.18 338.286 1323.37 336.952 1320.32 334.286C1317.66 331.238 1316.32 327.429 1316.32 322.857V0ZM1531.75 369.143V384.571C1531.75 389.143 1530.23 392.952 1527.18 396C1524.51 398.667 1520.9 400 1516.32 400H1392.9C1388.32 400 1384.51 398.667 1381.47 396C1378.8 392.952 1377.47 389.143 1377.47 384.571V369.143H1362.61C1358.04 369.143 1354.23 367.81 1351.18 365.143C1348.51 362.095 1347.18 358.286 1347.18 353.714V338.286H1362.61C1367.18 338.286 1370.8 339.81 1373.47 342.857C1376.51 345.524 1378.04 349.143 1378.04 353.714V369.143H1531.75ZM1562.04 338.286V353.714C1562.04 358.286 1560.51 362.095 1557.47 365.143C1554.8 367.81 1551.18 369.143 1546.61 369.143H1531.75V353.714C1531.75 349.143 1533.09 345.524 1535.75 342.857C1538.8 339.81 1542.61 338.286 1547.18 338.286H1562.04ZM1562.04 338.286V0H1592.9V322.857C1592.9 327.429 1591.37 331.238 1588.32 334.286C1585.66 336.952 1582.04 338.286 1577.47 338.286H1562.04ZM1687.39 4.57144C1684.72 7.23809 1683.39 10.8571 1683.39 15.4286V30.8572H1668.53C1663.96 30.8572 1660.15 32.381 1657.1 35.4286C1654.44 38.0952 1653.1 41.7143 1653.1 46.2857V61.7143H1637.68C1633.1 61.7143 1629.29 63.2381 1626.25 66.2857C1623.58 68.9524 1622.25 72.5714 1622.25 77.1429V138.286C1622.25 142.857 1623.58 146.667 1626.25 149.714C1629.29 152.381 1633.1 153.714 1637.68 153.714H1653.1V169.143C1653.1 173.714 1654.44 177.524 1657.1 180.571C1660.15 183.238 1663.96 184.571 1668.53 184.571H1683.39V200C1683.39 204.571 1684.72 208.381 1687.39 211.429C1690.44 214.095 1694.25 215.429 1698.82 215.429H1837.68V230.857C1837.68 235.429 1839.01 239.238 1841.68 242.286C1844.72 244.952 1848.53 246.286 1853.1 246.286H1867.96V338.286H1853.1C1848.53 338.286 1844.72 339.81 1841.68 342.857C1839.01 345.524 1837.68 349.143 1837.68 353.714V369.143H1683.39V353.714C1683.39 349.143 1681.87 345.524 1678.82 342.857C1676.15 339.81 1672.53 338.286 1667.96 338.286H1653.1V277.143H1622.25V322.857C1622.25 327.429 1623.58 331.238 1626.25 334.286C1629.29 336.952 1633.1 338.286 1637.68 338.286H1653.1V353.714C1653.1 358.286 1654.44 362.095 1657.1 365.143C1660.15 367.81 1663.96 369.143 1668.53 369.143H1683.39V384.571C1683.39 389.143 1684.72 392.952 1687.39 396C1690.44 398.667 1694.25 400 1698.82 400H1822.25C1826.82 400 1830.44 398.667 1833.1 396C1836.15 392.952 1837.68 389.143 1837.68 384.571V369.143H1852.53C1857.1 369.143 1860.72 367.81 1863.39 365.143C1866.44 362.095 1867.96 358.286 1867.96 353.714V338.286H1883.39C1887.96 338.286 1891.58 336.952 1894.25 334.286C1897.29 331.238 1898.82 327.429 1898.82 322.857V261.714C1898.82 257.143 1897.29 253.524 1894.25 250.857C1891.58 247.809 1887.96 246.286 1883.39 246.286H1867.96V230.857C1867.96 226.286 1866.44 222.667 1863.39 220C1860.72 216.952 1857.1 215.429 1852.53 215.429H1837.68V200C1837.68 195.429 1836.15 191.81 1833.1 189.143C1830.44 186.095 1826.82 184.571 1822.25 184.571H1683.39V169.143C1683.39 164.571 1681.87 160.952 1678.82 158.286C1676.15 155.238 1672.53 153.714 1667.96 153.714H1653.1V61.7143H1667.96C1672.53 61.7143 1676.15 60.381 1678.82 57.7143C1681.87 54.6667 1683.39 50.8571 1683.39 46.2857V30.8572H1837.68V46.2857C1837.68 50.8571 1839.01 54.6667 1841.68 57.7143C1844.72 60.381 1848.53 61.7143 1853.1 61.7143H1867.96V92.5714H1898.82V77.1429C1898.82 72.5714 1897.29 68.9524 1894.25 66.2857C1891.58 63.2381 1887.96 61.7143 1883.39 61.7143H1867.96V46.2857C1867.96 41.7143 1866.44 38.0952 1863.39 35.4286C1860.72 32.381 1857.1 30.8572 1852.53 30.8572H1837.68V15.4286C1837.68 10.8571 1836.15 7.23809 1833.1 4.57144C1830.44 1.52382 1826.82 0 1822.25 0H1698.82C1694.25 0 1690.44 1.52382 1687.39 4.57144ZM157.714 444.571C155.048 447.238 153.714 450.857 153.714 455.429V470.857H138.286C133.714 470.857 129.905 472.381 126.857 475.429C124.19 478.095 122.857 481.714 122.857 486.286V532.571H107.429C102.857 532.571 99.0476 534.095 96 537.143C93.3333 539.81 92 543.429 92 548V624.571H76.5714C72 624.571 68.1905 626.095 65.1429 629.143C62.4762 631.81 61.1429 635.429 61.1429 640V686.286H45.7143C41.1429 686.286 37.3333 687.81 34.2857 690.857C31.6191 693.524 30.2857 697.143 30.2857 701.714V778.286H15.4286C10.8571 778.286 7.04762 779.81 4 782.857C1.33333 785.524 0 789.143 0 793.714V840H30.2857V778.286H45.7143C50.2857 778.286 53.9048 776.952 56.5714 774.286C59.619 771.238 61.1429 767.429 61.1429 762.857V686.286H92V701.714C92 706.286 93.3333 710.095 96 713.143C99.0476 715.81 102.857 717.143 107.429 717.143H230.286C234.857 717.143 238.476 715.81 241.143 713.143C244.19 710.095 245.714 706.286 245.714 701.714V686.286H276.571V762.857C276.571 767.429 277.905 771.238 280.571 774.286C283.619 776.952 287.429 778.286 292 778.286H307.429V840H338.286V793.714C338.286 789.143 336.762 785.524 333.714 782.857C331.048 779.81 327.429 778.286 322.857 778.286H307.429V701.714C307.429 697.143 305.905 693.524 302.857 690.857C300.19 687.81 296.571 686.286 292 686.286H276.571V640C276.571 635.429 275.048 631.81 272 629.143C269.333 626.095 265.714 624.571 261.143 624.571H245.714V548C245.714 543.429 244.19 539.81 241.143 537.143C238.476 534.095 234.857 532.571 230.286 532.571H214.857V486.286C214.857 481.714 213.333 478.095 210.286 475.429C207.619 472.381 204 470.857 199.429 470.857H184.571V455.429C184.571 450.857 183.238 447.238 180.571 444.571C177.905 441.524 174.095 440 169.143 440C164.571 440 160.762 441.524 157.714 444.571ZM184.571 470.857V517.143C184.571 521.714 185.905 525.524 188.571 528.571C191.619 531.238 195.429 532.571 200 532.571H214.857V609.143C214.857 613.714 216.19 617.524 218.857 620.571C221.905 623.238 225.714 624.571 230.286 624.571H245.714V686.286H92V624.571H107.429C112 624.571 115.619 623.238 118.286 620.571C121.333 617.524 122.857 613.714 122.857 609.143V532.571H138.286C142.857 532.571 146.476 531.238 149.143 528.571C152.19 525.524 153.714 521.714 153.714 517.143V470.857H184.571ZM398.722 440H367.865V840H398.722V440ZM459.109 470.857V455.429C459.109 450.857 460.442 447.238 463.109 444.571C466.156 441.524 469.966 440 474.537 440H658.537C663.109 440 666.728 441.524 669.394 444.571C672.442 447.238 673.966 450.857 673.966 455.429V470.857H459.109ZM459.109 655.429H443.68C439.109 655.429 435.299 654.095 432.251 651.429C429.585 648.381 428.251 644.571 428.251 640V486.286C428.251 481.714 429.585 478.095 432.251 475.429C435.299 472.381 439.109 470.857 443.68 470.857H459.109V655.429ZM673.966 655.429H459.109V686.286H443.68C439.109 686.286 435.299 687.81 432.251 690.857C429.585 693.524 428.251 697.143 428.251 701.714V840H459.109V686.286H673.966V701.714C673.966 706.286 675.299 710.095 677.966 713.143C681.013 715.81 684.823 717.143 689.394 717.143H704.823V840H735.68V732.571C735.68 728 734.156 724.381 731.109 721.714C728.442 718.667 724.823 717.143 720.251 717.143H704.823V701.714C704.823 697.143 703.299 693.524 700.251 690.857C697.585 687.81 693.966 686.286 689.394 686.286H673.966V655.429ZM704.823 624.571V640C704.823 644.571 703.299 648.381 700.251 651.429C697.585 654.095 693.966 655.429 689.394 655.429H673.966V640C673.966 635.429 675.299 631.81 677.966 629.143C681.013 626.095 684.823 624.571 689.394 624.571H704.823ZM704.823 501.714H720.251C724.823 501.714 728.442 503.238 731.109 506.286C734.156 508.952 735.68 512.571 735.68 517.143V609.143C735.68 613.714 734.156 617.524 731.109 620.571C728.442 623.238 724.823 624.571 720.251 624.571H704.823V501.714ZM704.823 501.714V486.286C704.823 481.714 703.299 478.095 700.251 475.429C697.585 472.381 693.966 470.857 689.394 470.857H673.966V486.286C673.966 490.857 675.299 494.667 677.966 497.714C681.013 500.381 684.823 501.714 689.394 501.714H704.823ZM795.152 455.429V470.857H780.294C775.723 470.857 771.914 472.381 768.866 475.429C766.199 478.095 764.866 481.714 764.866 486.286V793.714C764.866 798.286 766.199 802.095 768.866 805.143C771.914 807.81 775.723 809.143 780.294 809.143H795.152V824.571C795.152 829.143 796.485 832.952 799.152 836C802.199 838.667 806.009 840 810.58 840H964.866C969.437 840 973.056 838.667 975.723 836C978.771 832.952 980.294 829.143 980.294 824.571V809.143H995.152C999.723 809.143 1003.34 807.81 1006.01 805.143C1009.06 802.095 1010.58 798.286 1010.58 793.714V778.286H1026.01C1030.58 778.286 1034.2 776.952 1036.87 774.286C1039.91 771.238 1041.44 767.429 1041.44 762.857V747.429H1056.87C1061.44 747.429 1065.06 746.095 1067.72 743.429C1070.77 740.381 1072.29 736.571 1072.29 732V548C1072.29 543.429 1070.77 539.81 1067.72 537.143C1065.06 534.095 1061.44 532.571 1056.87 532.571H1041.44V517.143C1041.44 512.571 1039.91 508.952 1036.87 506.286C1034.2 503.238 1030.58 501.714 1026.01 501.714H1010.58V486.286C1010.58 481.714 1009.06 478.095 1006.01 475.429C1003.34 472.381 999.723 470.857 995.152 470.857H980.294V455.429C980.294 450.857 978.771 447.238 975.723 444.571C973.056 441.524 969.437 440 964.866 440H810.58C806.009 440 802.199 441.524 799.152 444.571C796.485 447.238 795.152 450.857 795.152 455.429ZM980.294 470.857V486.286C980.294 490.857 981.628 494.667 984.295 497.714C987.342 500.381 991.152 501.714 995.723 501.714H1010.58V517.143C1010.58 521.714 1011.91 525.524 1014.58 528.571C1017.63 531.238 1021.44 532.571 1026.01 532.571H1041.44V747.429H1026.01C1021.44 747.429 1017.63 748.952 1014.58 752C1011.91 754.667 1010.58 758.286 1010.58 762.857V778.286H995.723C991.152 778.286 987.342 779.81 984.295 782.857C981.628 785.524 980.294 789.143 980.294 793.714V809.143H795.152V470.857H980.294ZM1132.34 470.857V455.429C1132.34 450.857 1133.67 447.238 1136.34 444.571C1139.39 441.524 1143.19 440 1147.77 440H1331.77C1336.34 440 1339.96 441.524 1342.62 444.571C1345.67 447.238 1347.19 450.857 1347.19 455.429V470.857H1132.34ZM1132.34 655.429H1116.91C1112.34 655.429 1108.53 654.095 1105.48 651.429C1102.81 648.381 1101.48 644.571 1101.48 640V486.286C1101.48 481.714 1102.81 478.095 1105.48 475.429C1108.53 472.381 1112.34 470.857 1116.91 470.857H1132.34V655.429ZM1347.19 655.429H1132.34V686.286H1116.91C1112.34 686.286 1108.53 687.81 1105.48 690.857C1102.81 693.524 1101.48 697.143 1101.48 701.714V840H1132.34V686.286H1347.19V701.714C1347.19 706.286 1348.53 710.095 1351.19 713.143C1354.24 715.81 1358.05 717.143 1362.62 717.143H1378.05V840H1408.91V732.571C1408.91 728 1407.39 724.381 1404.34 721.714C1401.67 718.667 1398.05 717.143 1393.48 717.143H1378.05V701.714C1378.05 697.143 1376.53 693.524 1373.48 690.857C1370.81 687.81 1367.19 686.286 1362.62 686.286H1347.19V655.429ZM1378.05 624.571V640C1378.05 644.571 1376.53 648.381 1373.48 651.429C1370.81 654.095 1367.19 655.429 1362.62 655.429H1347.19V640C1347.19 635.429 1348.53 631.81 1351.19 629.143C1354.24 626.095 1358.05 624.571 1362.62 624.571H1378.05ZM1378.05 501.714H1393.48C1398.05 501.714 1401.67 503.238 1404.34 506.286C1407.39 508.952 1408.91 512.571 1408.91 517.143V609.143C1408.91 613.714 1407.39 617.524 1404.34 620.571C1401.67 623.238 1398.05 624.571 1393.48 624.571H1378.05V501.714ZM1378.05 501.714V486.286C1378.05 481.714 1376.53 478.095 1373.48 475.429C1370.81 472.381 1367.19 470.857 1362.62 470.857H1347.19V486.286C1347.19 490.857 1348.53 494.667 1351.19 497.714C1354.24 500.381 1358.05 501.714 1362.62 501.714H1378.05ZM1534.67 444.571C1532 447.238 1530.67 450.857 1530.67 455.429V470.857H1515.24C1510.67 470.857 1506.86 472.381 1503.81 475.429C1501.14 478.095 1499.81 481.714 1499.81 486.286V501.714H1484.38C1479.81 501.714 1476 503.238 1472.95 506.286C1470.29 508.952 1468.95 512.571 1468.95 517.143V562.857H1453.52C1448.95 562.857 1445.14 564.381 1442.09 567.429C1439.43 570.095 1438.09 573.714 1438.09 578.286V701.714C1438.09 706.286 1439.43 710.095 1442.09 713.143C1445.14 715.81 1448.95 717.143 1453.52 717.143H1468.95V762.857C1468.95 767.429 1470.29 771.238 1472.95 774.286C1476 776.952 1479.81 778.286 1484.38 778.286H1499.81V793.714C1499.81 798.286 1501.14 802.095 1503.81 805.143C1506.86 807.81 1510.67 809.143 1515.24 809.143H1530.67V824.571C1530.67 829.143 1532 832.952 1534.67 836C1537.71 838.667 1541.52 840 1546.09 840H1668.95C1673.52 840 1677.14 838.667 1679.81 836C1682.86 832.952 1684.38 829.143 1684.38 824.571V809.143H1699.24C1703.81 809.143 1707.43 807.81 1710.09 805.143C1713.14 802.095 1714.67 798.286 1714.67 793.714V778.286H1730.09C1734.67 778.286 1738.29 776.952 1740.95 774.286C1744 771.238 1745.52 767.429 1745.52 762.857V717.143H1760.95C1765.52 717.143 1769.14 715.81 1771.81 713.143C1774.86 710.095 1776.38 706.286 1776.38 701.714V578.286C1776.38 573.714 1774.86 570.095 1771.81 567.429C1769.14 564.381 1765.52 562.857 1760.95 562.857H1745.52V517.143C1745.52 512.571 1744 508.952 1740.95 506.286C1738.29 503.238 1734.67 501.714 1730.09 501.714H1714.67V486.286C1714.67 481.714 1713.14 478.095 1710.09 475.429C1707.43 472.381 1703.81 470.857 1699.24 470.857H1684.38V455.429C1684.38 450.857 1682.86 447.238 1679.81 444.571C1677.14 441.524 1673.52 440 1668.95 440H1546.09C1541.52 440 1537.71 441.524 1534.67 444.571ZM1684.38 470.857V486.286C1684.38 490.857 1685.71 494.667 1688.38 497.714C1691.43 500.381 1695.24 501.714 1699.81 501.714H1714.67V547.429C1714.67 552 1716 555.81 1718.67 558.857C1721.71 561.524 1725.52 562.857 1730.09 562.857H1745.52V717.143H1730.09C1725.52 717.143 1721.71 718.667 1718.67 721.714C1716 724.381 1714.67 728 1714.67 732.571V778.286H1699.81C1695.24 778.286 1691.43 779.81 1688.38 782.857C1685.71 785.524 1684.38 789.143 1684.38 793.714V809.143H1530.67V793.714C1530.67 789.143 1529.14 785.524 1526.09 782.857C1523.43 779.81 1519.81 778.286 1515.24 778.286H1499.81V732.571C1499.81 728 1498.29 724.381 1495.24 721.714C1492.57 718.667 1488.95 717.143 1484.38 717.143H1468.95V562.857H1484.38C1488.95 562.857 1492.57 561.524 1495.24 558.857C1498.29 555.81 1499.81 552 1499.81 547.429V501.714H1515.24C1519.81 501.714 1523.43 500.381 1526.09 497.714C1529.14 494.667 1530.67 490.857 1530.67 486.286V470.857H1684.38ZM1836.82 470.857V455.429C1836.82 450.857 1838.15 447.238 1840.82 444.571C1843.86 441.524 1847.67 440 1852.25 440H2005.96C2010.53 440 2014.15 441.524 2016.82 444.571C2019.86 447.238 2021.39 450.857 2021.39 455.429V470.857H1836.82ZM1836.82 655.429H1821.39C1816.82 655.429 1813.01 654.095 1809.96 651.429C1807.29 648.381 1805.96 644.571 1805.96 640V486.286C1805.96 481.714 1807.29 478.095 1809.96 475.429C1813.01 472.381 1816.82 470.857 1821.39 470.857H1836.82V655.429ZM2021.39 655.429H1836.82V686.286H1821.39C1816.82 686.286 1813.01 687.81 1809.96 690.857C1807.29 693.524 1805.96 697.143 1805.96 701.714V840H1836.82V686.286H2005.96C2010.53 686.286 2014.15 684.952 2016.82 682.286C2019.86 679.238 2021.39 675.429 2021.39 670.857V655.429ZM2052.25 624.571V640C2052.25 644.571 2050.72 648.381 2047.67 651.429C2045.01 654.095 2041.39 655.429 2036.82 655.429H2021.39V640C2021.39 635.429 2022.72 631.81 2025.39 629.143C2028.44 626.095 2032.25 624.571 2036.82 624.571H2052.25ZM2052.25 501.714H2067.67C2072.25 501.714 2075.86 503.238 2078.53 506.286C2081.58 508.952 2083.1 512.571 2083.1 517.143V609.143C2083.1 613.714 2081.58 617.524 2078.53 620.571C2075.86 623.238 2072.25 624.571 2067.67 624.571H2052.25V501.714ZM2052.25 501.714V486.286C2052.25 481.714 2050.72 478.095 2047.67 475.429C2045.01 472.381 2041.39 470.857 2036.82 470.857H2021.39V486.286C2021.39 490.857 2022.72 494.667 2025.39 497.714C2028.44 500.381 2032.25 501.714 2036.82 501.714H2052.25ZM2313.06 455.429V470.857H2297.63C2293.06 470.857 2289.25 472.381 2286.2 475.429C2283.54 478.095 2282.2 481.714 2282.2 486.286V609.143C2282.2 613.714 2283.54 617.524 2286.2 620.571C2289.25 623.238 2293.06 624.571 2297.63 624.571H2313.06V655.429H2297.63C2293.06 655.429 2289.25 656.952 2286.2 660C2283.54 662.667 2282.2 666.286 2282.2 670.857V793.714C2282.2 798.286 2283.54 802.095 2286.2 805.143C2289.25 807.81 2293.06 809.143 2297.63 809.143H2313.06V824.571C2313.06 829.143 2314.39 832.952 2317.06 836C2320.11 838.667 2323.92 840 2328.49 840H2513.06C2517.63 840 2521.25 838.667 2523.92 836C2526.96 832.952 2528.49 829.143 2528.49 824.571V809.143H2543.92C2548.49 809.143 2552.11 807.81 2554.77 805.143C2557.82 802.095 2559.34 798.286 2559.34 793.714V778.286H2574.77C2579.34 778.286 2582.96 776.952 2585.63 774.286C2588.68 771.238 2590.2 767.429 2590.2 762.857V701.714C2590.2 697.143 2588.68 693.524 2585.63 690.857C2582.96 687.81 2579.34 686.286 2574.77 686.286H2559.34V670.857C2559.34 666.286 2557.82 662.667 2554.77 660C2552.11 656.952 2548.49 655.429 2543.92 655.429H2497.63V624.571H2513.06C2517.63 624.571 2521.25 623.238 2523.92 620.571C2526.96 617.524 2528.49 613.714 2528.49 609.143V593.714H2543.92C2548.49 593.714 2552.11 592.381 2554.77 589.714C2557.82 586.667 2559.34 582.857 2559.34 578.286V517.143C2559.34 512.571 2557.82 508.952 2554.77 506.286C2552.11 503.238 2548.49 501.714 2543.92 501.714H2528.49V486.286C2528.49 481.714 2526.96 478.095 2523.92 475.429C2521.25 472.381 2517.63 470.857 2513.06 470.857H2497.63V455.429C2497.63 450.857 2496.11 447.238 2493.06 444.571C2490.39 441.524 2486.77 440 2482.2 440H2328.49C2323.92 440 2320.11 441.524 2317.06 444.571C2314.39 447.238 2313.06 450.857 2313.06 455.429ZM2497.63 470.857V486.286C2497.63 490.857 2498.96 494.667 2501.63 497.714C2504.68 500.381 2508.49 501.714 2513.06 501.714H2528.49V593.714H2513.06C2508.49 593.714 2504.68 595.238 2501.63 598.286C2498.96 600.952 2497.63 604.571 2497.63 609.143V624.571H2313.06V470.857H2497.63ZM2497.63 655.429V670.857C2497.63 675.429 2498.96 679.238 2501.63 682.286C2504.68 684.952 2508.49 686.286 2513.06 686.286H2559.34V778.286H2543.92C2539.34 778.286 2535.54 779.81 2532.49 782.857C2529.82 785.524 2528.49 789.143 2528.49 793.714V809.143H2313.06V655.429H2497.63ZM2711.95 455.429C2711.95 450.857 2713.28 447.238 2715.95 444.571C2718.99 441.524 2722.8 440 2727.37 440H2850.23C2854.8 440 2858.42 441.524 2861.09 444.571C2864.14 447.238 2865.66 450.857 2865.66 455.429V470.857H2711.95V455.429ZM2681.09 501.714V486.286C2681.09 481.714 2682.42 478.095 2685.09 475.429C2688.14 472.381 2691.95 470.857 2696.52 470.857H2711.95V486.286C2711.95 490.857 2710.42 494.667 2707.37 497.714C2704.71 500.381 2701.09 501.714 2696.52 501.714H2681.09ZM2650.23 562.857V517.143C2650.23 512.571 2651.56 508.952 2654.23 506.286C2657.28 503.238 2661.09 501.714 2665.66 501.714H2681.09V547.429C2681.09 552 2679.56 555.81 2676.52 558.857C2673.85 561.524 2670.23 562.857 2665.66 562.857H2650.23ZM2650.23 717.143H2634.8C2630.23 717.143 2626.42 715.81 2623.37 713.143C2620.71 710.095 2619.37 706.286 2619.37 701.714V578.286C2619.37 573.714 2620.71 570.095 2623.37 567.429C2626.42 564.381 2630.23 562.857 2634.8 562.857H2650.23V717.143ZM2681.09 778.286H2665.66C2661.09 778.286 2657.28 776.952 2654.23 774.286C2651.56 771.238 2650.23 767.429 2650.23 762.857V717.143H2665.66C2670.23 717.143 2673.85 718.667 2676.52 721.714C2679.56 724.381 2681.09 728 2681.09 732.571V778.286ZM2711.95 809.143H2696.52C2691.95 809.143 2688.14 807.81 2685.09 805.143C2682.42 802.095 2681.09 798.286 2681.09 793.714V778.286H2696.52C2701.09 778.286 2704.71 779.81 2707.37 782.857C2710.42 785.524 2711.95 789.143 2711.95 793.714V809.143ZM2865.66 809.143V824.571C2865.66 829.143 2864.14 832.952 2861.09 836C2858.42 838.667 2854.8 840 2850.23 840H2727.37C2722.8 840 2718.99 838.667 2715.95 836C2713.28 832.952 2711.95 829.143 2711.95 824.571V809.143H2865.66ZM2895.95 778.286V793.714C2895.95 798.286 2894.42 802.095 2891.37 805.143C2888.71 807.81 2885.09 809.143 2880.52 809.143H2865.66V793.714C2865.66 789.143 2866.99 785.524 2869.66 782.857C2872.71 779.81 2876.52 778.286 2881.09 778.286H2895.95ZM2926.8 717.143V762.857C2926.8 767.429 2925.28 771.238 2922.23 774.286C2919.56 776.952 2915.95 778.286 2911.37 778.286H2895.95V732.571C2895.95 728 2897.28 724.381 2899.95 721.714C2902.99 718.667 2906.8 717.143 2911.37 717.143H2926.8ZM2926.8 562.857H2942.23C2946.8 562.857 2950.42 564.381 2953.09 567.429C2956.14 570.095 2957.66 573.714 2957.66 578.286V701.714C2957.66 706.286 2956.14 710.095 2953.09 713.143C2950.42 715.81 2946.8 717.143 2942.23 717.143H2926.8V562.857ZM2895.95 501.714H2911.37C2915.95 501.714 2919.56 503.238 2922.23 506.286C2925.28 508.952 2926.8 512.571 2926.8 517.143V562.857H2911.37C2906.8 562.857 2902.99 561.524 2899.95 558.857C2897.28 555.81 2895.95 552 2895.95 547.429V501.714ZM2895.95 501.714V486.286C2895.95 481.714 2894.42 478.095 2891.37 475.429C2888.71 472.381 2885.09 470.857 2880.52 470.857H2865.66V486.286C2865.66 490.857 2866.99 494.667 2869.66 497.714C2872.71 500.381 2876.52 501.714 2881.09 501.714H2895.95ZM3034.4 440H2926.97V470.857H3049.83V840H3080.69V470.857H3203.54V440H3096.11C3091.54 440 3087.73 441.524 3084.69 444.571C3082.02 447.238 3080.69 450.857 3080.69 455.429V470.857H3049.83V455.429C3049.83 450.857 3048.3 447.238 3045.26 444.571C3042.59 441.524 3038.97 440 3034.4 440Z" fill="url(#paint0_linear_374_209)"/>
<defs>
<linearGradient id="paint0_linear_374_209" x1="1601.78" y1="-2.1374" x2="1601.78" y2="842.137" gradientUnits="userSpaceOnUse">
<stop stop-color="white"/>
<stop offset="1" stop-color="#E7A3FF" stop-opacity="0"/>
</linearGradient>
</defs>
</svg>
